<?xml version="1.0" encoding="UTF-8" standalone="no"?>
<!-- Created with Inkscape (http://www.inkscape.org/) -->

<svg
   width="512"
   height="512"
   viewBox="0 0 512 512"
   version="1.1"
   id="svg1"
   inkscape:version="1.4.2 (f4327f4, 2025-05-13)"
   sodipodi:docname="tile_basic_M_G_inkscape.svg"
   xml:space="preserve"
   inkscape:export-filename="tile_basic_M_G_field.svg"
   inkscape:export-xdpi="96"
   inkscape:export-ydpi="96"
   xmlns:inkscape="http://www.inkscape.org/namespaces/inkscape"
   xmlns:sodipodi="http://sodipodi.sourceforge.net/DTD/sodipodi-0.dtd"
   xmlns:xlink="http://www.w3.org/1999/xlink"
   xmlns="http://www.w3.org/2000/svg"
   xmlns:svg="http://www.w3.org/2000/svg"><sodipodi:namedview
     id="namedview1"
     pagecolor="#ffffff"
     bordercolor="#000000"
     borderopacity="0.25"
     inkscape:showpageshadow="2"
     inkscape:pageopacity="0.0"
     inkscape:pagecheckerboard="0"
     inkscape:deskcolor="#d1d1d1"
     inkscape:document-units="px"
     labelstyle="default"
     inkscape:zoom="2.0792508"
     inkscape:cx="198.62924"
     inkscape:cy="308.04365"
     inkscape:window-width="2560"
     inkscape:window-height="1369"
     inkscape:window-x="-8"
     inkscape:window-y="-8"
     inkscape:window-maximized="1"
     inkscape:current-layer="layer1" /><defs
     id="defs1" /><g
     inkscape:label="Layer 1"
     inkscape:groupmode="layer"
     id="layer1"><image
       width="512"
       height="512"
       preserveAspectRatio="none"
       xlink:href="tile_basic_M_G.png"
       id="image1"
       x="0"
       y="0"
       sodipodi:insensitive="true"
       inkscape:label="tile_basic_M_G" /><path
       style="display:none;fill:#a351b3;fill-opacity:0.446809;stroke:#000000;stroke-width:0.1"
       d="m -11.562641,-12.922952 c 28.226447,29.586758 40.469244,50.671574 42.169632,64.274681 1.700388,13.603107 3.060699,23.125282 6.801553,27.88637 3.740855,4.761087 3.400777,11.222563 5.781321,15.983651 2.380544,4.761087 12.922952,24.82567 16.663806,32.98753 0,0 8.84202,21.08482 20.064583,31.62723 11.222563,10.54241 22.105046,19.7245 22.105046,19.7245 v 5.27121 c 0,0 4.25097,7.65175 11.39261,8.3319 7.14163,0.68016 11.73268,-1.53035 11.73268,-1.53035 0,0 22.7852,12.41284 35.53811,18.19416 12.75292,5.78132 11.3926,4.42101 21.59493,9.52217 10.20234,5.10117 21.08482,11.3926 21.08482,11.3926 v 9.86226 l 25.50583,14.79338 9.18209,-4.76109 52.37197,28.05641 v 11.22256 l 27.20621,16.83384 7.99183,-4.76108 19.55446,11.90272 -14.11322,17.17392 -5.61128,2.55058 7.35784,4.00541 v 44.84788 c 0,0 4.44872,3.43099 8.4165,4.27264 3.96777,0.84165 9.24605,0.9473 9.24605,0.9473 0,0 9.55196,2.71812 15.88923,3.96173 6.4191,1.25968 17.73903,5.311 28.44,7.83595 10.70097,2.52495 29.86824,9.67469 41.65133,20.61613 11.78309,10.94144 25.26068,25.36816 31.65489,34.7058 12.33428,18.01211 10.06686,21.08353 16.19888,28.29766 6.13202,7.21414 10.22003,9.13791 16.71275,18.03535 6.49272,8.89743 15.75087,22.84476 15.75087,22.84476 L 520.999,-13.603107 Z"
       id="path1"
       sodipodi:nodetypes="cssscsccscsscccccccccccccscssssssccc"
       inkscape:label="city"
       sodipodi:insensitive="true" /><rect
       style="display:none;fill:#a351b3;fill-opacity:0.446809;stroke:#000000;stroke-width:0.517594"
       id="rect1"
       width="511.48239"
       height="511.48239"
       x="0.25879699"
       y="0.25879699"
       inkscape:label="field"
       sodipodi:insensitive="true" /><path
       style="display:none;fill:#a351b3;fill-opacity:0.446809;stroke:#000000;stroke-width:0.1"
       d="m 17.413536,393.14129 -0.24047,12.74497 164.001374,77.19127 h 11.54263 L 315.35739,415.98605 V 401.97433 L 157.84873,329.65688 Z"
       id="path2"
       sodipodi:nodetypes="cccccccc"
       inkscape:label="garden"
       sodipodi:insensitive="true" /></g><g
     inkscape:groupmode="layer"
     id="layer19"
     inkscape:label="cut"><path
       d="m 157.84961,329.65625 -140.435548,63.48437 -0.240234,12.7461 164.000002,77.1914 h 11.54297 l 122.64062,-67.09179 v -14.01172 z"
       style="display:inline;fill:#a351b3;fill-opacity:0.446809;stroke:#000000;stroke-width:0.517594"
       id="path7"
       inkscape:label="garden" /><path
       d="M 0.25976563,0.25976563 V 511.74023 H 508.48828 c -2.47642,-3.60026 -5.14814,-7.42023 -7.4668,-10.59765 -6.49272,-8.89744 -10.58087,-10.82102 -16.71289,-18.03516 -6.13202,-7.21413 -3.86494,-10.28672 -16.19922,-28.29883 -6.3942,-9.33764 -19.8712,-23.76363 -31.65429,-34.70507 -11.78309,-10.94144 -30.94942,-18.09224 -41.65039,-20.61719 -10.70097,-2.52495 -22.02231,-6.57626 -28.44141,-7.83594 -6.33727,-1.24361 -15.88867,-3.96094 -15.88867,-3.96094 0,0 -5.27832,-0.10561 -9.24609,-0.94726 -3.96778,-0.84165 -8.41602,-4.27344 -8.41602,-4.27344 v -44.84766 l -7.35742,-4.00586 5.61133,-2.54882 14.11328,-17.17383 -19.55469,-11.9043 -7.99219,4.76172 -27.20703,-16.83398 v -11.22266 l -52.37109,-28.05664 -9.18164,4.76172 -25.50586,-14.79297 v -9.86328 c 0,0 -10.8836,-6.29141 -21.08594,-11.39258 -10.20233,-5.10116 -8.84083,-3.74016 -21.59375,-9.52149 -12.75291,-5.78132 -35.53906,-18.19531 -35.53906,-18.19531 0,0 -4.59079,2.21141 -11.73242,1.53125 -7.14164,-0.68015 -11.39258,-8.33203 -11.39258,-8.33203 v -5.27148 c 0,0 -10.882908,-9.1822 -22.105471,-19.72461 C 68.695406,149.29353 59.853516,128.20898 59.853516,128.20898 56.112662,120.04712 45.569997,99.983743 43.189453,95.222656 40.808909,90.461568 41.149058,83.999368 37.408203,79.238281 33.667349,74.477193 32.30781,64.954669 30.607422,51.351562 29.171285,39.862465 20.213975,23.037514 0.45898438,0.25976563 Z M 157.84961,329.65625 315.35742,401.97461 v 14.01172 L 192.7168,483.07812 h -11.54297 l -164.000002,-77.1914 0.240234,-12.7461 z"
       style="display:inline;fill:#a351b3;fill-opacity:0.446809;stroke:#000000;stroke-width:0.517594"
       id="path6"
       inkscape:label="field" /><path
       d="m 508.48828,511.74023 h 3.25195 V 0.25976563 H 0.45898438 C 20.213975,23.037514 29.171285,39.862465 30.607422,51.351562 c 1.700388,13.603107 3.059927,23.125631 6.800781,27.886719 3.740855,4.761087 3.400706,11.223287 5.78125,15.984375 2.380544,4.761087 12.923209,24.824464 16.664063,32.986324 0,0 8.84189,21.08455 20.064453,31.62696 11.222563,10.54241 22.105471,19.72461 22.105471,19.72461 v 5.27148 c 0,0 4.25094,7.65188 11.39258,8.33203 7.14163,0.68016 11.73242,-1.53125 11.73242,-1.53125 0,0 22.78615,12.41399 35.53906,18.19531 12.75292,5.78132 11.39142,4.42033 21.59375,9.52149 10.20234,5.10117 21.08594,11.39258 21.08594,11.39258 v 9.86328 l 25.50586,14.79297 9.18164,-4.76172 52.37109,28.05664 v 11.22266 l 27.20703,16.83398 7.99219,-4.76172 19.55469,11.9043 -14.11328,17.17383 -5.61133,2.54882 7.35742,4.00586 v 44.84766 c 0,0 4.44824,3.43179 8.41602,4.27344 3.96777,0.84165 9.24609,0.94726 9.24609,0.94726 0,0 9.5514,2.71733 15.88867,3.96094 6.4191,1.25968 17.74044,5.31099 28.44141,7.83594 10.70097,2.52495 29.8673,9.67575 41.65039,20.61719 11.78309,10.94144 25.26009,25.36743 31.65429,34.70507 12.33428,18.01211 10.0672,21.0847 16.19922,28.29883 6.13202,7.21414 10.22017,9.13772 16.71289,18.03516 2.31866,3.17742 4.99038,6.99739 7.4668,10.59765 z"
       style="display:none;fill:#a351b3;fill-opacity:0.446809;stroke:#000000;stroke-width:0.517594"
       id="path3"
       inkscape:label="city" /></g></svg>
