<?xml version="1.0" encoding="UTF-8" standalone="no"?>
<!-- Created with Inkscape (http://www.inkscape.org/) -->

<svg
   width="512"
   height="512"
   viewBox="0 0 512 512"
   version="1.1"
   id="svg1"
   xml:space="preserve"
   xmlns="http://www.w3.org/2000/svg"
   xmlns:svg="http://www.w3.org/2000/svg"><defs
     id="defs1" /><g
     id="layer19"><path
       d="M 0.25976563,0.25976563 V 511.74023 H 508.48828 c -2.47642,-3.60026 -5.14814,-7.42023 -7.4668,-10.59765 -6.49272,-8.89744 -10.58087,-10.82102 -16.71289,-18.03516 -6.13202,-7.21413 -3.86494,-10.28672 -16.19922,-28.29883 -6.3942,-9.33764 -19.8712,-23.76363 -31.65429,-34.70507 -11.78309,-10.94144 -30.94942,-18.09224 -41.65039,-20.61719 -10.70097,-2.52495 -22.02231,-6.57626 -28.44141,-7.83594 -6.33727,-1.24361 -15.88867,-3.96094 -15.88867,-3.96094 0,0 -5.27832,-0.10561 -9.24609,-0.94726 -3.96778,-0.84165 -8.41602,-4.27344 -8.41602,-4.27344 v -44.84766 l -7.35742,-4.00586 5.61133,-2.54882 14.11328,-17.17383 -19.55469,-11.9043 -7.99219,4.76172 -27.20703,-16.83398 v -11.22266 l -52.37109,-28.05664 -9.18164,4.76172 -25.50586,-14.79297 v -9.86328 c 0,0 -10.8836,-6.29141 -21.08594,-11.39258 -10.20233,-5.10116 -8.84083,-3.74016 -21.59375,-9.52149 -12.75291,-5.78132 -35.53906,-18.19531 -35.53906,-18.19531 0,0 -4.59079,2.21141 -11.73242,1.53125 -7.14164,-0.68015 -11.39258,-8.33203 -11.39258,-8.33203 v -5.27148 c 0,0 -10.882908,-9.1822 -22.105471,-19.72461 C 68.695406,149.29353 59.853516,128.20898 59.853516,128.20898 56.112662,120.04712 45.569997,99.983743 43.189453,95.222656 40.808909,90.461568 41.149058,83.999368 37.408203,79.238281 33.667349,74.477193 32.30781,64.954669 30.607422,51.351562 29.171285,39.862465 20.213975,23.037514 0.45898438,0.25976563 Z M 157.84961,329.65625 315.35742,401.97461 v 14.01172 L 192.7168,483.07812 h -11.54297 l -164.000002,-77.1914 0.240234,-12.7461 z"
       style="display:inline;fill:#a351b3;fill-opacity:0.446809;stroke:#000000;stroke-width:0.517594"
       id="path6" /></g></svg>
