<?xml version="1.0" encoding="UTF-8" standalone="no"?>
<!-- Created with Inkscape (http://www.inkscape.org/) -->

<svg
   width="512"
   height="512"
   viewBox="0 0 512 512"
   version="1.1"
   id="svg1"
   xml:space="preserve"
   xmlns="http://www.w3.org/2000/svg"
   xmlns:svg="http://www.w3.org/2000/svg"><defs
     id="defs1" /><g
     id="layer21"
     style="display:inline"><path
       d="m 510.38477,511.8125 c -5.2179,-5.57228 -11.29373,-11.69784 -15.85547,-15.11914 -9.61885,-7.21414 -29.45703,-17.31445 -29.45703,-17.31445 0,0 -3.48683,0.84203 -7.93555,0.60156 -4.44872,-0.24047 -8.41797,-3.2461 -8.41797,-3.2461 V 458.81836 L 414.69336,414.8125 c 0,0 -6.61313,0.96189 -13.70703,0 -7.0939,-0.96188 -9.25781,-5.77148 -9.25781,-5.77148 v -10.33985 l -48.81641,-29.81836 c 0,0 -12.26331,1.68298 -24.52734,1.32227 -12.26403,-0.36071 -16.95313,-8.29492 -16.95313,-8.29492 l -34.13086,-0.36329 148.01172,67.95508 v 14.01172 l -122.64063,67.0918 h -11.54296 l -164.00196,-77.19141 0.24024,-12.74414 131.23047,-59.32226 -26.16211,-0.2793 c 0,0 -3.72683,6.37153 -16.35157,8.89648 -12.62474,2.52495 -18.03515,-2.40429 -18.03515,-2.40429 l -35.71094,18.27539 v 12.74609 c 0,0 -3.00591,4.56848 -12.86523,8.41602 -9.85932,3.84754 -17.07227,-0.96289 -17.07227,-0.96289 l -45.089843,44.36718 v 2.04493 c 0,0 -2.64518,2.64373 -7.935547,4.44726 -5.290367,1.80353 -10.580078,-1.44141 -10.580078,-1.44141 0,2e-5 -23.924817,23.29253 -57.0722658,56.35938 z"
       style="fill:#a351b3;fill-opacity:0.446809;stroke:#000000;stroke-width:0.37507"
       id="path8" /></g></svg>
