<?xml version="1.0" encoding="UTF-8" standalone="no"?>
<!-- Created with Inkscape (http://www.inkscape.org/) -->

<svg
   width="512"
   height="512"
   viewBox="0 0 512 512"
   version="1.1"
   id="svg1"
   xml:space="preserve"
   xmlns="http://www.w3.org/2000/svg"
   xmlns:svg="http://www.w3.org/2000/svg"><defs
     id="defs1" /><g
     id="layer15"
     style="display:inline"><path
       d="M 510.49997,0.22265237 H 0.22262573 v 0.59375 C 8.8562062,8.5573124 22.480018,20.718122 32.945281,29.818352 c 16.592546,14.42828 50.628907,39.8125 50.628907,39.8125 v 2.125 c 0,0 3.399735,5.78113 10.03125,5.95117 6.631522,0.17004 11.648442,-1.44531 11.648442,-1.44531 0,0 14.28252,9.94778 22.35937,14.87891 8.07684,4.93113 22.61524,13.093738 22.61524,13.093748 v 21.76367 c 0,0 10.96835,7.65258 24.3164,7.3125 13.34805,-0.34008 21.33985,-5.35547 21.33985,-5.35547 0,0 2.71963,0.67843 5.69531,-0.3418 2.97568,-1.02023 4.25195,-3.57031 4.25195,-3.57031 l 54.66797,-10.28711 c 0,0 8.84084,8.41649 21.59375,7.73633 12.75292,-0.68016 16.91992,-8.67188 16.91992,-8.67188 l 33.32813,8.50196 c 0,0 4.92935,4.3364 13.9414,3.65625 9.01206,-0.68016 11.39258,-5.01563 11.39258,-5.01563 0,0 13.94437,-1.61554 25.25195,-5.44141 11.30759,-3.82588 26.95118,-10.96875 26.95118,-10.96875 0,0 8.75633,2.38112 16.57812,0.59571 7.82178,-1.78541 11.90235,-5.271488 11.90234,-5.271488 v -19.1289 c 0,0 15.21855,-14.87767 22.61524,-22.35938 7.39669,-7.48171 23.97524,-25.33711 28.73633,-32.13867 2.96075,-4.22965 13.3538,-16.4160596 20.78906,-25.02733963 z"
       style="display:inline;fill:#a351b3;fill-opacity:0.446809;stroke:#000000;stroke-width:0.447214"
       id="path7" /></g></svg>
