<?xml version="1.0" encoding="UTF-8" standalone="no"?>
<!-- Created with Inkscape (http://www.inkscape.org/) -->

<svg
   width="512"
   height="512"
   viewBox="0 0 512 512"
   version="1.1"
   id="svg1"
   xml:space="preserve"
   xmlns="http://www.w3.org/2000/svg"
   xmlns:svg="http://www.w3.org/2000/svg"><defs
     id="defs1" /><g
     id="layer15"
     style="display:inline"><path
       d="M 32.945281,29.818352 C 22.480018,20.718122 8.8562062,8.5573124 0.22262573,0.81640237 V 511.77734 H 3.2187195 C 17.242008,497.57586 33.371494,480.86036 39.404266,473.16015 l 20.908203,-26.6875 32.322266,0.0996 c 0,0 6.748969,-6.01834 7.060546,-14.86328 0.378569,-10.74657 -3.291015,-13.82422 -3.291015,-13.82422 0,0 5.097614,-18.6299 12.560544,-41.61133 3.92218,-12.07801 19.07618,-47.44727 19.07618,-47.44727 h 6.35742 c 0,0 5.87171,-9.17013 5.68359,-17.79101 -0.27908,-12.79001 -5.29687,-20.04297 -5.29687,-20.04297 l 3.01562,-75.16211 4.99609,-0.008 c 0,0 6.33801,-4.78199 6.06055,-16.75782 -0.29475,-12.72248 -12.15625,-21.98828 -12.15625,-21.98828 L 120.47653,129.9373 c 0,0 3.21104,-3.47472 0.11328,-13.78125 -2.11782,-7.04617 -8.75195,-9.58203 -8.75195,-9.58203 0,0 -30.980743,-31.018668 -33,-33.423828 -9.899415,-11.79134 -37.596213,-36.1178 -45.892579,-43.33203 z"
       style="display:inline;fill:#a351b3;fill-opacity:0.446809;stroke:#000000;stroke-width:0.447214"
       id="path6" /></g></svg>
