<?xml version="1.0" encoding="UTF-8" standalone="no"?>
<!-- Created with Inkscape (http://www.inkscape.org/) -->

<svg
   width="512"
   height="512"
   viewBox="0 0 512 512"
   version="1.1"
   id="svg1"
   xml:space="preserve"
   xmlns="http://www.w3.org/2000/svg"
   xmlns:svg="http://www.w3.org/2000/svg"><defs
     id="defs1" /><g
     id="layer15"
     style="display:inline"><path
       d="M 510.49997,0.22265237 C 503.06471,8.8339324 492.67166,21.020342 489.71091,25.249992 c -4.76109,6.80156 -21.33964,24.65696 -28.73633,32.13867 -7.39669,7.48171 -22.61524,22.35938 -22.61524,22.35938 v 19.1289 c 1e-5,0 -4.08056,3.486078 -11.90234,5.271488 -7.82179,1.78541 -16.57812,-0.59571 -16.57812,-0.59571 0,0 -15.64359,7.14287 -26.95118,10.96875 -11.30758,3.82587 -25.25195,5.44141 -25.25195,5.44141 0,0 -2.38052,4.33547 -11.39258,5.01563 -9.01205,0.68015 -13.9414,-3.65625 -13.9414,-3.65625 l -33.32813,-8.50196 c 0,0 -4.167,7.99172 -16.91992,8.67188 -12.75291,0.68016 -21.59375,-7.73633 -21.59375,-7.73633 L 205.832,124.04296 c 0,0 -1.27627,2.55008 -4.25195,3.57031 -2.97568,1.02023 -5.69531,0.3418 -5.69531,0.3418 0,0 -7.9918,5.01539 -21.33985,5.35547 -13.34805,0.34008 -24.3164,-7.3125 -24.3164,-7.3125 v -21.76367 c 0,-1e-5 -14.5384,-8.162618 -22.61524,-13.093748 -8.07685,-4.93113 -22.35937,-14.87891 -22.35937,-14.87891 0,0 -5.01692,1.61535 -11.648442,1.44531 -6.631515,-0.17004 -10.03125,-5.95117 -10.03125,-5.95117 v -2.125 c 0,0 -34.036361,-25.38422 -50.628907,-39.8125 8.296366,7.21423 35.993164,31.54069 45.892579,43.33203 2.019257,2.40516 33,33.423828 33,33.423828 0,0 6.63413,2.53586 8.75195,9.58203 3.09776,10.30653 -0.11328,13.78125 -0.11328,13.78125 l 16.22461,47.13867 c 0,0 11.8615,9.2658 12.15625,21.98828 0.27746,11.97583 -6.06055,16.75782 -6.06055,16.75782 l -4.99609,0.008 -3.01562,75.16211 c 0,0 5.01779,7.25296 5.29687,20.04297 0.18812,8.62088 -5.68359,17.79101 -5.68359,17.79101 h -6.35742 c 0,0 -15.154,35.36926 -19.07618,47.44727 -7.46293,22.98143 -12.560544,41.61133 -12.560544,41.61133 0,0 3.669584,3.07765 3.291015,13.82422 -0.311577,8.84494 -7.060546,14.86328 -7.060546,14.86328 l -32.322266,-0.0998 -20.908203,26.6875 c -6.032772,7.70021 -22.162258,24.41571 -36.1855465,38.61719 H 511.77731 V 0.22265237 Z M 298.2402,346.8203 370.55661,189.31054 h 14.01172 l 67.0918,122.64062 v 11.54297 l -77.19141,164.00196 -12.74414,-0.24024 z"
       style="display:inline;fill:#a351b3;fill-opacity:0.446809;stroke:#000000;stroke-width:0.447214"
       id="path8" /></g></svg>
