<?xml version="1.0" encoding="UTF-8" standalone="no"?>
<!-- Created with Inkscape (http://www.inkscape.org/) -->

<svg
   width="512"
   height="512"
   viewBox="0 0 512 512"
   version="1.1"
   id="svg1"
   inkscape:version="1.4.2 (f4327f4, 2025-05-13)"
   sodipodi:docname="tile_basic_I_G_inkscape.svg"
   xml:space="preserve"
   inkscape:export-filename="tile_basic_I_G_field.svg"
   inkscape:export-xdpi="96"
   inkscape:export-ydpi="96"
   xmlns:inkscape="http://www.inkscape.org/namespaces/inkscape"
   xmlns:sodipodi="http://sodipodi.sourceforge.net/DTD/sodipodi-0.dtd"
   xmlns:xlink="http://www.w3.org/1999/xlink"
   xmlns="http://www.w3.org/2000/svg"
   xmlns:svg="http://www.w3.org/2000/svg"><sodipodi:namedview
     id="namedview1"
     pagecolor="#ffffff"
     bordercolor="#000000"
     borderopacity="0.25"
     inkscape:showpageshadow="2"
     inkscape:pageopacity="0.0"
     inkscape:pagecheckerboard="0"
     inkscape:deskcolor="#d1d1d1"
     inkscape:document-units="px"
     labelstyle="default"
     inkscape:zoom="1.4142136"
     inkscape:cx="34.648231"
     inkscape:cy="246.4267"
     inkscape:window-width="2560"
     inkscape:window-height="1369"
     inkscape:window-x="-8"
     inkscape:window-y="-8"
     inkscape:window-maximized="1"
     inkscape:current-layer="layer15" /><defs
     id="defs1" /><g
     inkscape:label="Layer 1"
     inkscape:groupmode="layer"
     id="layer1"
     style="display:inline"><image
       width="512"
       height="512"
       preserveAspectRatio="none"
       xlink:href="tile_basic_I_G.png"
       id="image1"
       x="0"
       y="0"
       inkscape:label="tile_basic_I_G"
       sodipodi:insensitive="true"
       style="display:inline" /><path
       style="display:none;fill:#a351b3;fill-opacity:0.446809;stroke:#000000;stroke-width:0.1"
       d="m -8.1760829,-6.7332176 c 0,0 24.5280649,22.1233496 41.1205799,36.5516296 16.592515,14.42827 50.62953,39.81247 50.62953,39.81247 v 2.12548 c 0,0 3.400777,5.78132 10.032292,5.95136 6.631521,0.17004 11.647661,-1.44533 11.647661,-1.44533 0,0 14.28326,9.94728 22.36011,14.8784 8.07684,4.93113 22.61516,13.092988 22.61516,13.092988 v 21.76497 c 0,0 10.96751,7.65175 24.31556,7.31167 13.34805,-0.34008 21.33987,-5.35622 21.33987,-5.35622 0,0 2.72062,0.68015 5.6963,-0.34008 2.97568,-1.02023 4.25097,-3.57082 4.25097,-3.57082 l 54.66749,-10.28735 c 0,0 8.84202,8.41693 21.59493,7.73677 12.75292,-0.68016 16.91887,-8.67198 16.91887,-8.67198 l 33.32761,8.50194 c 0,0 4.93113,4.33599 13.94318,3.65584 9.01206,-0.68016 11.39261,-5.01615 11.39261,-5.01615 0,0 13.94318,-1.61537 25.25076,-5.44124 11.30759,-3.82588 26.95116,-10.96751 26.95116,-10.96751 0,0 8.757,2.38055 16.57879,0.59514 7.82178,-1.78541 11.90272,-5.271198 11.90272,-5.271198 v -19.12937 c 0,0 15.21847,-14.8784 22.61516,-22.36011 7.39669,-7.48171 23.97548,-25.33578 28.73657,-32.13734 4.76108,-6.80155 28.73656,-34.1777996 28.73656,-34.1777996 z"
       id="path1"
       inkscape:label="city_top"
       sodipodi:insensitive="true" /><path
       style="display:none;fill:#a351b3;fill-opacity:0.446809;stroke:#000000;stroke-width:0.1"
       d="m -8.1760829,-6.7332176 c 0,0 24.5280649,22.1233496 41.1205799,36.5516296 8.296257,7.21413 35.994615,31.54012 45.894065,43.3315 2.019257,2.40516 32.999198,33.423968 32.999198,33.423968 0,0 6.63402,2.53599 8.75184,9.58216 3.09776,10.30653 -0.11344,13.78063 -0.11344,13.78063 l 16.22507,47.14024 c 0,0 11.8606,9.26582 12.15535,21.9883 0.27746,11.97583 -6.05996,16.75681 -6.05996,16.75681 l -4.996,0.008 -3.01614,75.16133 c 0,0 5.01932,7.25283 5.2984,20.04284 0.18812,8.62088 -5.68495,17.79288 -5.68495,17.79288 l -6.35613,-10e-4 c 0,0 -15.1552,35.36971 -19.07738,47.44772 -7.46293,22.98143 -12.559237,41.61068 -12.559237,41.61068 0,0 3.668507,3.07877 3.28994,13.82534 -0.311578,8.84494 -7.059744,14.86217 -7.059744,14.86217 l -32.322153,-0.10022 -20.90949,26.68879 c -11.541874,14.73201 -60.041162,62.45792 -60.041162,62.45792 z"
       id="path2"
       sodipodi:nodetypes="csscsccscccsccscsccscc"
       inkscape:label="city_left"
       sodipodi:insensitive="true" /><path
       style="display:none;fill:#a351b3;fill-opacity:0.446809;stroke:#000000;stroke-width:0.1"
       d="m 361.7237,487.25532 12.74498,0.24047 77.19126,-164.00137 V 311.95179 L 384.56847,189.31147 H 370.55675 L 298.2393,346.82013 Z"
       id="path2-1"
       sodipodi:nodetypes="cccccccc"
       inkscape:label="garden"
       sodipodi:insensitive="true" /><rect
       style="display:none;fill:#a351b3;fill-opacity:0.446809;stroke:#000000;stroke-width:0.447214"
       id="rect2"
       width="511.5528"
       height="511.5528"
       x="0.22354621"
       y="0.22359467"
       inkscape:label="field"
       sodipodi:insensitive="true" /></g><g
     inkscape:groupmode="layer"
     id="layer15"
     inkscape:label="cut"
     style="display:inline"><path
       d="m 298.2402,346.8203 63.48438,140.43555 12.74414,0.24024 77.19141,-164.00196 v -11.54297 l -67.0918,-122.64062 h -14.01172 z"
       style="display:inline;fill:#a351b3;fill-opacity:0.446809;stroke:#000000;stroke-width:0.447214"
       id="path9"
       inkscape:label="garden" /><path
       d="M 510.49997,0.22265237 C 503.06471,8.8339324 492.67166,21.020342 489.71091,25.249992 c -4.76109,6.80156 -21.33964,24.65696 -28.73633,32.13867 -7.39669,7.48171 -22.61524,22.35938 -22.61524,22.35938 v 19.1289 c 1e-5,0 -4.08056,3.486078 -11.90234,5.271488 -7.82179,1.78541 -16.57812,-0.59571 -16.57812,-0.59571 0,0 -15.64359,7.14287 -26.95118,10.96875 -11.30758,3.82587 -25.25195,5.44141 -25.25195,5.44141 0,0 -2.38052,4.33547 -11.39258,5.01563 -9.01205,0.68015 -13.9414,-3.65625 -13.9414,-3.65625 l -33.32813,-8.50196 c 0,0 -4.167,7.99172 -16.91992,8.67188 -12.75291,0.68016 -21.59375,-7.73633 -21.59375,-7.73633 L 205.832,124.04296 c 0,0 -1.27627,2.55008 -4.25195,3.57031 -2.97568,1.02023 -5.69531,0.3418 -5.69531,0.3418 0,0 -7.9918,5.01539 -21.33985,5.35547 -13.34805,0.34008 -24.3164,-7.3125 -24.3164,-7.3125 v -21.76367 c 0,-1e-5 -14.5384,-8.162618 -22.61524,-13.093748 -8.07685,-4.93113 -22.35937,-14.87891 -22.35937,-14.87891 0,0 -5.01692,1.61535 -11.648442,1.44531 -6.631515,-0.17004 -10.03125,-5.95117 -10.03125,-5.95117 v -2.125 c 0,0 -34.036361,-25.38422 -50.628907,-39.8125 8.296366,7.21423 35.993164,31.54069 45.892579,43.33203 2.019257,2.40516 33,33.423828 33,33.423828 0,0 6.63413,2.53586 8.75195,9.58203 3.09776,10.30653 -0.11328,13.78125 -0.11328,13.78125 l 16.22461,47.13867 c 0,0 11.8615,9.2658 12.15625,21.98828 0.27746,11.97583 -6.06055,16.75782 -6.06055,16.75782 l -4.99609,0.008 -3.01562,75.16211 c 0,0 5.01779,7.25296 5.29687,20.04297 0.18812,8.62088 -5.68359,17.79101 -5.68359,17.79101 h -6.35742 c 0,0 -15.154,35.36926 -19.07618,47.44727 -7.46293,22.98143 -12.560544,41.61133 -12.560544,41.61133 0,0 3.669584,3.07765 3.291015,13.82422 -0.311577,8.84494 -7.060546,14.86328 -7.060546,14.86328 l -32.322266,-0.0998 -20.908203,26.6875 c -6.032772,7.70021 -22.162258,24.41571 -36.1855465,38.61719 H 511.77731 V 0.22265237 Z M 298.2402,346.8203 370.55661,189.31054 h 14.01172 l 67.0918,122.64062 v 11.54297 l -77.19141,164.00196 -12.74414,-0.24024 z"
       style="display:inline;fill:#a351b3;fill-opacity:0.446809;stroke:#000000;stroke-width:0.447214"
       id="path8"
       inkscape:label="field" /><path
       d="M 510.49997,0.22265237 H 0.22262573 v 0.59375 C 8.8562062,8.5573124 22.480018,20.718122 32.945281,29.818352 c 16.592546,14.42828 50.628907,39.8125 50.628907,39.8125 v 2.125 c 0,0 3.399735,5.78113 10.03125,5.95117 6.631522,0.17004 11.648442,-1.44531 11.648442,-1.44531 0,0 14.28252,9.94778 22.35937,14.87891 8.07684,4.93113 22.61524,13.093738 22.61524,13.093748 v 21.76367 c 0,0 10.96835,7.65258 24.3164,7.3125 13.34805,-0.34008 21.33985,-5.35547 21.33985,-5.35547 0,0 2.71963,0.67843 5.69531,-0.3418 2.97568,-1.02023 4.25195,-3.57031 4.25195,-3.57031 l 54.66797,-10.28711 c 0,0 8.84084,8.41649 21.59375,7.73633 12.75292,-0.68016 16.91992,-8.67188 16.91992,-8.67188 l 33.32813,8.50196 c 0,0 4.92935,4.3364 13.9414,3.65625 9.01206,-0.68016 11.39258,-5.01563 11.39258,-5.01563 0,0 13.94437,-1.61554 25.25195,-5.44141 11.30759,-3.82588 26.95118,-10.96875 26.95118,-10.96875 0,0 8.75633,2.38112 16.57812,0.59571 7.82178,-1.78541 11.90235,-5.271488 11.90234,-5.271488 v -19.1289 c 0,0 15.21855,-14.87767 22.61524,-22.35938 7.39669,-7.48171 23.97524,-25.33711 28.73633,-32.13867 2.96075,-4.22965 13.3538,-16.4160596 20.78906,-25.02733963 z"
       style="display:inline;fill:#a351b3;fill-opacity:0.446809;stroke:#000000;stroke-width:0.447214"
       id="path7"
       inkscape:label="city_top" /><path
       d="M 32.945281,29.818352 C 22.480018,20.718122 8.8562062,8.5573124 0.22262573,0.81640237 V 511.77734 H 3.2187195 C 17.242008,497.57586 33.371494,480.86036 39.404266,473.16015 l 20.908203,-26.6875 32.322266,0.0996 c 0,0 6.748969,-6.01834 7.060546,-14.86328 0.378569,-10.74657 -3.291015,-13.82422 -3.291015,-13.82422 0,0 5.097614,-18.6299 12.560544,-41.61133 3.92218,-12.07801 19.07618,-47.44727 19.07618,-47.44727 h 6.35742 c 0,0 5.87171,-9.17013 5.68359,-17.79101 -0.27908,-12.79001 -5.29687,-20.04297 -5.29687,-20.04297 l 3.01562,-75.16211 4.99609,-0.008 c 0,0 6.33801,-4.78199 6.06055,-16.75782 -0.29475,-12.72248 -12.15625,-21.98828 -12.15625,-21.98828 L 120.47653,129.9373 c 0,0 3.21104,-3.47472 0.11328,-13.78125 -2.11782,-7.04617 -8.75195,-9.58203 -8.75195,-9.58203 0,0 -30.980743,-31.018668 -33,-33.423828 -9.899415,-11.79134 -37.596213,-36.1178 -45.892579,-43.33203 z"
       style="display:inline;fill:#a351b3;fill-opacity:0.446809;stroke:#000000;stroke-width:0.447214"
       id="path6"
       inkscape:label="city_left" /></g></svg>
