<?xml version="1.0" encoding="UTF-8" standalone="no"?>
<!-- Created with Inkscape (http://www.inkscape.org/) -->

<svg
   width="512mm"
   height="512mm"
   viewBox="0 0 512 512"
   version="1.1"
   id="svg1"
   xml:space="preserve"
   xmlns="http://www.w3.org/2000/svg"
   xmlns:svg="http://www.w3.org/2000/svg"><defs
     id="defs1" /><g
     id="layer4"
     style="display:inline"><path
       d="M 0.11782227,0.1173055 V 511.88245 H 237.6625 c 12.72063,-29.84828 22.72629,-41.62257 48.50401,-56.26478 15.36154,-8.72564 40.26509,-16.62446 55.0199,-21.30361 18.77142,-5.95294 36.00528,-18.07191 35.64537,-39.66683 -0.3596,-21.57574 -32.51547,-42.25346 -67.21192,-52.34099 l -13.61571,7.02438 -99.6704,-51.14055 -32.93235,16.55609 -49.75821,-24.63674 v -10.90476 l -3.32899,-2.42982 v -36.98121 l -5.12889,-2.96933 8.45788,-11.06754 0.18035,-7.28792 -8.4584,-4.04937 39.86062,-40.49003 -2.15956,-1.25988 9.45679,-10.97762 V 97.006482 l -9.36635,-5.407939 v -1.349788 l 46.654,-57.532406 V 18.982821 l -7.73855,-0.01964 v -2.992066 h 7.73855 V 7.7158081 h 2.76675 v 8.2553099 h 7.28845 v 3.037024 l -7.28845,-0.0186 v 13.221415 l 43.47022,58.135986 -0.12713,3.181201 -7.2533,3.054077 -0.12712,48.609429 104.85303,40.08335 44.15596,47.59141 -2.79983,1.65416 -5.4715,-2.92695 0.35967,79.75068 -15.30708,7.89668 c 0.002,0.001 0.004,0.003 0.007,0.004 13.19934,7.41448 23.26599,14.41143 32.3081,22.99136 28.37441,26.92408 28.2399,61.59284 28.95172,70.53007 1.45986,18.32937 -15.37084,41.26675 -52.62211,50.98448 -36.99891,9.65189 -56.22705,8.46223 -81.54179,48.13143 h 230.4495 V 0.1173055 Z"
       style="display:inline;fill:#a351b3;fill-opacity:0.446809;stroke:#000000;stroke-width:0.23523"
       id="path28" /></g></svg>
