<?xml version="1.0" encoding="UTF-8" standalone="no"?>
<!-- Created with Inkscape (http://www.inkscape.org/) -->

<svg
   width="512"
   height="512"
   viewBox="0 0 512.00001 512.00001"
   version="1.1"
   id="svg1"
   xml:space="preserve"
   inkscape:export-filename="road.svg"
   inkscape:export-xdpi="96"
   inkscape:export-ydpi="96"
   inkscape:version="1.4.2 (f4327f4, 2025-05-13)"
   sodipodi:docname="tile_basic_A_inkscape.svg"
   xmlns:inkscape="http://www.inkscape.org/namespaces/inkscape"
   xmlns:sodipodi="http://sodipodi.sourceforge.net/DTD/sodipodi-0.dtd"
   xmlns:xlink="http://www.w3.org/1999/xlink"
   xmlns="http://www.w3.org/2000/svg"
   xmlns:svg="http://www.w3.org/2000/svg"><sodipodi:namedview
     id="namedview1"
     pagecolor="#ffffff"
     bordercolor="#000000"
     borderopacity="0.25"
     inkscape:showpageshadow="2"
     inkscape:pageopacity="0.0"
     inkscape:pagecheckerboard="0"
     inkscape:deskcolor="#d1d1d1"
     inkscape:document-units="px"
     inkscape:zoom="1.4702524"
     inkscape:cx="224.45126"
     inkscape:cy="353.34069"
     inkscape:window-width="2560"
     inkscape:window-height="1369"
     inkscape:window-x="-8"
     inkscape:window-y="-8"
     inkscape:window-maximized="1"
     inkscape:current-layer="layer1" /><defs
     id="defs1" /><g
     inkscape:label="background"
     inkscape:groupmode="layer"
     id="layer1"
     sodipodi:insensitive="true"><image
       width="512"
       height="512"
       preserveAspectRatio="none"
       xlink:href="tile_basic_A.png"
       id="image1"
       x="0"
       y="0"
       inkscape:label="tile_basic_A" /></g><g
     inkscape:groupmode="layer"
     id="layer2"
     inkscape:label="monastery"
     sodipodi:insensitive="true"
     style="display:none"><path
       d="m 189.81064,7.7158081 v 8.2553099 h -7.73855 v 2.992066 l 7.73855,0.01964 v 13.733528 l -46.654,57.532406 v 1.349788 l 9.36635,5.407939 v 64.685455 l -9.45679,10.97762 2.15956,1.25988 -39.86062,40.49003 8.4584,4.04937 -0.18035,7.28792 -8.45788,11.06754 5.12889,2.96933 v 36.98121 l 3.32899,2.42982 v 10.90454 l 49.75821,24.63707 32.93235,-16.5562 99.67015,51.14041 73.63374,-37.9861 -0.35992,-79.75076 5.4715,2.92695 2.79983,-1.65416 -44.15596,-47.59141 -104.85303,-40.08335 0.12712,-48.609429 7.2533,-3.054077 0.12713,-3.181201 -43.47022,-58.135986 V 18.989539 l 7.28845,0.0186 v -3.037024 h -7.28845 V 7.7158081 Z"
       style="fill:#a351b3;fill-opacity:0.446809;stroke:#000000;stroke-width:0.264583"
       id="path18"
       sodipodi:nodetypes="ccccccccccccccccccccccccccccccccccccccc"
       inkscape:label="monastery" /></g><g
     inkscape:groupmode="layer"
     id="layer3"
     inkscape:label="road"
     sodipodi:insensitive="true"
     style="display:none"><path
       style="display:inline;fill:#a351b3;fill-opacity:0.446809;stroke:#000000;stroke-width:0.264583;stroke-opacity:1"
       d="m 309.52736,342.27968 c 34.73184,10.07763 66.94427,30.77276 67.30419,52.3677 0.35991,21.59492 -16.8739,33.71387 -35.64532,39.66681 -14.75481,4.67915 -39.65811,12.57795 -55.01965,21.30359 -25.85745,14.6875 -35.84533,26.48907 -48.62233,56.54202 -24.97315,58.73968 17.83775,40.97979 43.36982,0.53988 25.57209,-40.50329 44.80949,-39.2308 82.06074,-48.94852 37.25127,-9.71773 54.08207,-32.65512 52.62221,-50.98449 -0.71182,-8.93723 -0.57745,-43.60624 -28.95186,-70.53032 -9.04211,-8.57993 -19.10897,-15.57679 -32.30831,-22.99127 -52.42416,-29.95668 -72.10931,15.11341 -44.80949,23.0346 z"
       id="path24"
       sodipodi:nodetypes="sssssssssss"
       inkscape:label="road" /></g><g
     inkscape:groupmode="layer"
     id="layer5"
     inkscape:label="field"
     sodipodi:insensitive="true"
     style="display:none"><rect
       style="display:inline;fill:#a351b3;fill-opacity:0.446809;stroke:#000000;stroke-width:0.23523;stroke-opacity:1"
       id="rect24"
       width="511.76477"
       height="511.76477"
       x="0.1176149"
       y="-511.88232"
       transform="scale(1,-1)"
       inkscape:label="field" /></g><g
     inkscape:groupmode="layer"
     id="layer4"
     inkscape:label="cut"
     style="display:inline"><path
       d="M 0.11782227,0.1173055 V 511.88245 H 237.6625 c 12.72063,-29.84828 22.72629,-41.62257 48.50401,-56.26478 15.36154,-8.72564 40.26509,-16.62446 55.0199,-21.30361 18.77142,-5.95294 36.00528,-18.07191 35.64537,-39.66683 -0.3596,-21.57574 -32.51547,-42.25346 -67.21192,-52.34099 l -13.61571,7.02438 -99.6704,-51.14055 -32.93235,16.55609 -49.75821,-24.63674 v -10.90476 l -3.32899,-2.42982 v -36.98121 l -5.12889,-2.96933 8.45788,-11.06754 0.18035,-7.28792 -8.4584,-4.04937 39.86062,-40.49003 -2.15956,-1.25988 9.45679,-10.97762 V 97.006482 l -9.36635,-5.407939 v -1.349788 l 46.654,-57.532406 V 18.982821 l -7.73855,-0.01964 v -2.992066 h 7.73855 V 7.7158081 h 2.76675 v 8.2553099 h 7.28845 v 3.037024 l -7.28845,-0.0186 v 13.221415 l 43.47022,58.135986 -0.12713,3.181201 -7.2533,3.054077 -0.12712,48.609429 104.85303,40.08335 44.15596,47.59141 -2.79983,1.65416 -5.4715,-2.92695 0.35967,79.75068 -15.30708,7.89668 c 0.002,0.001 0.004,0.003 0.007,0.004 13.19934,7.41448 23.26599,14.41143 32.3081,22.99136 28.37441,26.92408 28.2399,61.59284 28.95172,70.53007 1.45986,18.32937 -15.37084,41.26675 -52.62211,50.98448 -36.99891,9.65189 -56.22705,8.46223 -81.54179,48.13143 h 230.4495 V 0.1173055 Z"
       style="display:inline;fill:#a351b3;fill-opacity:0.446809;stroke:#000000;stroke-width:0.23523"
       id="path28"
       inkscape:label="field" /><path
       d="m 281.43295,511.88245 c 25.31474,-39.6692 44.54288,-38.47954 81.54179,-48.13143 37.25127,-9.71773 54.08197,-32.65511 52.62211,-50.98448 -0.71182,-8.93723 -0.57731,-43.60599 -28.95172,-70.53007 -9.04211,-8.57993 -19.10876,-15.57688 -32.3081,-22.99136 -0.002,-0.001 -0.004,-0.003 -0.007,-0.004 l -44.71045,23.06526 c 34.69645,10.08753 66.85232,30.76525 67.21192,52.34099 0.35991,21.59492 -16.87395,33.71389 -35.64537,39.66683 -14.75481,4.67915 -39.65836,12.57797 -55.0199,21.30361 -25.77772,14.64221 -35.78338,26.4165 -48.50401,56.26478 z"
       style="display:inline;fill:#a351b3;fill-opacity:0.446809;stroke:#000000;stroke-width:0.264583"
       id="path27"
       inkscape:label="road" /><path
       d="m 189.81064,7.7158081 v 8.2553099 h -7.73855 v 2.992066 l 7.73855,0.01964 v 13.733528 l -46.654,57.532406 v 1.349788 l 9.36635,5.407939 v 64.685455 l -9.45679,10.97762 2.15956,1.25988 -39.86062,40.49003 8.4584,4.04937 -0.18035,7.28792 -8.45788,11.06754 5.12889,2.96933 v 36.98121 l 3.32899,2.42982 v 10.90476 l 49.75821,24.63674 32.93235,-16.55609 99.6704,51.14055 13.61519,-7.02438 h 5.2e-4 l 44.71045,-23.06526 15.30708,-7.89668 -0.35967,-79.75068 5.4715,2.92695 2.79983,-1.65416 -44.15596,-47.59141 -104.85303,-40.08335 0.12712,-48.609429 7.2533,-3.054077 0.12713,-3.181201 -43.47022,-58.135986 V 18.989539 l 7.28845,0.0186 v -3.037024 h -7.28845 V 7.7158081 Z"
       style="fill:#a351b3;fill-opacity:0.446809;stroke:#000000;stroke-width:0.264583"
       id="path26"
       inkscape:label="monastery" /></g></svg>
