<?xml version="1.0" encoding="UTF-8" standalone="no"?>
<!-- Created with Inkscape (http://www.inkscape.org/) -->

<svg
   width="512mm"
   height="512mm"
   viewBox="0 0 512 512"
   version="1.1"
   id="svg1"
   xml:space="preserve"
   xmlns="http://www.w3.org/2000/svg"
   xmlns:svg="http://www.w3.org/2000/svg"><defs
     id="defs1" /><g
     id="layer4"
     style="display:inline"><path
       d="m 189.81064,7.7158081 v 8.2553099 h -7.73855 v 2.992066 l 7.73855,0.01964 v 13.733528 l -46.654,57.532406 v 1.349788 l 9.36635,5.407939 v 64.685455 l -9.45679,10.97762 2.15956,1.25988 -39.86062,40.49003 8.4584,4.04937 -0.18035,7.28792 -8.45788,11.06754 5.12889,2.96933 v 36.98121 l 3.32899,2.42982 v 10.90476 l 49.75821,24.63674 32.93235,-16.55609 99.6704,51.14055 13.61519,-7.02438 h 5.2e-4 l 44.71045,-23.06526 15.30708,-7.89668 -0.35967,-79.75068 5.4715,2.92695 2.79983,-1.65416 -44.15596,-47.59141 -104.85303,-40.08335 0.12712,-48.609429 7.2533,-3.054077 0.12713,-3.181201 -43.47022,-58.135986 V 18.989539 l 7.28845,0.0186 v -3.037024 h -7.28845 V 7.7158081 Z"
       style="fill:#a351b3;fill-opacity:0.446809;stroke:#000000;stroke-width:0.264583"
       id="path26" /></g></svg>
