<?xml version="1.0" encoding="UTF-8" standalone="no"?>
<!-- Created with Inkscape (http://www.inkscape.org/) -->

<svg
   width="512mm"
   height="512mm"
   viewBox="0 0 512 512"
   version="1.1"
   id="svg1"
   xml:space="preserve"
   xmlns="http://www.w3.org/2000/svg"
   xmlns:svg="http://www.w3.org/2000/svg"><defs
     id="defs1" /><g
     id="layer4"
     style="display:inline"><path
       d="m 281.43295,511.88245 c 25.31474,-39.6692 44.54288,-38.47954 81.54179,-48.13143 37.25127,-9.71773 54.08197,-32.65511 52.62211,-50.98448 -0.71182,-8.93723 -0.57731,-43.60599 -28.95172,-70.53007 -9.04211,-8.57993 -19.10876,-15.57688 -32.3081,-22.99136 -0.002,-0.001 -0.004,-0.003 -0.007,-0.004 l -44.71045,23.06526 c 34.69645,10.08753 66.85232,30.76525 67.21192,52.34099 0.35991,21.59492 -16.87395,33.71389 -35.64537,39.66683 -14.75481,4.67915 -39.65836,12.57797 -55.0199,21.30361 -25.77772,14.64221 -35.78338,26.4165 -48.50401,56.26478 z"
       style="display:inline;fill:#a351b3;fill-opacity:0.446809;stroke:#000000;stroke-width:0.264583"
       id="path27" /></g></svg>
