<?xml version="1.0" encoding="UTF-8" standalone="no"?>
<!-- Created with Inkscape (http://www.inkscape.org/) -->

<svg
   width="512"
   height="512"
   viewBox="0 0 512 512"
   version="1.1"
   id="svg1"
   xml:space="preserve"
   xmlns="http://www.w3.org/2000/svg"
   xmlns:svg="http://www.w3.org/2000/svg"><defs
     id="defs1" /><g
     id="layer26"><path
       d="m 237.08789,0.43164063 c 3.71095,27.53077537 2.91753,25.68998037 2.62109,41.99414037 -0.35356,19.445436 -4.59656,34.296256 -14.84961,58.337889 -3.6756,8.61865 -4.35156,19.82694 -3.41406,31.45899 2.48884,-1.21414 4.07617,-1.98829 4.07617,-1.98829 L 247.0332,162.625 h 1.78516 l 12.15625,9.86328 -2.54883,1.95508 0.25391,13.51758 -19.38672,10.06054 c 3.94367,6.34649 8.20702,7.03907 17.0332,7.03907 6.92549,0 12.06842,-1.05587 15.38281,-3.91602 3.27167,-2.82327 4.76173,-7.40394 4.42383,-14.46094 -0.0299,-0.62486 -0.0742,-1.2694 -0.13281,-1.93359 -1.125,-12.75 -9.625,-20.75 -13.75,-25.875 -3.65942,-4.54655 -5.25,-8.5 -4.875,-19.875 0.375,-11.375 0.5,-17.75 6.125,-30.625 5.625,-12.875 10.375,-26.5 9.875,-46.875 -0.44449,-18.112845 -4.64357,-32.96574 1.36719,-61.06835937 z"
       style="fill:#a351b3;fill-opacity:0.446809;stroke:#000000;stroke-width:0.863147"
       id="path37" /></g></svg>
