<?xml version="1.0" encoding="UTF-8" standalone="no"?>
<!-- Created with Inkscape (http://www.inkscape.org/) -->

<svg
   width="512"
   height="512"
   viewBox="0 0 512 512"
   version="1.1"
   id="svg1"
   xml:space="preserve"
   xmlns="http://www.w3.org/2000/svg"
   xmlns:svg="http://www.w3.org/2000/svg"><defs
     id="defs1" /><g
     id="layer26"><path
       d="m 246.38672,291.27734 c -13.4863,0.12373 -21.31651,9.64872 -21.96094,17.97266 -0.24121,3.11565 0.5245,6.06222 2.37695,8.28516 0.62188,0.74625 1.2532,1.45616 1.88868,2.15625 6.31475,6.95676 12.96446,13.06296 13.27343,46.74218 0.34008,37.06846 -7.65187,40.29841 -8.33203,74.98633 -0.5997,30.58533 1.1815,29.18011 3.70899,70.14844 h 38.70507 c -1.62814,-30.1036 -5.39125,-64.92294 -2.625,-86.13086 3.06071,-23.46536 5.61094,-58.66317 0.50977,-94.03125 -0.28993,-2.01017 -0.58058,-3.93106 -0.87695,-5.76563 -1.6436,-10.17396 -3.44803,-17.6929 -6.0918,-23.05859 -4.05934,-8.23866 -10.09727,-11.40082 -20.57617,-11.30469 z"
       style="fill:#a351b3;fill-opacity:0.446809;stroke:#000000;stroke-width:0.863147"
       id="path39" /></g></svg>
