<?xml version="1.0" encoding="UTF-8" standalone="no"?>
<!-- Created with Inkscape (http://www.inkscape.org/) -->

<svg
   width="512"
   height="512"
   viewBox="0 0 512 512"
   version="1.1"
   id="svg1"
   xml:space="preserve"
   xmlns="http://www.w3.org/2000/svg"
   xmlns:svg="http://www.w3.org/2000/svg"><defs
     id="defs1" /><g
     id="layer26"><path
       d="M 0.43164063,238.11523 C 22.453411,238.26261 38.988375,240.13623 49,240.25 c 11,0.125 54.875,0.25 70.625,0.75 2.75732,0.0875 6.13302,-0.24975 9.83594,-0.70117 -7.75649,-5.56464 -15.8853,-11.89974 -29.25781,-16.54492 C 84.049436,218.14263 81.159923,210.23652 81.5,204.28516 c 0.340073,-5.95136 12.263103,-15.61786 16.494141,-18.61914 0.236958,-0.16809 0.476111,-0.32932 0.71875,-0.48438 l 0.06836,-12.16602 -2.998047,-1.37695 c 0,0 3.654956,-3.14643 6.970706,-7.48242 3.31576,-4.33599 7.11914,-10.5 7.11914,-10.5 0,0 8.5056,4.38978 14.21679,6.73437 5.71119,2.34459 15.11914,5.95118 15.11914,5.95118 l 12.08399,12.86523 -0.48047,1.5332 -3.42578,-0.51171 v 4.11328 c 8.34652,-2.13461 15.29216,-2.15971 23.76953,1.14062 l 0.27734,-20.94531 -1.95507,1.08398 -0.23829,-0.86914 12.24219,-14.19922 c 0,0 4.84527,-1.10577 12.58203,-4.93164 5.73469,-2.83583 20.25195,-9.9207 27.38086,-13.39843 -0.9375,-11.63205 -0.26154,-22.84034 3.41406,-31.45899 10.25305,-24.041633 14.49605,-38.892453 14.84961,-58.337889 0.29644,-16.30416 1.08986,-14.463365 -2.62109,-41.99414037 H 0.43164063 Z"
       style="fill:#a351b3;fill-opacity:0.446809;stroke:#000000;stroke-width:0.863147"
       id="path32" /></g></svg>
