<?xml version="1.0" encoding="UTF-8" standalone="no"?>
<!-- Created with Inkscape (http://www.inkscape.org/) -->

<svg
   width="512"
   height="512"
   viewBox="0 0 512 512"
   version="1.1"
   id="svg1"
   xml:space="preserve"
   xmlns="http://www.w3.org/2000/svg"
   xmlns:svg="http://www.w3.org/2000/svg"><defs
     id="defs1" /><g
     id="layer26"><path
       d="m 237.3418,511.56836 c -2.52749,-40.96833 -4.30869,-39.56311 -3.70899,-70.14844 0.68016,-34.68792 8.67211,-37.91787 8.33203,-74.98633 -0.30897,-33.67922 -6.95868,-39.78542 -13.27343,-46.74218 4.71987,15.72321 2.32294,32.98634 -12.60547,46.89648 -12.63159,11.76998 -35.70954,19.63936 -47.69727,20.06445 -11.98774,0.4251 -12.66812,0.59447 -19.55469,-1.87109 -6.88657,-2.46557 -13.85719,-5.18656 -24.14453,-6.54688 -10.28735,-1.3603 -14.28411,-4.42055 -24.3164,-9.18164 -10.03229,-4.76108 -23.635434,-12.24249 -25.505863,-14.62304 -1.870427,-2.38054 0.256176,-7.90758 2.636719,-11.64844 2.380544,-3.74085 9.692508,-6.29074 13.773438,-9.52148 4.08094,-3.23074 1.018797,-3.91161 4.929687,-7.48243 2.494058,-2.27719 8.308559,-6.21397 12.193359,-8.76757 0.0766,-2.5399 0.14844,-4.70313 0.14844,-4.70313 l -2.94531,-0.96094 c 0,0 3.54736,-3.66688 5.53125,-6.25195 1.98389,-2.58506 5.65039,-7.75586 5.65039,-7.75586 l 19.23828,-9.49805 c 0,0 1.77338,2.19429 3.90625,4.52344 5.04762,-2.20369 11.82544,-5.16286 16.47461,-7.19336 v -0.54101 C 145.79784,284.90115 132.23825,279.625 122.25,279.625 102.625,279.625 79.75,276.75 66.375,276.5 53,276.25 43.5,277.125 28.875,275.75 18.196427,274.74603 9.2505992,273.47502 0.43164063,272.61914 v 238.94922 z"
       style="fill:#a351b3;fill-opacity:0.446809;stroke:#000000;stroke-width:0.863147"
       id="path35" /></g></svg>
