<?xml version="1.0" encoding="UTF-8" standalone="no"?>
<!-- Created with Inkscape (http://www.inkscape.org/) -->

<svg
   width="512"
   height="512"
   viewBox="0 0 512 512"
   version="1.1"
   id="svg1"
   inkscape:version="1.4.2 (f4327f4, 2025-05-13)"
   sodipodi:docname="tile_basic_X_inkscape.svg"
   xml:space="preserve"
   inkscape:export-filename="tile_basic_X_field_bottom_left.svg"
   inkscape:export-xdpi="96"
   inkscape:export-ydpi="96"
   xmlns:inkscape="http://www.inkscape.org/namespaces/inkscape"
   xmlns:sodipodi="http://sodipodi.sourceforge.net/DTD/sodipodi-0.dtd"
   xmlns:xlink="http://www.w3.org/1999/xlink"
   xmlns="http://www.w3.org/2000/svg"
   xmlns:svg="http://www.w3.org/2000/svg"><sodipodi:namedview
     id="namedview1"
     pagecolor="#ffffff"
     bordercolor="#000000"
     borderopacity="0.25"
     inkscape:showpageshadow="2"
     inkscape:pageopacity="0.0"
     inkscape:pagecheckerboard="0"
     inkscape:deskcolor="#d1d1d1"
     inkscape:document-units="px"
     labelstyle="default"
     inkscape:zoom="2"
     inkscape:cx="198.25"
     inkscape:cy="248.25"
     inkscape:window-width="2560"
     inkscape:window-height="1369"
     inkscape:window-x="-8"
     inkscape:window-y="-8"
     inkscape:window-maximized="1"
     inkscape:current-layer="layer26" /><defs
     id="defs1" /><g
     inkscape:label="Layer 1"
     inkscape:groupmode="layer"
     id="layer1"><image
       width="512"
       height="512"
       preserveAspectRatio="none"
       xlink:href="tile_basic_X.png"
       id="image1"
       x="0"
       y="0"
       sodipodi:insensitive="true" /><path
       style="display:none;fill:#a351b3;fill-opacity:0.446809;stroke:#000000;stroke-width:0.1"
       d="m 108.24921,324.99247 c -0.12023,-0.24047 0.30059,-12.68486 0.30059,-12.68486 l -2.94577,-0.96188 c 0,0 3.54695,-3.66719 5.53084,-6.25226 1.98389,-2.58506 5.65107,-7.75519 5.65107,-7.75519 l 19.2377,-9.49862 c 0,0 4.80943,5.95167 8.11591,8.65697 3.30648,2.7053 9.7992,8.17602 9.7992,8.17602 l -2.52495,1.62318 v 19.2377 l -21.88288,12.1438 z"
       id="path8"
       inkscape:label="house_6"
       sodipodi:insensitive="true" /><path
       style="display:none;fill:#a351b3;fill-opacity:0.446809;stroke:#000000;stroke-width:0.1"
       d="m 154.47981,271.00668 22.72453,-32.10291 39.07658,18.99722 16.71275,19.59841 -0.12024,2.28448 -6.85343,-2.28448 v 20.07935 c 0,0 -8.89744,5.53084 -14.78898,8.41649 -5.89155,2.88566 -19.11746,7.33437 -19.11746,7.33437 l -35.70998,-18.63652 v -22.12335 z"
       id="path7"
       inkscape:label="house_5"
       sodipodi:insensitive="true" /><path
       style="display:none;fill:#a351b3;fill-opacity:0.446809;stroke:#000000;stroke-width:0.1"
       d="m 271.00773,292.19551 15.55855,-15.64357 c 0,0 11.98774,-4.16595 19.21439,-7.39669 7.22665,-3.23074 20.1496,-9.43716 20.1496,-9.43716 l 19.29941,26.18598 -4.16595,2.72062 v 23.46536 l -37.06847,19.46945 -29.7568,-12.41283 v -25.84591 l -2.72062,-0.085 z"
       id="path9"
       inkscape:label="house_4"
       sodipodi:insensitive="true" /><path
       style="display:none;fill:#a351b3;fill-opacity:0.446809;stroke:#000000;stroke-width:0.1"
       d="m 289.62464,205.11756 c 0,0 7.64332,-6.84139 12.02356,-12.1438 4.56895,-5.53084 12.98545,-16.71275 12.98545,-16.71275 l 12.1438,10.09979 27.65419,-13.10568 c 0,0 3.12612,2.64518 5.77131,5.89155 2.64518,3.24636 3.96777,6.37248 6.73319,9.61885 2.76542,3.24636 4.44872,5.04989 4.44872,5.04989 l -3.48683,2.76542 0.12023,20.921 -7.45461,2.76542 6.85343,9.97955 -0.84164,1.08212 -2.40472,-0.48094 v 19.47817 l -37.99445,13.10568 -35.95045,-28.0149 0.84165,-28.97678 z"
       id="path6"
       sodipodi:nodetypes="cscccsscccccccccccc"
       inkscape:label="house_3"
       sodipodi:insensitive="true" /><path
       style="display:none;fill:#a351b3;fill-opacity:0.446809;stroke:#000000;stroke-width:0.1"
       d="m 169.23948,164.7514 12.2428,-14.19824 c 0,0 4.84611,-1.10526 12.58287,-4.93113 7.73677,-3.82588 31.45719,-15.38851 31.45719,-15.38851 l 21.50991,32.39239 h 1.78541 l 12.15777,9.86226 -2.55058,1.95544 0.25506,13.51809 -51.60679,26.78112 -36.04823,-19.46945 0.40814,-30.73533 -1.95383,1.08212 z"
       id="path4"
       sodipodi:nodetypes="ccsccccccccccc"
       inkscape:label="house_2"
       sodipodi:insensitive="true" /><path
       style="display:none;fill:#a351b3;fill-opacity:0.446809;stroke:#000000;stroke-width:0.1"
       d="m 95.782703,171.63797 c 0,0 3.65584,-3.14572 6.971587,-7.48171 3.31576,-4.33599 7.11811,-10.49954 7.11811,-10.49954 0,0 8.50667,4.3886 14.21786,6.73319 5.71119,2.34459 15.11963,5.95166 15.11963,5.95166 l 12.08368,12.86521 -0.48095,1.53301 -3.42671,-0.511 V 193.605 l -21.59135,12.89094 -27.121197,-14.28327 0.1073,-19.19802 z"
       id="path5"
       inkscape:label="house_1"
       sodipodi:insensitive="true" /><path
       style="display:none;fill:#a351b3;fill-opacity:0.446809;stroke:#000000;stroke-width:0.1"
       d="m 272.36804,325.26806 30.77703,16.66381 c 0,0 17.514,-5.10117 22.7852,-8.84202 5.2712,-3.74085 30.26691,-15.3035 33.32761,-19.7245 3.0607,-4.42101 1.53035,-6.80156 -2.38054,-10.0323 -3.91089,-3.23073 -76.1774,-38.76885 -76.1774,-38.76885 0,0 -26.29258,50.97929 -8.3319,60.70386 z"
       id="path11"
       inkscape:label="fence_4"
       sodipodi:nodetypes="scssscs"
       sodipodi:insensitive="true" /><path
       style="display:none;fill:#a351b3;fill-opacity:0.446809;stroke:#000000;stroke-width:0.1"
       d="m 271.529,185.43875 c 11.31371,2.47488 22.4631,9.10211 26.51651,19.79899 l -26.16295,10.96016 z"
       id="path16"
       sodipodi:nodetypes="cccc"
       inkscape:label="fence_3"
       sodipodi:insensitive="true" /><path
       style="display:none;fill:#a351b3;fill-opacity:0.446809;stroke:#000000;stroke-width:0.1"
       d="m 141.75758,186.00626 c 12.41283,-4.08094 21.03026,-4.71877 33.32761,1.19027 l -16.49377,20.5747 z"
       id="path13"
       sodipodi:nodetypes="cccc"
       inkscape:label="fence_2"
       sodipodi:insensitive="true" /><path
       style="display:none;fill:#a351b3;fill-opacity:0.446809;stroke:#000000;stroke-width:0.1"
       d="m 97.993213,185.66619 c -4.231038,3.00128 -16.153697,12.66788 -16.49377,18.61924 -0.340077,5.95136 2.550578,13.85817 18.704267,19.46945 16.15369,5.61128 24.65563,13.68812 34.09279,19.89454 9.65232,6.34792 24.31382,-13.63355 22.61516,-24.65563 -2.84507,-18.46081 -40.05023,-46.71177 -58.918447,-33.3276 z"
       id="path14"
       sodipodi:nodetypes="ssssss"
       inkscape:label="fence_1"
       sodipodi:insensitive="true" /><path
       style="display:none;fill:#a351b3;fill-opacity:0.446809;stroke:#000000;stroke-width:0.1"
       d="m 157.25174,284.79882 c -8.04805,3.51518 -24.14551,10.54241 -24.14551,10.54241 l -20.91478,19.21439 c 0,0 -12.07276,7.65174 -15.983647,11.22256 -3.91089,3.57082 -0.85019,4.25097 -4.93113,7.48171 -4.08093,3.23074 -11.392599,5.78132 -13.773143,9.52217 -2.380543,3.74086 -4.506029,9.26712 -2.635602,11.64766 1.870428,2.38055 15.473535,9.86226 25.505822,14.62334 10.03229,4.76109 14.02821,7.82179 24.31556,9.1821 10.28734,1.36031 17.25894,4.08093 24.14551,6.5465 6.88657,2.46556 7.56673,2.29552 19.55447,1.87042 11.98773,-0.42509 35.0643,-8.2946 47.69589,-20.06458 19.47775,-18.14917 17.62402,-42.00696 6.46148,-60.70387 -13.22702,-22.15484 -42.45151,-31.06223 -65.29492,-21.08481 z"
       id="path15"
       sodipodi:nodetypes="sccsssssssssss"
       inkscape:label="fence_5"
       sodipodi:insensitive="true" /><path
       style="display:none;fill:#a351b3;fill-opacity:0.446809;stroke:#000000;stroke-width:0.1"
       d="m 524.70823,237.82605 c -60.11781,1.44283 -83.20305,-4.80943 -106.28829,-7.45461 -23.08524,-2.64518 -42.32293,-1.6833 -53.14414,-11.30215 -10.8212,-9.61885 -43.76576,-6.25225 -46.89189,20.68053 -3.12613,26.93278 13.12271,36.14329 31.02079,35.58974 23.32571,-0.72141 28.8184,-14.65161 47.13236,-14.42827 19.71865,0.24047 61.32017,11.30214 126.96881,12.5045 43.77494,0.80174 36.7086,-36.44189 1.20236,-35.58974 z"
       id="path1"
       sodipodi:nodetypes="ssssssss"
       inkscape:label="road_right"
       sodipodi:insensitive="true" /><path
       style="display:none;fill:#a351b3;fill-opacity:0.446809;stroke:#000000;stroke-width:0.1"
       d="m 238.39445,530.52118 c -3.0607,-60.87391 -5.44124,-54.41243 -4.76109,-89.10036 0.68016,-34.68792 8.67198,-37.91866 8.3319,-74.98712 -0.34007,-37.06847 -8.36158,-40.73623 -15.16313,-48.89809 -6.80155,-8.16186 1.04991,-26.08904 19.58414,-26.25908 18.53424,-0.17004 23.17974,9.85435 27.5463,40.12917 5.10117,35.36808 2.55059,70.56611 -0.51011,94.03147 -3.0607,23.46536 1.87042,63.59453 3.06069,95.56183 1.19027,31.9673 -36.59515,39.22715 -38.0887,9.52218 z"
       id="path2"
       sodipodi:nodetypes="sssssssss"
       inkscape:label="road_bottom"
       sodipodi:insensitive="true" /><path
       style="display:none;fill:#a351b3;fill-opacity:0.446809;stroke:#000000;stroke-width:0.1"
       d="m 234.4059,-19.091883 c 6.71751,48.436814 5.65685,42.072853 5.3033,61.51829 -0.35356,19.445436 -4.5962,34.294678 -14.84924,58.336313 -10.25305,24.04163 2.82842,68.2358 9.19238,85.55992 6.36396,17.32411 9.65686,18.73833 22.27387,18.73833 14.36701,0 21.06477,-4.54651 19.67379,-20.31097 -1.125,-12.75 -9.625,-20.75 -13.75,-25.875 -3.65942,-4.54655 -5.25,-8.5 -4.875,-19.875 0.375,-11.375 0.5,-17.75 6.125,-30.625 5.625,-12.875 10.375,-26.5 9.875,-46.875 -0.5,-20.375 -5.75,-36.625 4.125,-72.25 8.7189,-31.454274 -45.9215,-28.728909 -43.0941,-8.341883 z"
       id="path3"
       sodipodi:nodetypes="ssssssssssss"
       inkscape:label="road_top"
       sodipodi:insensitive="true" /><path
       style="display:none;fill:#a351b3;fill-opacity:0.446809;stroke:#000000;stroke-width:0.1"
       d="m -6.25,238.125 c 25.375,-0.25 44.25,2 55.25,2.125 11,0.125 54.875,0.25 70.625,0.75 15.75,0.5 51.6929,-12.83767 53.375,17.625 2.28431,41.36859 -31.125,21 -50.75,21 -19.625,0 -42.5,-2.875 -55.875,-3.125 -13.375,-0.25 -22.875,0.625 -37.5,-0.75 -14.625,-1.375 -26,-3.25 -38.25,-3.875 -12.25,-0.625 -15.304389,-33.56843 3.125,-33.75 z"
       id="path12"
       sodipodi:nodetypes="sssssssss"
       inkscape:label="road_left"
       sodipodi:insensitive="true" /><rect
       style="display:none;fill:#a351b3;fill-opacity:0.446809;stroke:#000000;stroke-width:0.863147"
       id="rect16"
       width="511.13684"
       height="511.13684"
       x="0.43157366"
       y="0.43157366"
       inkscape:label="field"
       sodipodi:insensitive="true" /></g><g
     inkscape:groupmode="layer"
     id="layer26"
     inkscape:label="cut"><path
       d="m 246.38672,291.27734 c -13.4863,0.12373 -21.31651,9.64872 -21.96094,17.97266 -0.24121,3.11565 0.5245,6.06222 2.37695,8.28516 0.62188,0.74625 1.2532,1.45616 1.88868,2.15625 6.31475,6.95676 12.96446,13.06296 13.27343,46.74218 0.34008,37.06846 -7.65187,40.29841 -8.33203,74.98633 -0.5997,30.58533 1.1815,29.18011 3.70899,70.14844 h 38.70507 c -1.62814,-30.1036 -5.39125,-64.92294 -2.625,-86.13086 3.06071,-23.46536 5.61094,-58.66317 0.50977,-94.03125 -0.28993,-2.01017 -0.58058,-3.93106 -0.87695,-5.76563 -1.6436,-10.17396 -3.44803,-17.6929 -6.0918,-23.05859 -4.05934,-8.23866 -10.09727,-11.40082 -20.57617,-11.30469 z"
       style="fill:#a351b3;fill-opacity:0.446809;stroke:#000000;stroke-width:0.863147"
       id="path39"
       inkscape:label="road_bottom" /><path
       d="m 364.82617,218.68555 c 0,0 -0.002,0 -0.002,0 l -4.25977,1.58203 6.85352,9.97851 -0.8418,1.08203 -2.40625,-0.48046 v 19.47851 l -36.00781,12.41992 8.07031,10.95118 c 4.08119,1.28275 8.57188,1.78484 13.17188,1.64257 23.32571,-0.72141 28.81885,-14.65107 47.13281,-14.42773 18.49572,0.22556 56.24405,9.97161 115.03125,12.17187 v -35.05664 c -50.50339,0.30812 -71.82589,-5.21304 -93.14844,-7.65625 -23.08524,-2.64518 -42.32332,-1.68388 -53.14453,-11.30273 -0.14589,-0.12968 -0.29541,-0.25788 -0.44922,-0.38281 z"
       style="fill:#a351b3;fill-opacity:0.446809;stroke:#000000;stroke-width:0.863147"
       id="path38"
       inkscape:label="road_right" /><path
       d="m 237.08789,0.43164063 c 3.71095,27.53077537 2.91753,25.68998037 2.62109,41.99414037 -0.35356,19.445436 -4.59656,34.296256 -14.84961,58.337889 -3.6756,8.61865 -4.35156,19.82694 -3.41406,31.45899 2.48884,-1.21414 4.07617,-1.98829 4.07617,-1.98829 L 247.0332,162.625 h 1.78516 l 12.15625,9.86328 -2.54883,1.95508 0.25391,13.51758 -19.38672,10.06054 c 3.94367,6.34649 8.20702,7.03907 17.0332,7.03907 6.92549,0 12.06842,-1.05587 15.38281,-3.91602 3.27167,-2.82327 4.76173,-7.40394 4.42383,-14.46094 -0.0299,-0.62486 -0.0742,-1.2694 -0.13281,-1.93359 -1.125,-12.75 -9.625,-20.75 -13.75,-25.875 -3.65942,-4.54655 -5.25,-8.5 -4.875,-19.875 0.375,-11.375 0.5,-17.75 6.125,-30.625 5.625,-12.875 10.375,-26.5 9.875,-46.875 -0.44449,-18.112845 -4.64357,-32.96574 1.36719,-61.06835937 z"
       style="fill:#a351b3;fill-opacity:0.446809;stroke:#000000;stroke-width:0.863147"
       id="path37"
       inkscape:label="road_top" /><path
       d="m 0.43164063,238.11523 v 34.50391 C 9.2505992,273.47502 18.196427,274.74603 28.875,275.75 c 14.625,1.375 24.125,0.5 37.5,0.75 13.375,0.25 36.25,3.125 55.875,3.125 9.98825,0 23.54784,5.27615 34.1543,5.00391 v -12.0586 l -1.92383,-1.56445 16.01562,-22.625 c -3.99915,-7.7266 -12.20279,-9.81781 -21.2207,-9.86328 -6.61339,-0.0334 -13.66494,1.03157 -19.81445,1.78125 -3.70292,0.45142 -7.07862,0.7887 -9.83594,0.70117 C 103.875,240.5 60,240.375 49,240.25 38.988375,240.13623 22.453411,238.26261 0.43164063,238.11523 Z"
       style="fill:#a351b3;fill-opacity:0.446809;stroke:#000000;stroke-width:0.863147"
       id="path36"
       inkscape:label="road_left" /><path
       d="m 237.3418,511.56836 c -2.52749,-40.96833 -4.30869,-39.56311 -3.70899,-70.14844 0.68016,-34.68792 8.67211,-37.91787 8.33203,-74.98633 -0.30897,-33.67922 -6.95868,-39.78542 -13.27343,-46.74218 4.71987,15.72321 2.32294,32.98634 -12.60547,46.89648 -12.63159,11.76998 -35.70954,19.63936 -47.69727,20.06445 -11.98774,0.4251 -12.66812,0.59447 -19.55469,-1.87109 -6.88657,-2.46557 -13.85719,-5.18656 -24.14453,-6.54688 -10.28735,-1.3603 -14.28411,-4.42055 -24.3164,-9.18164 -10.03229,-4.76108 -23.635434,-12.24249 -25.505863,-14.62304 -1.870427,-2.38054 0.256176,-7.90758 2.636719,-11.64844 2.380544,-3.74085 9.692508,-6.29074 13.773438,-9.52148 4.08094,-3.23074 1.018797,-3.91161 4.929687,-7.48243 2.494058,-2.27719 8.308559,-6.21397 12.193359,-8.76757 0.0766,-2.5399 0.14844,-4.70313 0.14844,-4.70313 l -2.94531,-0.96094 c 0,0 3.54736,-3.66688 5.53125,-6.25195 1.98389,-2.58506 5.65039,-7.75586 5.65039,-7.75586 l 19.23828,-9.49805 c 0,0 1.77338,2.19429 3.90625,4.52344 5.04762,-2.20369 11.82544,-5.16286 16.47461,-7.19336 v -0.54101 C 145.79784,284.90115 132.23825,279.625 122.25,279.625 102.625,279.625 79.75,276.75 66.375,276.5 53,276.25 43.5,277.125 28.875,275.75 18.196427,274.74603 9.2505992,273.47502 0.43164063,272.61914 v 238.94922 z"
       style="fill:#a351b3;fill-opacity:0.446809;stroke:#000000;stroke-width:0.863147"
       id="path35"
       inkscape:label="field_bottom_left" /><path
       d="m 511.56836,273.08398 c -58.7872,-2.20026 -96.53553,-11.94631 -115.03125,-12.17187 -18.31396,-0.22334 -23.8071,13.70632 -47.13281,14.42773 -4.6,0.14227 -9.09069,-0.35982 -13.17188,-1.64257 l 8.99805,12.20703 -4.16602,2.7207 v 6.12305 c 8.49154,4.36484 14.73686,7.69736 15.8125,8.58593 3.91089,3.23074 5.44156,5.61024 2.38086,10.03125 -3.0607,4.421 -28.05692,15.98376 -33.32812,19.72461 -5.2712,3.74085 -22.78516,8.8418 -22.78516,8.8418 l -30.08984,-16.29102 c 0.29637,1.83457 0.58702,3.75546 0.87695,5.76563 5.10117,35.36808 2.55094,70.56589 -0.50977,94.03125 -2.76625,21.20792 0.99686,56.02726 2.625,86.13086 h 235.52149 z"
       style="fill:#a351b3;fill-opacity:0.446809;stroke:#000000;stroke-width:0.863147"
       id="path34"
       inkscape:label="field_bottom_right" /><path
       d="M 274.74219,0.43164063 C 268.73143,28.53426 272.93051,43.387155 273.375,61.5 c 0.5,20.375 -4.25,34 -9.875,46.875 -5.625,12.875 -5.75,19.25 -6.125,30.625 -0.375,11.375 1.21558,15.32845 4.875,19.875 4.125,5.125 12.625,13.125 13.75,25.875 0.0586,0.66419 0.10289,1.30873 0.13281,1.93359 7.61339,2.46471 14.70856,6.86315 19.07227,13.16993 2.18433,-2.1503 4.60211,-4.65002 6.44336,-6.87891 4.56895,-5.53084 12.98437,-16.71289 12.98437,-16.71289 l 12.14453,10.09961 27.6543,-13.10547 c 0,0 3.12629,2.64425 5.77148,5.89062 2.64518,3.24636 3.96701,6.37278 6.73243,9.61914 2.76542,3.24636 4.44922,5.04883 4.44922,5.04883 l -3.48633,2.76563 0.11914,20.92187 -3.19141,1.1836 c 0.15381,0.12493 0.30333,0.25313 0.44922,0.38281 10.82121,9.61885 30.05929,8.65755 53.14453,11.30273 21.32255,2.44321 42.64505,7.96437 93.14844,7.65625 V 0.43164063 Z"
       style="fill:#a351b3;fill-opacity:0.446809;stroke:#000000;stroke-width:0.863147"
       id="path33"
       inkscape:label="field_top_right" /><path
       d="M 0.43164063,238.11523 C 22.453411,238.26261 38.988375,240.13623 49,240.25 c 11,0.125 54.875,0.25 70.625,0.75 2.75732,0.0875 6.13302,-0.24975 9.83594,-0.70117 -7.75649,-5.56464 -15.8853,-11.89974 -29.25781,-16.54492 C 84.049436,218.14263 81.159923,210.23652 81.5,204.28516 c 0.340073,-5.95136 12.263103,-15.61786 16.494141,-18.61914 0.236958,-0.16809 0.476111,-0.32932 0.71875,-0.48438 l 0.06836,-12.16602 -2.998047,-1.37695 c 0,0 3.654956,-3.14643 6.970707,-7.48242 3.31576,-4.33599 7.11914,-10.5 7.11914,-10.5 0,0 8.5056,4.38978 14.21679,6.73437 5.71119,2.34459 15.11914,5.95118 15.11914,5.95118 l 12.08399,12.86523 -0.48047,1.5332 -3.42578,-0.51171 v 4.11328 c 8.34652,-2.13461 15.29216,-2.15971 23.76953,1.14062 l 0.27734,-20.94531 -1.95507,1.08398 -0.23829,-0.86914 12.24219,-14.19922 c 0,0 4.84527,-1.10577 12.58203,-4.93164 5.73469,-2.83583 20.25195,-9.9207 27.38086,-13.39843 -0.9375,-11.63205 -0.26154,-22.84034 3.41406,-31.45899 10.25305,-24.041633 14.49605,-38.892453 14.84961,-58.337889 0.29644,-16.30416 1.08986,-14.463365 -2.62109,-41.99414037 H 0.43164063 Z"
       style="fill:#a351b3;fill-opacity:0.446809;stroke:#000000;stroke-width:0.863147"
       id="path32"
       inkscape:label="field_top_left" /></g></svg>
