<?xml version="1.0" encoding="UTF-8" standalone="no"?>
<!-- Created with Inkscape (http://www.inkscape.org/) -->

<svg
   width="512"
   height="512"
   viewBox="0 0 512 512"
   version="1.1"
   id="svg1"
   xml:space="preserve"
   xmlns="http://www.w3.org/2000/svg"
   xmlns:svg="http://www.w3.org/2000/svg"><defs
     id="defs1" /><g
     id="layer26"><path
       d="m 364.82617,218.68555 c 0,0 -0.002,0 -0.002,0 l -4.25977,1.58203 6.85352,9.97851 -0.8418,1.08203 -2.40625,-0.48046 v 19.47851 l -36.00781,12.41992 8.07031,10.95118 c 4.08119,1.28275 8.57188,1.78484 13.17188,1.64257 23.32571,-0.72141 28.81885,-14.65107 47.13281,-14.42773 18.49572,0.22556 56.24405,9.97161 115.03125,12.17187 v -35.05664 c -50.50339,0.30812 -71.82589,-5.21304 -93.14844,-7.65625 -23.08524,-2.64518 -42.32332,-1.68388 -53.14453,-11.30273 -0.14589,-0.12968 -0.29541,-0.25788 -0.44922,-0.38281 z"
       style="fill:#a351b3;fill-opacity:0.446809;stroke:#000000;stroke-width:0.863147"
       id="path38" /></g></svg>
