<?xml version="1.0" encoding="UTF-8" standalone="no"?>
<!-- Created with Inkscape (http://www.inkscape.org/) -->

<svg
   width="512"
   height="512"
   viewBox="0 0 512 512"
   version="1.1"
   id="svg1"
   xml:space="preserve"
   xmlns="http://www.w3.org/2000/svg"
   xmlns:svg="http://www.w3.org/2000/svg"><defs
     id="defs1" /><g
     id="layer26"><path
       d="M 274.74219,0.43164063 C 268.73143,28.53426 272.93051,43.387155 273.375,61.5 c 0.5,20.375 -4.25,34 -9.875,46.875 -5.625,12.875 -5.75,19.25 -6.125,30.625 -0.375,11.375 1.21558,15.32845 4.875,19.875 4.125,5.125 12.625,13.125 13.75,25.875 0.0586,0.66419 0.10289,1.30873 0.13281,1.93359 7.61339,2.46471 14.70856,6.86315 19.07227,13.16993 2.18433,-2.1503 4.60211,-4.65002 6.44336,-6.87891 4.56895,-5.53084 12.98437,-16.71289 12.98437,-16.71289 l 12.14453,10.09961 27.6543,-13.10547 c 0,0 3.12629,2.64425 5.77148,5.89062 2.64518,3.24636 3.96701,6.37278 6.73243,9.61914 2.76542,3.24636 4.44922,5.04883 4.44922,5.04883 l -3.48633,2.76563 0.11914,20.92187 -3.19141,1.1836 c 0.15381,0.12493 0.30333,0.25313 0.44922,0.38281 10.82121,9.61885 30.05929,8.65755 53.14453,11.30273 21.32255,2.44321 42.64505,7.96437 93.14844,7.65625 V 0.43164063 Z"
       style="fill:#a351b3;fill-opacity:0.446809;stroke:#000000;stroke-width:0.863147"
       id="path33" /></g></svg>
