<?xml version="1.0" encoding="UTF-8" standalone="no"?>
<!-- Created with Inkscape (http://www.inkscape.org/) -->

<svg
   width="512"
   height="512"
   viewBox="0 0 512 512"
   version="1.1"
   id="svg1"
   xml:space="preserve"
   xmlns="http://www.w3.org/2000/svg"
   xmlns:svg="http://www.w3.org/2000/svg"><defs
     id="defs1" /><g
     id="layer26"><path
       d="m 0.43164063,238.11523 v 34.50391 C 9.2505992,273.47502 18.196427,274.74603 28.875,275.75 c 14.625,1.375 24.125,0.5 37.5,0.75 13.375,0.25 36.25,3.125 55.875,3.125 9.98825,0 23.54784,5.27615 34.1543,5.00391 v -12.0586 l -1.92383,-1.56445 16.01562,-22.625 c -3.99915,-7.7266 -12.20279,-9.81781 -21.2207,-9.86328 -6.61339,-0.0334 -13.66494,1.03157 -19.81445,1.78125 -3.70292,0.45142 -7.07862,0.7887 -9.83594,0.70117 C 103.875,240.5 60,240.375 49,240.25 38.988375,240.13623 22.453411,238.26261 0.43164063,238.11523 Z"
       style="fill:#a351b3;fill-opacity:0.446809;stroke:#000000;stroke-width:0.863147"
       id="path36" /></g></svg>
