<?xml version="1.0" encoding="UTF-8" standalone="no"?>
<!-- Created with Inkscape (http://www.inkscape.org/) -->

<svg
   width="512"
   height="512"
   viewBox="0 0 512 512"
   version="1.1"
   id="svg1"
   xml:space="preserve"
   xmlns="http://www.w3.org/2000/svg"
   xmlns:svg="http://www.w3.org/2000/svg"><defs
     id="defs1" /><g
     id="layer26"><path
       d="m 511.56836,273.08398 c -58.7872,-2.20026 -96.53553,-11.94631 -115.03125,-12.17187 -18.31396,-0.22334 -23.8071,13.70632 -47.13281,14.42773 -4.6,0.14227 -9.09069,-0.35982 -13.17188,-1.64257 l 8.99805,12.20703 -4.16602,2.7207 v 6.12305 c 8.49154,4.36484 14.73686,7.69736 15.8125,8.58593 3.91089,3.23074 5.44156,5.61024 2.38086,10.03125 -3.0607,4.421 -28.05692,15.98376 -33.32812,19.72461 -5.2712,3.74085 -22.78516,8.8418 -22.78516,8.8418 l -30.08984,-16.29102 c 0.29637,1.83457 0.58702,3.75546 0.87695,5.76563 5.10117,35.36808 2.55094,70.56589 -0.50977,94.03125 -2.76625,21.20792 0.99686,56.02726 2.625,86.13086 h 235.52149 z"
       style="fill:#a351b3;fill-opacity:0.446809;stroke:#000000;stroke-width:0.863147"
       id="path34" /></g></svg>
