<?xml version="1.0" encoding="UTF-8" standalone="no"?>
<!-- Created with Inkscape (http://www.inkscape.org/) -->

<svg
   width="512"
   height="512"
   viewBox="0 0 512 512"
   version="1.1"
   id="svg1"
   xml:space="preserve"
   xmlns="http://www.w3.org/2000/svg"
   xmlns:svg="http://www.w3.org/2000/svg"><defs
     id="defs1" /><g
     id="layer19"><path
       d="m 508.48828,511.74023 h 3.25195 V 0.25976563 H 0.45898438 C 20.213975,23.037514 29.171285,39.862465 30.607422,51.351562 c 1.700388,13.603107 3.059927,23.125631 6.800781,27.886719 3.740855,4.761087 3.400706,11.223287 5.78125,15.984375 2.380544,4.761087 12.923209,24.824464 16.664063,32.986324 0,0 8.84189,21.08455 20.064453,31.62696 11.222563,10.54241 22.105471,19.72461 22.105471,19.72461 v 5.27148 c 0,0 4.25094,7.65188 11.39258,8.33203 7.14163,0.68016 11.73242,-1.53125 11.73242,-1.53125 0,0 22.78615,12.41399 35.53906,18.19531 12.75292,5.78132 11.39142,4.42033 21.59375,9.52149 10.20234,5.10117 21.08594,11.39258 21.08594,11.39258 v 9.86328 l 25.50586,14.79297 9.18164,-4.76172 52.37109,28.05664 v 11.22266 l 27.20703,16.83398 7.99219,-4.76172 19.55469,11.9043 -14.11328,17.17383 -5.61133,2.54882 7.35742,4.00586 v 44.84766 c 0,0 4.44824,3.43179 8.41602,4.27344 3.96777,0.84165 9.24609,0.94726 9.24609,0.94726 0,0 9.5514,2.71733 15.88867,3.96094 6.4191,1.25968 17.74044,5.31099 28.44141,7.83594 10.70097,2.52495 29.8673,9.67575 41.65039,20.61719 11.78309,10.94144 25.26009,25.36743 31.65429,34.70507 12.33428,18.01211 10.0672,21.0847 16.19922,28.29883 6.13202,7.21414 10.22017,9.13772 16.71289,18.03516 2.31866,3.17742 4.99038,6.99739 7.4668,10.59765 z"
       style="fill:#a351b3;fill-opacity:0.446809;stroke:#000000;stroke-width:0.517594"
       id="path3" /></g></svg>
