<?xml version="1.0" encoding="UTF-8" standalone="no"?>
<!-- Created with Inkscape (http://www.inkscape.org/) -->

<svg
   width="512"
   height="512"
   viewBox="0 0 512 512"
   version="1.1"
   id="svg1"
   xml:space="preserve"
   xmlns="http://www.w3.org/2000/svg"
   xmlns:svg="http://www.w3.org/2000/svg"><defs
     id="defs1" /><g
     id="layer12"><path
       d="M 512.05078,0.06640625 C 503.33138,9.6737796 488.34292,26.993445 476.78906,44.550781 459.4451,70.906801 441.93164,107.80469 441.93164,107.80469 v 11.77539 c 0,0 -1.31805,2.69059 -6.75977,4.46289 -4.92332,1.60346 -8.375,0.5957 -8.375,0.5957 l -22.61523,40.12891 v 22.78515 c 0,0 -6.03603,7.73665 -18.95898,10.11719 -17.93993,3.30473 -27.7168,-5.27148 -27.7168,-5.27148 l -88.25,-2.03907 c 0,10e-6 -6.63086,5.6095 -15.13281,5.43946 -8.50194,-0.17004 -15.89844,-6.80078 -15.89844,-6.80078 v -14.45313 l -62.74414,-31.03125 c 0,0 -10.2027,10.54137 -24.9961,10.03125 -14.79337,-0.51012 -19.7246,-8.50195 -19.7246,-8.50195 V 124.97852 L 78.388672,83.148437 c 0,0 -3.651139,1.640625 -8.242188,1.640625 -4.591049,0 -7.572265,-3.849609 -7.572265,-3.849609 l 0.169922,-15.304687 c 0,0 -30.060615,-31.061376 -62.69335975,-65.54687538 V 512.05078 H 512.05078 Z M 153.60742,221.61328 311.11523,293.92969 v 14.01172 L 188.47461,375.0332 H 176.93359 L 12.931641,297.8418 13.171875,285.09766 Z"
       style="display:inline;fill:#a351b3;fill-opacity:0.446809;stroke:#000000;stroke-width:0.1"
       id="path6" /></g></svg>
