<?xml version="1.0" encoding="UTF-8" standalone="no"?>
<!-- Created with Inkscape (http://www.inkscape.org/) -->

<svg
   width="512"
   height="512"
   viewBox="0 0 512 512"
   version="1.1"
   id="svg1"
   inkscape:version="1.4.2 (f4327f4, 2025-05-13)"
   sodipodi:docname="tile_basic_E_inkscape.svg"
   xml:space="preserve"
   inkscape:export-filename="tile_basic_E_G_garden.svg"
   inkscape:export-xdpi="96"
   inkscape:export-ydpi="96"
   xmlns:inkscape="http://www.inkscape.org/namespaces/inkscape"
   xmlns:sodipodi="http://sodipodi.sourceforge.net/DTD/sodipodi-0.dtd"
   xmlns:xlink="http://www.w3.org/1999/xlink"
   xmlns="http://www.w3.org/2000/svg"
   xmlns:svg="http://www.w3.org/2000/svg"><sodipodi:namedview
     id="namedview1"
     pagecolor="#ffffff"
     bordercolor="#000000"
     borderopacity="0.25"
     inkscape:showpageshadow="2"
     inkscape:pageopacity="0.0"
     inkscape:pagecheckerboard="0"
     inkscape:deskcolor="#d1d1d1"
     inkscape:document-units="px"
     labelstyle="default"
     inkscape:zoom="2.0792507"
     inkscape:cx="189.01039"
     inkscape:cy="234.9404"
     inkscape:window-width="2560"
     inkscape:window-height="1369"
     inkscape:window-x="-8"
     inkscape:window-y="-8"
     inkscape:window-maximized="1"
     inkscape:current-layer="layer12" /><defs
     id="defs1" /><image
     width="512"
     height="512"
     preserveAspectRatio="none"
     xlink:href="tile_basic_E_G.png"
     id="image1"
     x="0"
     y="0"
     inkscape:label="tile_basic_E"
     style="display:inline"
     sodipodi:insensitive="true" /><path
     style="display:none;fill:#a351b3;fill-opacity:0.446809;stroke:#000000;stroke-width:0.1"
     d="m 13.171973,285.0972 -0.24047,12.74498 164.001367,77.19126 H 188.4755 L 311.11582,307.94197 V 293.93024 L 153.60716,221.61279 Z"
     id="path2"
     sodipodi:nodetypes="cccccccc"
     inkscape:label="garden"
     sodipodi:insensitive="true" /><rect
     style="display:none;fill:#a351b3;fill-opacity:0.446809;stroke:#000000;stroke-width:0.1"
     id="rect1"
     width="512"
     height="512"
     x="0.050000001"
     y="0.050000001"
     inkscape:label="field"
     sodipodi:insensitive="true" /><path
     style="display:none;fill:#a351b3;fill-opacity:0.446809;stroke:#000000;stroke-width:0.1"
     d="M -5.0161458,-5.271204 C 29.501738,31.287146 62.744331,65.634992 62.744331,65.634992 l -0.170038,15.303495 c 0,0 2.981721,3.850775 7.57277,3.850775 4.591049,0 8.240842,-1.64027 8.240842,-1.64027 l 52.371965,41.829558 v 20.06458 c 0,0 4.93112,7.99182 19.7245,8.50194 14.79338,0.51012 24.99571,-10.03229 24.99571,-10.03229 l 62.74433,31.03209 v 14.4533 c 0,0 7.39669,6.63151 15.89863,6.80155 8.50195,0.17004 15.13346,-5.44124 15.13346,-5.44124 l 88.25016,2.04047 c 0,0 9.7764,8.57593 27.71633,5.2712 12.92295,-2.38054 18.95933,-10.11731 18.95933,-10.11731 v -22.7852 l 22.61516,-40.12917 c 0,0 3.45109,1.00833 8.37442,-0.59513 5.44171,-1.7723 6.75904,-4.46353 6.75904,-4.46353 v -11.77519 c 0,0 17.514,-36.898424 34.85796,-63.254444 17.34396,-26.35602 42.42612,-52.1769336 42.42612,-52.1769336 z"
     id="path1"
     sodipodi:nodetypes="cccscccscccsccscccsccscc"
     inkscape:label="city"
     sodipodi:insensitive="true" /><g
     inkscape:groupmode="layer"
     id="layer12"
     inkscape:label="cut"><path
       d="M 153.60742,221.61328 13.171875,285.09766 12.931641,297.8418 176.93359,375.0332 h 11.54102 l 122.64062,-67.09179 v -14.01172 z"
       style="display:inline;fill:#a351b3;fill-opacity:0.446809;stroke:#000000;stroke-width:0.1"
       id="path7"
       inkscape:label="garden" /><path
       d="M 512.05078,0.06640625 C 503.33138,9.6737796 488.34292,26.993445 476.78906,44.550781 459.4451,70.906801 441.93164,107.80469 441.93164,107.80469 v 11.77539 c 0,0 -1.31805,2.69059 -6.75977,4.46289 -4.92332,1.60346 -8.375,0.5957 -8.375,0.5957 l -22.61523,40.12891 v 22.78515 c 0,0 -6.03603,7.73665 -18.95898,10.11719 -17.93993,3.30473 -27.7168,-5.27148 -27.7168,-5.27148 l -88.25,-2.03907 c 0,10e-6 -6.63086,5.6095 -15.13281,5.43946 -8.50194,-0.17004 -15.89844,-6.80078 -15.89844,-6.80078 v -14.45313 l -62.74414,-31.03125 c 0,0 -10.2027,10.54137 -24.9961,10.03125 -14.79337,-0.51012 -19.7246,-8.50195 -19.7246,-8.50195 V 124.97852 L 78.388672,83.148437 c 0,0 -3.651139,1.640625 -8.242188,1.640625 -4.591049,0 -7.572265,-3.849609 -7.572265,-3.849609 l 0.169922,-15.304687 c 0,0 -30.060615,-31.061376 -62.69335975,-65.54687538 V 512.05078 H 512.05078 Z M 153.60742,221.61328 311.11523,293.92969 v 14.01172 L 188.47461,375.0332 H 176.93359 L 12.931641,297.8418 13.171875,285.09766 Z"
       style="display:inline;fill:#a351b3;fill-opacity:0.446809;stroke:#000000;stroke-width:0.1"
       id="path6"
       inkscape:label="field" /><path
       d="m 512.05078,0.06640625 v -0.015625 H 0.05078125 V 0.08789062 C 32.683526,34.57339 62.744141,65.634766 62.744141,65.634766 l -0.169922,15.304687 c 0,0 2.981216,3.849609 7.572265,3.849609 4.591049,0 8.242188,-1.640625 8.242188,-1.640625 l 52.371098,41.830083 v 20.06445 c 0,0 4.93123,7.99183 19.7246,8.50195 14.79339,0.51012 24.9961,-10.03125 24.9961,-10.03125 l 62.74414,31.03125 v 14.45313 c 0,0 7.3965,6.63074 15.89844,6.80078 8.50195,0.17004 15.13281,-5.43945 15.13281,-5.43946 l 88.25,2.03907 c 0,0 9.77687,8.57621 27.7168,5.27148 12.92295,-2.38054 18.95898,-10.11719 18.95898,-10.11719 v -22.78515 l 22.61523,-40.12891 c 0,0 3.45168,1.00776 8.375,-0.5957 5.44171,-1.7723 6.75977,-4.46289 6.75977,-4.46289 v -11.77539 c 0,0 17.51346,-36.897889 34.85742,-63.253909 11.55386,-17.557336 26.54232,-34.8770014 35.26172,-44.48437475 z"
       style="display:inline;fill:#a351b3;fill-opacity:0.446809;stroke:#000000;stroke-width:0.1"
       id="path3"
       inkscape:label="city" /></g></svg>
