<?xml version="1.0" encoding="UTF-8" standalone="no"?>
<!-- Created with Inkscape (http://www.inkscape.org/) -->

<svg
   width="512"
   height="512"
   viewBox="0 0 512 512"
   version="1.1"
   id="svg1"
   inkscape:version="1.4.2 (f4327f4, 2025-05-13)"
   sodipodi:docname="tile_basic_I_inkscape.svg"
   xml:space="preserve"
   inkscape:export-filename="tile_basic_I_field.svg"
   inkscape:export-xdpi="96"
   inkscape:export-ydpi="96"
   xmlns:inkscape="http://www.inkscape.org/namespaces/inkscape"
   xmlns:sodipodi="http://sodipodi.sourceforge.net/DTD/sodipodi-0.dtd"
   xmlns:xlink="http://www.w3.org/1999/xlink"
   xmlns="http://www.w3.org/2000/svg"
   xmlns:svg="http://www.w3.org/2000/svg"><sodipodi:namedview
     id="namedview1"
     pagecolor="#ffffff"
     bordercolor="#000000"
     borderopacity="0.25"
     inkscape:showpageshadow="2"
     inkscape:pageopacity="0.0"
     inkscape:pagecheckerboard="0"
     inkscape:deskcolor="#d1d1d1"
     inkscape:document-units="px"
     labelstyle="default"
     inkscape:zoom="1.4142136"
     inkscape:cx="365.22065"
     inkscape:cy="200.46477"
     inkscape:window-width="2560"
     inkscape:window-height="1369"
     inkscape:window-x="-8"
     inkscape:window-y="-8"
     inkscape:window-maximized="1"
     inkscape:current-layer="layer15" /><defs
     id="defs1" /><g
     inkscape:label="Layer 1"
     inkscape:groupmode="layer"
     id="layer1"><image
       width="512"
       height="512"
       preserveAspectRatio="none"
       xlink:href="tile_basic_I.png"
       id="image1"
       x="0"
       y="0"
       inkscape:label="tile_basic_I"
       sodipodi:insensitive="true" /><path
       style="display:none;fill:#a351b3;fill-opacity:0.446809;stroke:#000000;stroke-width:0.1"
       d="m -8.1760219,-6.7331945 c 0,0 24.5280659,22.1233535 41.1205809,36.5516275 16.592515,14.428274 50.62953,39.812471 50.62953,39.812471 v 2.125486 c 0,0 3.400777,5.78132 10.032292,5.951359 6.631519,0.170039 11.647659,-1.44533 11.647659,-1.44533 0,0 14.28326,9.947272 22.36011,14.878399 8.07684,4.931126 22.61516,13.092992 22.61516,13.092992 v 21.76497 c 0,0 10.96751,7.65175 24.31556,7.31167 13.34805,-0.34008 21.33987,-5.35622 21.33987,-5.35622 0,0 2.72062,0.68015 5.6963,-0.34008 2.97568,-1.02023 4.25097,-3.57082 4.25097,-3.57082 l 54.66749,-10.28735 c 0,0 8.84202,8.41693 21.59493,7.73677 12.75292,-0.68016 16.91887,-8.67198 16.91887,-8.67198 l 33.32761,8.50194 c 0,0 4.93113,4.33599 13.94318,3.65584 9.01206,-0.68016 11.39261,-5.01615 11.39261,-5.01615 0,0 13.94318,-1.61537 25.25076,-5.44124 11.30759,-3.82588 26.95116,-10.96751 26.95116,-10.96751 0,0 8.757,2.38055 16.57879,0.59514 7.82178,-1.78541 11.90272,-5.271205 11.90272,-5.271205 v -19.12937 c 0,0 15.21847,-14.878398 22.61516,-22.360107 7.39669,-7.481709 23.97548,-25.335787 28.73657,-32.13734 4.76108,-6.801554 28.73656,-34.177807 28.73656,-34.177807 z"
       id="path1"
       inkscape:label="city_top"
       sodipodi:insensitive="true" /><path
       style="display:none;fill:#a351b3;fill-opacity:0.446809;stroke:#000000;stroke-width:0.1"
       d="m -8.1760219,-6.7331945 c 0,0 24.5280659,22.1233535 41.1205809,36.5516275 8.296257,7.214137 35.994615,31.540127 45.894065,43.3315 2.019257,2.405165 32.999196,33.423977 32.999196,33.423977 0,0 6.63402,2.53599 8.75184,9.58216 3.09776,10.30653 -0.11344,13.78063 -0.11344,13.78063 l 16.22507,47.14024 c 0,0 11.8606,9.26582 12.15535,21.9883 0.27746,11.97583 -6.05996,16.75681 -6.05996,16.75681 l -4.996,0.008 -3.01614,75.16133 c 0,0 5.01932,7.25283 5.2984,20.04284 0.18812,8.62088 -5.68495,17.79288 -5.68495,17.79288 l -6.35613,-10e-4 c 0,0 -15.1552,35.36971 -19.07738,47.44772 -7.46293,22.98143 -12.559235,41.61067 -12.559235,41.61067 0,0 3.668505,3.07877 3.28994,13.82534 -0.311578,8.84494 -7.059744,14.86217 -7.059744,14.86217 l -32.322153,-0.10022 -20.90949,26.68879 c -11.541874,14.73201 -60.041162,62.45792 -60.041162,62.45792 z"
       id="path2"
       sodipodi:nodetypes="csscsccscccsccscsccscc"
       inkscape:label="city_left"
       sodipodi:insensitive="true" /><rect
       style="display:none;fill:#a351b3;fill-opacity:0.446809;stroke:#000000;stroke-width:0.447214"
       id="rect2"
       width="511.5528"
       height="511.5528"
       x="0.22360724"
       y="0.22360724"
       inkscape:label="field"
       sodipodi:insensitive="true" /></g><g
     inkscape:groupmode="layer"
     id="layer15"
     inkscape:label="cut"><path
       d="M 510.5,0.22265625 C 503.06474,8.833945 492.67169,21.02035 489.71094,25.25 c -4.76109,6.801553 -21.33964,24.656963 -28.73633,32.138672 -7.39669,7.481709 -22.61524,22.359375 -22.61524,22.359375 v 19.128906 c 10e-6,0 -4.08056,3.486077 -11.90234,5.271487 -7.82179,1.78541 -16.57812,-0.59571 -16.57812,-0.59571 0,0 -15.64359,7.14287 -26.95118,10.96875 -11.30758,3.82587 -25.25195,5.44141 -25.25195,5.44141 0,0 -2.38052,4.33547 -11.39258,5.01563 -9.01205,0.68015 -13.9414,-3.65625 -13.9414,-3.65625 l -33.32813,-8.50196 c 0,0 -4.167,7.99172 -16.91992,8.67188 C 269.34084,122.17235 260.5,113.75586 260.5,113.75586 l -54.66797,10.28711 c 0,0 -1.27627,2.55008 -4.25195,3.57031 -2.97568,1.02023 -5.69531,0.3418 -5.69531,0.3418 0,0 -7.9918,5.01539 -21.33985,5.35547 -13.34805,0.34008 -24.3164,-7.3125 -24.3164,-7.3125 v -21.76367 c 0,0 -14.5384,-8.162629 -22.61524,-13.093755 -8.07685,-4.931127 -22.35937,-14.878906 -22.35937,-14.878906 0,0 -5.01692,1.615351 -11.648441,1.445312 -6.631515,-0.170039 -10.03125,-5.951172 -10.03125,-5.951172 v -2.125 c 0,0 -34.036392,-25.384226 -50.628907,-39.8125 8.296257,7.214137 35.993129,31.540659 45.892579,43.332032 2.019257,2.405165 32.999999,33.423829 32.999999,33.423829 0,0 6.63413,2.53586 8.75195,9.58203 3.09776,10.30653 -0.11328,13.78125 -0.11328,13.78125 l 16.22461,47.13867 c 0,0 11.8615,9.2658 12.15625,21.98828 0.27746,11.97583 -6.06054,16.75782 -6.06055,16.75782 l -4.99609,0.008 -3.01562,75.16211 c 0,0 5.01779,7.25296 5.29687,20.04297 0.18812,8.62088 -5.68359,17.79101 -5.68359,17.79101 h -6.35742 c 0,0 -15.154,35.36926 -19.07618,47.44727 -7.46293,22.98143 -12.560543,41.61133 -12.560543,41.61133 0,0 3.669583,3.07764 3.291015,13.82421 -0.311577,8.84494 -7.060546,14.86329 -7.060546,14.86329 l -32.322266,-0.0996 -20.908203,26.6875 c -6.032771,7.7002 -22.16226,24.41571 -36.185547,38.61718 H 511.77734 V 0.22265625 Z"
       style="fill:#a351b3;fill-opacity:0.446809;stroke:#000000;stroke-width:0.447214"
       id="path7"
       inkscape:label="field" /><path
       d="M 32.945312,29.818359 C 22.480049,20.71813 8.8562369,8.5573254 0.22265625,0.81640625 V 511.77734 H 3.21875 c 14.023287,-14.20147 30.152776,-30.91698 36.185547,-38.61718 l 20.908203,-26.6875 32.322266,0.0996 c 0,0 6.748969,-6.01835 7.060546,-14.86329 0.378568,-10.74657 -3.291015,-13.82421 -3.291015,-13.82421 0,0 5.097613,-18.6299 12.560543,-41.61133 3.92218,-12.07801 19.07618,-47.44727 19.07618,-47.44727 h 6.35742 c 0,0 5.87171,-9.17013 5.68359,-17.79101 -0.27908,-12.79001 -5.29687,-20.04297 -5.29687,-20.04297 l 3.01562,-75.16211 4.99609,-0.008 c 10e-6,0 6.33801,-4.78199 6.06055,-16.75782 -0.29475,-12.72248 -12.15625,-21.98828 -12.15625,-21.98828 L 120.47656,129.9375 c 0,0 3.21104,-3.47472 0.11328,-13.78125 -2.11782,-7.04617 -8.75195,-9.58203 -8.75195,-9.58203 0,0 -30.980742,-31.018664 -32.999999,-33.423829 C 68.938441,61.359018 41.241569,37.032496 32.945312,29.818359 Z"
       style="fill:#a351b3;fill-opacity:0.446809;stroke:#000000;stroke-width:0.447214"
       id="path6"
       inkscape:label="city_left" /><path
       d="M 510.5,0.22265625 H 0.22265625 v 0.59375 C 8.8562369,8.5573254 22.480049,20.71813 32.945312,29.818359 c 16.592515,14.428274 50.628907,39.8125 50.628907,39.8125 v 2.125 c 0,0 3.399735,5.781133 10.03125,5.951172 6.631521,0.170039 11.648441,-1.445312 11.648441,-1.445312 0,0 14.28252,9.947779 22.35937,14.878906 8.07684,4.931126 22.61524,13.093755 22.61524,13.093755 v 21.76367 c 0,0 10.96835,7.65258 24.3164,7.3125 13.34805,-0.34008 21.33985,-5.35547 21.33985,-5.35547 0,0 2.71963,0.67843 5.69531,-0.3418 2.97568,-1.02023 4.25195,-3.57031 4.25195,-3.57031 L 260.5,113.75586 c 0,0 8.84084,8.41649 21.59375,7.73633 12.75292,-0.68016 16.91992,-8.67188 16.91992,-8.67188 l 33.32813,8.50196 c 0,0 4.92935,4.3364 13.9414,3.65625 9.01206,-0.68016 11.39258,-5.01563 11.39258,-5.01563 0,0 13.94437,-1.61554 25.25195,-5.44141 11.30759,-3.82588 26.95118,-10.96875 26.95118,-10.96875 0,0 8.75633,2.38112 16.57812,0.59571 7.82178,-1.78541 11.90235,-5.271487 11.90234,-5.271487 V 79.748047 c 0,0 15.21855,-14.877666 22.61524,-22.359375 C 468.3713,49.906963 484.94985,32.051553 489.71094,25.25 492.67169,21.02035 503.06474,8.833945 510.5,0.22265625 Z"
       style="fill:#a351b3;fill-opacity:0.446809;stroke:#000000;stroke-width:0.447214"
       id="path5"
       inkscape:label="city_top" /></g></svg>
