<?xml version="1.0" encoding="UTF-8" standalone="no"?>
<!-- Created with Inkscape (http://www.inkscape.org/) -->

<svg
   width="512"
   height="512"
   viewBox="0 0 512 512"
   version="1.1"
   id="svg1"
   xml:space="preserve"
   xmlns="http://www.w3.org/2000/svg"
   xmlns:svg="http://www.w3.org/2000/svg"><defs
     id="defs1" /><g
     id="layer15"><path
       d="M 32.945312,29.818359 C 22.480049,20.71813 8.8562369,8.5573254 0.22265625,0.81640625 V 511.77734 H 3.21875 c 14.023287,-14.20147 30.152776,-30.91698 36.185547,-38.61718 l 20.908203,-26.6875 32.322266,0.0996 c 0,0 6.748969,-6.01835 7.060546,-14.86329 0.378568,-10.74657 -3.291015,-13.82421 -3.291015,-13.82421 0,0 5.097613,-18.6299 12.560543,-41.61133 3.92218,-12.07801 19.07618,-47.44727 19.07618,-47.44727 h 6.35742 c 0,0 5.87171,-9.17013 5.68359,-17.79101 -0.27908,-12.79001 -5.29687,-20.04297 -5.29687,-20.04297 l 3.01562,-75.16211 4.99609,-0.008 c 10e-6,0 6.33801,-4.78199 6.06055,-16.75782 -0.29475,-12.72248 -12.15625,-21.98828 -12.15625,-21.98828 L 120.47656,129.9375 c 0,0 3.21104,-3.47472 0.11328,-13.78125 -2.11782,-7.04617 -8.75195,-9.58203 -8.75195,-9.58203 0,0 -30.980742,-31.018664 -32.999999,-33.423829 C 68.938441,61.359018 41.241569,37.032496 32.945312,29.818359 Z"
       style="fill:#a351b3;fill-opacity:0.446809;stroke:#000000;stroke-width:0.447214"
       id="path6" /></g></svg>
