<?xml version="1.0" encoding="UTF-8" standalone="no"?>
<!-- Created with Inkscape (http://www.inkscape.org/) -->

<svg
   width="512"
   height="512"
   viewBox="0 0 512 512"
   version="1.1"
   id="svg1"
   xml:space="preserve"
   xmlns="http://www.w3.org/2000/svg"
   xmlns:svg="http://www.w3.org/2000/svg"><defs
     id="defs1" /><g
     id="layer15"><path
       d="M 510.5,0.22265625 C 503.06474,8.833945 492.67169,21.02035 489.71094,25.25 c -4.76109,6.801553 -21.33964,24.656963 -28.73633,32.138672 -7.39669,7.481709 -22.61524,22.359375 -22.61524,22.359375 v 19.128906 c 10e-6,0 -4.08056,3.486077 -11.90234,5.271487 -7.82179,1.78541 -16.57812,-0.59571 -16.57812,-0.59571 0,0 -15.64359,7.14287 -26.95118,10.96875 -11.30758,3.82587 -25.25195,5.44141 -25.25195,5.44141 0,0 -2.38052,4.33547 -11.39258,5.01563 -9.01205,0.68015 -13.9414,-3.65625 -13.9414,-3.65625 l -33.32813,-8.50196 c 0,0 -4.167,7.99172 -16.91992,8.67188 C 269.34084,122.17235 260.5,113.75586 260.5,113.75586 l -54.66797,10.28711 c 0,0 -1.27627,2.55008 -4.25195,3.57031 -2.97568,1.02023 -5.69531,0.3418 -5.69531,0.3418 0,0 -7.9918,5.01539 -21.33985,5.35547 -13.34805,0.34008 -24.3164,-7.3125 -24.3164,-7.3125 v -21.76367 c 0,0 -14.5384,-8.162629 -22.61524,-13.093755 -8.07685,-4.931127 -22.35937,-14.878906 -22.35937,-14.878906 0,0 -5.01692,1.615351 -11.648441,1.445312 -6.631515,-0.170039 -10.03125,-5.951172 -10.03125,-5.951172 v -2.125 c 0,0 -34.036392,-25.384226 -50.628907,-39.8125 8.296257,7.214137 35.993129,31.540659 45.892579,43.332032 2.019257,2.405165 32.999999,33.423829 32.999999,33.423829 0,0 6.63413,2.53586 8.75195,9.58203 3.09776,10.30653 -0.11328,13.78125 -0.11328,13.78125 l 16.22461,47.13867 c 0,0 11.8615,9.2658 12.15625,21.98828 0.27746,11.97583 -6.06054,16.75782 -6.06055,16.75782 l -4.99609,0.008 -3.01562,75.16211 c 0,0 5.01779,7.25296 5.29687,20.04297 0.18812,8.62088 -5.68359,17.79101 -5.68359,17.79101 h -6.35742 c 0,0 -15.154,35.36926 -19.07618,47.44727 -7.46293,22.98143 -12.560543,41.61133 -12.560543,41.61133 0,0 3.669583,3.07764 3.291015,13.82421 -0.311577,8.84494 -7.060546,14.86329 -7.060546,14.86329 l -32.322266,-0.0996 -20.908203,26.6875 c -6.032771,7.7002 -22.16226,24.41571 -36.185547,38.61718 H 511.77734 V 0.22265625 Z"
       style="fill:#a351b3;fill-opacity:0.446809;stroke:#000000;stroke-width:0.447214"
       id="path7" /></g></svg>
