<?xml version="1.0" encoding="UTF-8" standalone="no"?>
<!-- Created with Inkscape (http://www.inkscape.org/) -->

<svg
   width="512"
   height="512"
   viewBox="0 0 512 512"
   version="1.1"
   id="svg1"
   xml:space="preserve"
   xmlns="http://www.w3.org/2000/svg"
   xmlns:svg="http://www.w3.org/2000/svg"><defs
     id="defs1" /><g
     id="layer22"><path
       d="m 273.50195,511.86133 c -0.12176,-1.73911 -0.26987,-3.51855 -0.44726,-5.3086 -1.32259,-13.34615 -8.1764,-20.20009 -8.53711,-41.12109 -0.3607,-20.921 12.19713,-28.66796 20.17187,-50.63672 6.15924,-16.96744 -2.4777,-28.51284 -7.13086,-34.04101 -3.48685,-4.14254 0.44672,-6.95109 -1.59375,-14.17774 -0.3865,-1.36887 -1.05088,-3.19103 -1.87304,-5.24609 l -53.43946,1.30078 c 1.08609,5.84834 2.70703,11.09346 5.11719,13.04687 3.66281,2.96867 19.205,4.21273 19.52539,21.69141 0.2741,14.95344 -11.27219,31.14639 -18.7539,48.32031 -6.50778,14.93832 -0.95979,36.1673 7.98046,66.17188 z"
       style="fill:#a351b3;fill-opacity:0.446809;stroke:#000000;stroke-width:0.277966"
       id="path6" /></g></svg>
