<?xml version="1.0" encoding="UTF-8" standalone="no"?>
<!-- Created with Inkscape (http://www.inkscape.org/) -->

<svg
   width="512"
   height="512"
   viewBox="0 0 512 512"
   version="1.1"
   id="svg1"
   xml:space="preserve"
   xmlns="http://www.w3.org/2000/svg"
   xmlns:svg="http://www.w3.org/2000/svg"><defs
     id="defs1" /><g
     id="layer22"><path
       d="m 510.5957,511.86133 -33.55273,-33.79688 c 0,0 -3.74061,0.67993 -10.28711,0.33985 -6.54649,-0.34008 -9.77734,-5.27149 -9.77734,-5.27149 v -7.31054 c 0,0 -12.24292,-9.77718 -18.2793,-14.28321 -6.03638,-4.50603 -13.77232,-9.35334 -21.08399,-13.85937 -7.31167,-4.50603 -20.91406,-14.79297 -20.91406,-14.79297 0,0 -5.86594,1.27437 -13.34765,1.35937 -7.48171,0.085 -14.625,-5.78125 -14.625,-5.78125 V 406.5625 c 0,0 -9.60587,-6.54569 -14.70704,-9.69141 -5.10116,-3.14572 -9.18306,-7.99143 -15.64453,-13.34765 -6.46148,-5.35622 -20.40429,-11.9043 -20.40429,-11.9043 0,0 -7.22738,2.04125 -15.98438,1.70117 -8.757,-0.34008 -17.51367,-8.67187 -17.51367,-8.67187 l -0.084,-3.57032 -10.29882,0.25196 c 0.82216,2.05506 1.48654,3.87722 1.87304,5.24609 2.04047,7.22665 -1.8931,10.0352 1.59375,14.17774 4.65316,5.52817 13.2901,17.07357 7.13086,34.04101 -7.97474,21.96876 -20.53257,29.71572 -20.17187,50.63672 0.36071,20.921 7.21452,27.77494 8.53711,41.12109 0.17739,1.79005 0.3255,3.56949 0.44726,5.3086 z"
       style="fill:#a351b3;fill-opacity:0.446809;stroke:#000000;stroke-width:0.277966"
       id="path8" /></g></svg>
