<?xml version="1.0" encoding="UTF-8" standalone="no"?>
<!-- Created with Inkscape (http://www.inkscape.org/) -->

<svg
   width="512"
   height="512"
   viewBox="0 0 512 512"
   version="1.1"
   id="svg1"
   xml:space="preserve"
   xmlns="http://www.w3.org/2000/svg"
   xmlns:svg="http://www.w3.org/2000/svg"><defs
     id="defs1" /><g
     id="layer22"><path
       d="M 0.13867187,0.13867187 V 511.86133 h 0.0546875 C 27.518208,486.7163 43.869141,468.45703 43.869141,468.45703 l 9.183593,5.10156 22.103516,-18.53515 v -8.16211 l 32.47852,-23.29492 c 0,0 6.80216,3.4017 16.15429,-1.35938 9.35214,-4.76109 12.92188,-10.54297 12.92188,-10.54297 v -15.13281 c 0,0 14.28333,-10.20215 22.61523,-14.45313 8.3319,-4.25097 22.44531,-9.52343 22.44531,-9.52343 0,0 6.80134,4.93191 17.34375,1.70117 10.54241,-3.23073 15.5586,-8.33203 15.5586,-8.33203 v -3.14649 l 5.97851,-0.14648 53.43946,-1.30078 10.29882,-0.25196 0.084,3.57032 c 0,0 8.75667,8.33179 17.51367,8.67187 8.757,0.34008 15.98438,-1.70117 15.98438,-1.70117 0,0 13.94281,6.54808 20.40429,11.9043 6.46147,5.35622 10.54337,10.20193 15.64453,13.34765 5.10117,3.14572 14.70704,9.69141 14.70704,9.69141 v 11.90234 c 0,0 7.14329,5.86627 14.625,5.78125 7.48171,-0.085 13.34765,-1.35937 13.34765,-1.35937 0,0 13.60239,10.28694 20.91406,14.79297 7.31167,4.50603 15.04761,9.35334 21.08399,13.85937 6.03638,4.50603 18.2793,14.28321 18.2793,14.28321 v 7.31054 c 0,0 3.23085,4.93141 9.77734,5.27149 6.5465,0.34008 10.28711,-0.33985 10.28711,-0.33985 l 33.55273,33.79688 h 1.26563 V 0.13867187 Z"
       style="fill:#a351b3;fill-opacity:0.446809;stroke:#000000;stroke-width:0.277966"
       id="path5" /></g></svg>
