<?xml version="1.0" encoding="UTF-8" standalone="no"?>
<!-- Created with Inkscape (http://www.inkscape.org/) -->

<svg
   width="512"
   height="512"
   viewBox="0 0 512 512"
   version="1.1"
   id="svg1"
   xml:space="preserve"
   xmlns="http://www.w3.org/2000/svg"
   xmlns:svg="http://www.w3.org/2000/svg"><defs
     id="defs1" /><g
     id="layer22"><path
       d="m 234.52148,511.86133 c -8.94025,-30.00458 -14.48824,-51.23356 -7.98046,-66.17188 7.48171,-17.17392 19.028,-33.36687 18.7539,-48.32031 -0.32039,-17.47868 -15.86258,-18.72274 -19.52539,-21.69141 -2.41016,-1.95341 -4.0311,-7.19853 -5.11719,-13.04687 l -5.97851,0.14648 v 3.14649 c 0,0 -5.01619,5.1013 -15.5586,8.33203 -10.54241,3.23074 -17.34375,-1.70117 -17.34375,-1.70117 0,0 -14.11341,5.27246 -22.44531,9.52343 -8.3319,4.25098 -22.61523,14.45313 -22.61523,14.45313 v 15.13281 c 0,0 -3.56974,5.78188 -12.92188,10.54297 -9.35213,4.76108 -16.15429,1.35938 -16.15429,1.35938 l -32.47852,23.29492 v 8.16211 l -22.103516,18.53515 -9.183593,-5.10156 c 0,0 -16.350933,18.25927 -43.67578163,43.4043 z"
       style="fill:#a351b3;fill-opacity:0.446809;stroke:#000000;stroke-width:0.277966"
       id="path7" /></g></svg>
