<?xml version="1.0" encoding="UTF-8" standalone="no"?>
<!-- Created with Inkscape (http://www.inkscape.org/) -->

<svg
   width="512"
   height="512"
   viewBox="0 0 512 512"
   version="1.1"
   id="svg1"
   inkscape:version="1.4.2 (f4327f4, 2025-05-13)"
   sodipodi:docname="tile_basic_S_inkscape.svg"
   xml:space="preserve"
   inkscape:export-filename="tile_basic_S_field_right.svg"
   inkscape:export-xdpi="96"
   inkscape:export-ydpi="96"
   xmlns:inkscape="http://www.inkscape.org/namespaces/inkscape"
   xmlns:sodipodi="http://sodipodi.sourceforge.net/DTD/sodipodi-0.dtd"
   xmlns:xlink="http://www.w3.org/1999/xlink"
   xmlns="http://www.w3.org/2000/svg"
   xmlns:svg="http://www.w3.org/2000/svg"><sodipodi:namedview
     id="namedview1"
     pagecolor="#ffffff"
     bordercolor="#000000"
     borderopacity="0.25"
     inkscape:showpageshadow="2"
     inkscape:pageopacity="0.0"
     inkscape:pagecheckerboard="0"
     inkscape:deskcolor="#d1d1d1"
     inkscape:document-units="px"
     labelstyle="default"
     inkscape:zoom="2.0792508"
     inkscape:cx="159.91337"
     inkscape:cy="295.53914"
     inkscape:window-width="2560"
     inkscape:window-height="1369"
     inkscape:window-x="-8"
     inkscape:window-y="-8"
     inkscape:window-maximized="1"
     inkscape:current-layer="layer22" /><defs
     id="defs1" /><g
     inkscape:label="Layer 1"
     inkscape:groupmode="layer"
     id="layer1"><image
       width="512"
       height="512"
       preserveAspectRatio="none"
       xlink:href="tile_basic_S.png"
       id="image1"
       x="0"
       y="0"
       sodipodi:insensitive="true"
       inkscape:label="tile_basic_S" /><path
       style="display:none;fill:#a351b3;fill-opacity:0.446809;stroke:#000000;stroke-width:0.1"
       d="M -6.291437,517.76826 C 24.91069,489.62684 43.87002,468.457 43.87002,468.457 l 9.182098,5.10117 22.105049,-18.53424 v -8.16186 l 32.477413,-23.29532 c 0,0 6.80156,3.40077 16.15369,-1.36031 9.35214,-4.76109 12.92296,-10.54241 12.92296,-10.54241 v -15.13346 c 0,0 14.28326,-10.20233 22.61516,-14.4533 8.3319,-4.25097 22.44513,-9.52217 22.44513,-9.52217 0,0 6.80155,4.93112 17.34396,1.70038 10.54241,-3.23073 15.55855,-8.3319 15.55855,-8.3319 v -3.14572 l 69.71593,-1.70039 0.085,3.57082 c 0,0 8.757,8.3319 17.514,8.67198 8.757,0.34008 15.98365,-1.70039 15.98365,-1.70039 0,0 13.94318,6.5465 20.40466,11.90272 6.46147,5.35622 10.54241,10.20233 15.64357,13.34805 5.10117,3.14572 14.70836,9.69221 14.70836,9.69221 v 11.90272 c 0,0 7.14163,5.86634 14.62334,5.78132 7.48171,-0.085 13.34805,-1.36031 13.34805,-1.36031 0,0 13.60311,10.28735 20.91478,14.79338 7.31167,4.50603 15.04843,9.35214 21.08481,13.85817 6.03638,4.50603 18.27918,14.28326 18.27918,14.28326 v 7.31167 c 0,0 3.23074,4.93112 9.77723,5.2712 6.5465,0.34008 10.28735,-0.34008 10.28735,-0.34008 l 46.59064,46.93072 z"
       id="path1"
       inkscape:label="field"
       sodipodi:insensitive="true" /><path
       style="display:none;fill:#a351b3;fill-opacity:0.446809;stroke:#000000;stroke-width:0.1"
       d="m 238.73453,525.93013 c -11.22256,-37.57859 -19.67471,-63.06732 -12.193,-80.24125 7.48171,-17.17392 19.02818,-33.36676 18.75408,-48.3202 -0.32039,-17.47868 -15.86248,-18.72233 -19.52529,-21.691 -6.55,-5.30871 -7.27041,-34.91985 -7.27041,-34.91985 l 45.65543,-1.27529 c 0,0 9.76868,19.86788 11.80915,27.09453 2.04047,7.22665 -1.89211,10.03507 1.59474,14.17761 4.65316,5.52817 13.28879,17.07304 7.12955,34.04048 -7.97474,21.96876 -20.53113,29.71591 -20.17043,50.63691 0.36071,20.921 7.21414,27.77443 8.53673,41.12058 1.3226,13.34615 0.96189,26.09113 0.96189,26.09113 z"
       id="path2"
       sodipodi:nodetypes="csssccssssscc"
       inkscape:label="road"
       sodipodi:insensitive="true" /><rect
       style="display:none;fill:#a351b3;fill-opacity:0.446809;stroke:#000000;stroke-width:0.277966"
       id="rect2"
       width="511.72202"
       height="511.72205"
       x="0.13898313"
       y="0.13898313"
       inkscape:label="city"
       sodipodi:insensitive="true" /></g><g
     inkscape:groupmode="layer"
     id="layer22"
     inkscape:label="cut"><path
       d="m 510.5957,511.86133 -33.55273,-33.79688 c 0,0 -3.74061,0.67993 -10.28711,0.33985 -6.54649,-0.34008 -9.77734,-5.27149 -9.77734,-5.27149 v -7.31054 c 0,0 -12.24292,-9.77718 -18.2793,-14.28321 -6.03638,-4.50603 -13.77232,-9.35334 -21.08399,-13.85937 -7.31167,-4.50603 -20.91406,-14.79297 -20.91406,-14.79297 0,0 -5.86594,1.27437 -13.34765,1.35937 -7.48171,0.085 -14.625,-5.78125 -14.625,-5.78125 V 406.5625 c 0,0 -9.60587,-6.54569 -14.70704,-9.69141 -5.10116,-3.14572 -9.18306,-7.99143 -15.64453,-13.34765 -6.46148,-5.35622 -20.40429,-11.9043 -20.40429,-11.9043 0,0 -7.22738,2.04125 -15.98438,1.70117 -8.757,-0.34008 -17.51367,-8.67187 -17.51367,-8.67187 l -0.084,-3.57032 -10.29882,0.25196 c 0.82216,2.05506 1.48654,3.87722 1.87304,5.24609 2.04047,7.22665 -1.8931,10.0352 1.59375,14.17774 4.65316,5.52817 13.2901,17.07357 7.13086,34.04101 -7.97474,21.96876 -20.53257,29.71572 -20.17187,50.63672 0.36071,20.921 7.21452,27.77494 8.53711,41.12109 0.17739,1.79005 0.3255,3.56949 0.44726,5.3086 z"
       style="fill:#a351b3;fill-opacity:0.446809;stroke:#000000;stroke-width:0.277966"
       id="path8"
       inkscape:label="field_right" /><path
       d="m 234.52148,511.86133 c -8.94025,-30.00458 -14.48824,-51.23356 -7.98046,-66.17188 7.48171,-17.17392 19.028,-33.36687 18.7539,-48.32031 -0.32039,-17.47868 -15.86258,-18.72274 -19.52539,-21.69141 -2.41016,-1.95341 -4.0311,-7.19853 -5.11719,-13.04687 l -5.97851,0.14648 v 3.14649 c 0,0 -5.01619,5.1013 -15.5586,8.33203 -10.54241,3.23074 -17.34375,-1.70117 -17.34375,-1.70117 0,0 -14.11341,5.27246 -22.44531,9.52343 -8.3319,4.25098 -22.61523,14.45313 -22.61523,14.45313 v 15.13281 c 0,0 -3.56974,5.78188 -12.92188,10.54297 -9.35213,4.76108 -16.15429,1.35938 -16.15429,1.35938 l -32.47852,23.29492 v 8.16211 l -22.103516,18.53515 -9.183593,-5.10156 c 0,0 -16.350933,18.25927 -43.67578163,43.4043 z"
       style="fill:#a351b3;fill-opacity:0.446809;stroke:#000000;stroke-width:0.277966"
       id="path7"
       inkscape:label="field_left" /><path
       d="m 273.50195,511.86133 c -0.12176,-1.73911 -0.26987,-3.51855 -0.44726,-5.3086 -1.32259,-13.34615 -8.1764,-20.20009 -8.53711,-41.12109 -0.3607,-20.921 12.19713,-28.66796 20.17187,-50.63672 6.15924,-16.96744 -2.4777,-28.51284 -7.13086,-34.04101 -3.48685,-4.14254 0.44672,-6.95109 -1.59375,-14.17774 -0.3865,-1.36887 -1.05088,-3.19103 -1.87304,-5.24609 l -53.43946,1.30078 c 1.08609,5.84834 2.70703,11.09346 5.11719,13.04687 3.66281,2.96867 19.205,4.21273 19.52539,21.69141 0.2741,14.95344 -11.27219,31.14639 -18.7539,48.32031 -6.50778,14.93832 -0.95979,36.1673 7.98046,66.17188 z"
       style="fill:#a351b3;fill-opacity:0.446809;stroke:#000000;stroke-width:0.277966"
       id="path6"
       inkscape:label="road" /><path
       d="M 0.13867187,0.13867187 V 511.86133 h 0.0546875 C 27.518208,486.7163 43.869141,468.45703 43.869141,468.45703 l 9.183593,5.10156 22.103516,-18.53515 v -8.16211 l 32.47852,-23.29492 c 0,0 6.80216,3.4017 16.15429,-1.35938 9.35214,-4.76109 12.92188,-10.54297 12.92188,-10.54297 v -15.13281 c 0,0 14.28333,-10.20215 22.61523,-14.45313 8.3319,-4.25097 22.44531,-9.52343 22.44531,-9.52343 0,0 6.80134,4.93191 17.34375,1.70117 10.54241,-3.23073 15.5586,-8.33203 15.5586,-8.33203 v -3.14649 l 5.97851,-0.14648 53.43946,-1.30078 10.29882,-0.25196 0.084,3.57032 c 0,0 8.75667,8.33179 17.51367,8.67187 8.757,0.34008 15.98438,-1.70117 15.98438,-1.70117 0,0 13.94281,6.54808 20.40429,11.9043 6.46147,5.35622 10.54337,10.20193 15.64453,13.34765 5.10117,3.14572 14.70704,9.69141 14.70704,9.69141 v 11.90234 c 0,0 7.14329,5.86627 14.625,5.78125 7.48171,-0.085 13.34765,-1.35937 13.34765,-1.35937 0,0 13.60239,10.28694 20.91406,14.79297 7.31167,4.50603 15.04761,9.35334 21.08399,13.85937 6.03638,4.50603 18.2793,14.28321 18.2793,14.28321 v 7.31054 c 0,0 3.23085,4.93141 9.77734,5.27149 6.5465,0.34008 10.28711,-0.33985 10.28711,-0.33985 l 33.55273,33.79688 h 1.26563 V 0.13867187 Z"
       style="fill:#a351b3;fill-opacity:0.446809;stroke:#000000;stroke-width:0.277966"
       id="path5"
       inkscape:label="city" /></g></svg>
