<?xml version="1.0" encoding="UTF-8" standalone="no"?>
<!-- Created with Inkscape (http://www.inkscape.org/) -->

<svg
   width="512"
   height="512"
   viewBox="0 0 512 512"
   version="1.1"
   id="svg1"
   xml:space="preserve"
   xmlns="http://www.w3.org/2000/svg"
   xmlns:svg="http://www.w3.org/2000/svg"><defs
     id="defs1" /><g
     id="layer21"><path
       d="m 0.1875,0.1875 v 511.625 H 1.7226562 C 34.870105,478.74565 58.794922,455.45313 58.794922,455.45312 c 0,0 5.289711,3.24494 10.580078,1.44141 5.290367,-1.80353 7.935547,-4.44726 7.935547,-4.44726 v -2.04493 l 45.089843,-44.36718 c 0,0 7.21295,4.81043 17.07227,0.96289 9.85932,-3.84754 12.86523,-8.41602 12.86523,-8.41602 v -12.74609 l 35.71094,-18.27539 c 0,0 5.41041,4.92924 18.03515,2.40429 12.62474,-2.52495 16.35157,-8.89648 16.35157,-8.89648 l 78.99609,0.8418 c 0,0 4.6891,7.93421 16.95313,8.29492 12.26403,0.36071 24.52734,-1.32227 24.52734,-1.32227 l 48.81641,29.81836 v 10.33985 c 0,0 2.16391,4.8096 9.25781,5.77148 7.0939,0.96189 13.70703,0 13.70703,0 l 34.02539,44.00586 v 17.91601 c 0,0 3.96925,3.00563 8.41797,3.2461 4.44872,0.24047 7.93555,-0.60156 7.93555,-0.60156 0,0 19.83818,10.10031 29.45703,17.31445 4.56174,3.4213 10.63757,9.54686 15.85547,15.11914 h 1.42773 V 0.1875 Z"
       style="fill:#a351b3;fill-opacity:0.446809;stroke:#000000;stroke-width:0.37507"
       id="path3" /></g></svg>
