<?xml version="1.0" encoding="UTF-8" standalone="no"?>
<!-- Created with Inkscape (http://www.inkscape.org/) -->

<svg
   width="512"
   height="512"
   viewBox="0 0 512 512"
   version="1.1"
   id="svg1"
   inkscape:version="1.4.2 (f4327f4, 2025-05-13)"
   sodipodi:docname="tile_basic_Q_inkscape.svg"
   xml:space="preserve"
   inkscape:export-filename="tile_basic_Q_city.svg"
   inkscape:export-xdpi="96"
   inkscape:export-ydpi="96"
   xmlns:inkscape="http://www.inkscape.org/namespaces/inkscape"
   xmlns:sodipodi="http://sodipodi.sourceforge.net/DTD/sodipodi-0.dtd"
   xmlns:xlink="http://www.w3.org/1999/xlink"
   xmlns="http://www.w3.org/2000/svg"
   xmlns:svg="http://www.w3.org/2000/svg"><sodipodi:namedview
     id="namedview1"
     pagecolor="#ffffff"
     bordercolor="#000000"
     borderopacity="0.25"
     inkscape:showpageshadow="2"
     inkscape:pageopacity="0.0"
     inkscape:pagecheckerboard="0"
     inkscape:deskcolor="#d1d1d1"
     inkscape:document-units="px"
     labelstyle="default"
     inkscape:zoom="1.4702523"
     inkscape:cx="43.87002"
     inkscape:cy="258.11896"
     inkscape:window-width="2560"
     inkscape:window-height="1369"
     inkscape:window-x="-8"
     inkscape:window-y="-8"
     inkscape:window-maximized="1"
     inkscape:current-layer="layer21" /><defs
     id="defs1" /><g
     inkscape:label="Layer 1"
     inkscape:groupmode="layer"
     id="layer1"><image
       width="512"
       height="512"
       preserveAspectRatio="none"
       xlink:href="tile_basic_Q.png"
       id="image1"
       x="0"
       y="0"
       sodipodi:insensitive="true"
       inkscape:label="tile_basic_Q" /><path
       style="display:none;fill:#a351b3;fill-opacity:0.446809;stroke:#000000;stroke-width:0.1"
       d="M -5.1701315,518.69645 C 31.501731,482.02458 58.795216,455.45251 58.795216,455.45251 c 0,0 5.290367,3.24636 10.580734,1.44283 5.290367,-1.80353 7.935551,-4.44872 7.935551,-4.44872 v -2.044 l 45.088359,-44.36695 c 0,0 7.21413,4.80943 17.07345,0.96189 9.85932,-3.84754 12.86522,-8.41649 12.86522,-8.41649 v -12.74498 l 35.70997,-18.27581 c 0,0 5.41061,4.92966 18.03535,2.40471 12.62474,-2.52495 16.35204,-8.89744 16.35204,-8.89744 l 78.9948,0.84165 c 0,0 4.68919,7.93555 16.95322,8.29626 12.26403,0.36071 24.52807,-1.32259 24.52807,-1.32259 l 48.81566,29.81843 v 10.34027 c 0,0 2.16424,4.80942 9.25814,5.7713 7.0939,0.96189 13.70686,0 13.70686,0 l 34.02668,44.00624 v 17.91511 c 0,0 3.96777,3.00589 8.41649,3.24636 4.44872,0.24047 7.93555,-0.60118 7.93555,-0.60118 0,0 19.83888,10.09979 29.45773,17.31393 9.61885,7.21414 25.97089,26.45183 26.81254,27.17325 z"
       id="path1"
       inkscape:label="field"
       sodipodi:insensitive="true" /><rect
       style="display:none;fill:#a351b3;fill-opacity:0.446809;stroke:#000000;stroke-width:0.37507"
       id="rect1"
       width="511.62494"
       height="511.62494"
       x="0.18753496"
       y="0.18753496"
       inkscape:label="city"
       sodipodi:insensitive="true" /></g><g
     inkscape:groupmode="layer"
     id="layer21"
     inkscape:label="cut"><path
       d="m 510.38477,511.8125 c -5.2179,-5.57228 -11.29373,-11.69784 -15.85547,-15.11914 -9.61885,-7.21414 -29.45703,-17.31445 -29.45703,-17.31445 0,0 -3.48683,0.84203 -7.93555,0.60156 -4.44872,-0.24047 -8.41797,-3.2461 -8.41797,-3.2461 V 458.81836 L 414.69336,414.8125 c 0,0 -6.61313,0.96189 -13.70703,0 -7.0939,-0.96188 -9.25781,-5.77148 -9.25781,-5.77148 v -10.33985 l -48.81641,-29.81836 c 0,0 -12.26331,1.68298 -24.52734,1.32227 -12.26403,-0.36071 -16.95313,-8.29492 -16.95313,-8.29492 l -78.99609,-0.8418 c 0,0 -3.72683,6.37153 -16.35157,8.89648 -12.62474,2.52495 -18.03515,-2.40429 -18.03515,-2.40429 l -35.71094,18.27539 v 12.74609 c 0,0 -3.00591,4.56848 -12.86523,8.41602 -9.85932,3.84754 -17.07227,-0.96289 -17.07227,-0.96289 l -45.089843,44.36718 v 2.04493 c 0,0 -2.64518,2.64373 -7.935547,4.44726 -5.290367,1.80353 -10.580078,-1.44141 -10.580078,-1.44141 0,10e-6 -23.924817,23.29253 -57.0722658,56.35938 z"
       style="fill:#a351b3;fill-opacity:0.446809;stroke:#000000;stroke-width:0.37507"
       id="path4"
       inkscape:label="field" /><path
       d="m 0.1875,0.1875 v 511.625 H 1.7226562 C 34.870105,478.74565 58.794922,455.45313 58.794922,455.45312 c 0,0 5.289711,3.24494 10.580078,1.44141 5.290367,-1.80353 7.935547,-4.44726 7.935547,-4.44726 v -2.04493 l 45.089843,-44.36718 c 0,0 7.21295,4.81043 17.07227,0.96289 9.85932,-3.84754 12.86523,-8.41602 12.86523,-8.41602 v -12.74609 l 35.71094,-18.27539 c 0,0 5.41041,4.92924 18.03515,2.40429 12.62474,-2.52495 16.35157,-8.89648 16.35157,-8.89648 l 78.99609,0.8418 c 0,0 4.6891,7.93421 16.95313,8.29492 12.26403,0.36071 24.52734,-1.32227 24.52734,-1.32227 l 48.81641,29.81836 v 10.33985 c 0,0 2.16391,4.8096 9.25781,5.77148 7.0939,0.96189 13.70703,0 13.70703,0 l 34.02539,44.00586 v 17.91601 c 0,0 3.96925,3.00563 8.41797,3.2461 4.44872,0.24047 7.93555,-0.60156 7.93555,-0.60156 0,0 19.83818,10.10031 29.45703,17.31445 4.56174,3.4213 10.63757,9.54686 15.85547,15.11914 h 1.42773 V 0.1875 Z"
       style="fill:#a351b3;fill-opacity:0.446809;stroke:#000000;stroke-width:0.37507"
       id="path3"
       inkscape:label="city" /></g></svg>
