<?xml version="1.0" encoding="UTF-8" standalone="no"?>
<!-- Created with Inkscape (http://www.inkscape.org/) -->

<svg
   width="512"
   height="512"
   viewBox="0 0 512 512"
   version="1.1"
   id="svg1"
   xml:space="preserve"
   xmlns="http://www.w3.org/2000/svg"
   xmlns:svg="http://www.w3.org/2000/svg"><defs
     id="defs1" /><g
     id="layer17"><path
       d="m 274.28711,512.05078 c 0.15379,-7.28769 0.28633,-13.90113 0.33008,-16.91992 0.12024,-8.29626 -2.22471,-17.18299 -2.28321,-32.94531 -0.0522,-14.06798 9.34951,-30.01099 24.88868,-50.85938 14.42827,-19.35794 40.67186,-32.52333 49.65625,-55.54883 11.97485,-30.68952 -2.88438,-52.90301 -18.1543,-71.05859 -15.26992,-18.15558 -37.63416,-24.76846 -66.00977,-37.75391 -28.3756,-12.98544 -62.64361,-32.58449 -76.4707,-37.0332 -13.8271,-4.44872 -33.18473,-7.81466 -58.79492,-10.58008 -25.61018,-2.76542 -28.615224,-2.28534 -52.421876,-0.12109 -23.806652,2.16424 -37.514169,14.7896 -49.898438,24.16797 -6.278841,4.75485 -16.5126108,8.52067 -25.07812475,11.07812 V 271.875 C 11.95738,268.66762 28.760336,262.86414 50.017578,252.375 c 45.80977,-22.6043 76.711372,-15.15092 103.042972,-8.6582 33.95263,8.37189 80.91733,28.61641 112.29882,43.28515 31.38151,14.66875 43.35347,23.99072 43.64649,45.08789 0.24048,17.31393 -22.36461,34.02816 -45.81055,53.02539 -22.3336,18.09594 -27.77491,46.28971 -28.25586,59.51563 -0.48094,13.22592 2.4054,30.17886 2.28516,42.92383 -0.0493,5.22601 -0.0173,14.90108 0.0371,24.49609 z"
       style="display:inline;fill:#a351b3;fill-opacity:0.446809;stroke:#000000;stroke-width:0.1"
       id="path7" /></g></svg>
