<?xml version="1.0" encoding="UTF-8" standalone="no"?>
<!-- Created with Inkscape (http://www.inkscape.org/) -->

<svg
   width="512"
   height="512"
   viewBox="0 0 512 512"
   version="1.1"
   id="svg1"
   xml:space="preserve"
   xmlns="http://www.w3.org/2000/svg"
   xmlns:svg="http://www.w3.org/2000/svg"><defs
     id="defs1" /><g
     id="layer17"><path
       d="m 512.05078,0.06640625 v -0.015625 H 0.05078125 V 0.08789062 C 32.683526,34.57339 62.744141,65.634766 62.744141,65.634766 l -0.169922,15.304687 c 0,0 2.981216,3.849609 7.572265,3.849609 4.591049,0 8.242188,-1.640625 8.242188,-1.640625 l 52.371098,41.830083 v 20.06445 c 0,0 4.93123,7.99183 19.7246,8.50195 14.79339,0.51012 24.9961,-10.03125 24.9961,-10.03125 l 62.74414,31.03125 v 14.45313 c 0,0 7.3965,6.63074 15.89844,6.80078 8.50195,0.17004 15.13281,-5.43945 15.13281,-5.43946 l 88.25,2.03907 c 0,0 9.77687,8.57621 27.7168,5.27148 12.92295,-2.38054 18.95898,-10.11719 18.95898,-10.11719 v -22.78515 l 22.61523,-40.12891 c 0,0 3.45168,1.00776 8.375,-0.5957 5.44171,-1.7723 6.75977,-4.46289 6.75977,-4.46289 v -11.77539 c 0,0 17.51346,-36.897889 34.85742,-63.253909 11.55386,-17.557336 26.54232,-34.8770014 35.26172,-44.48437475 z"
       style="display:inline;fill:#a351b3;fill-opacity:0.446809;stroke:#000000;stroke-width:0.1"
       id="path5" /></g></svg>
