<?xml version="1.0" encoding="UTF-8" standalone="no"?>
<!-- Created with Inkscape (http://www.inkscape.org/) -->

<svg
   width="512"
   height="512"
   viewBox="0 0 512 512"
   version="1.1"
   id="svg1"
   inkscape:version="1.4.2 (f4327f4, 2025-05-13)"
   sodipodi:docname="tile_basic_K_inkscape.svg"
   xml:space="preserve"
   inkscape:export-filename="tile_basic_K_field_bottom.svg"
   inkscape:export-xdpi="96"
   inkscape:export-ydpi="96"
   xmlns:inkscape="http://www.inkscape.org/namespaces/inkscape"
   xmlns:sodipodi="http://sodipodi.sourceforge.net/DTD/sodipodi-0.dtd"
   xmlns:xlink="http://www.w3.org/1999/xlink"
   xmlns="http://www.w3.org/2000/svg"
   xmlns:svg="http://www.w3.org/2000/svg"><sodipodi:namedview
     id="namedview1"
     pagecolor="#ffffff"
     bordercolor="#000000"
     borderopacity="0.25"
     inkscape:showpageshadow="2"
     inkscape:pageopacity="0.0"
     inkscape:pagecheckerboard="0"
     inkscape:deskcolor="#d1d1d1"
     inkscape:document-units="px"
     labelstyle="default"
     inkscape:zoom="2.0792508"
     inkscape:cx="257.54469"
     inkscape:cy="258.50657"
     inkscape:window-width="2560"
     inkscape:window-height="1369"
     inkscape:window-x="-8"
     inkscape:window-y="-8"
     inkscape:window-maximized="1"
     inkscape:current-layer="layer17" /><defs
     id="defs1" /><g
     inkscape:label="Layer 1"
     inkscape:groupmode="layer"
     id="layer1"><image
       width="512"
       height="512"
       preserveAspectRatio="none"
       xlink:href="tile_basic_K.png"
       id="image1"
       x="0"
       y="0"
       inkscape:label="tile_basic_K" /><rect
       style="display:none;fill:#a351b3;fill-opacity:0.446809;stroke:#000000;stroke-width:0.1"
       id="rect1"
       width="512"
       height="512"
       x="0.050000001"
       y="0.050000001"
       inkscape:label="field"
       sodipodi:insensitive="true" /><path
       style="display:none;fill:#a351b3;fill-opacity:0.446809;stroke:#000000;stroke-width:0.1"
       d="M -5.0161458,-5.271204 C 29.501738,31.287146 62.744331,65.634992 62.744331,65.634992 l -0.170038,15.303495 c 0,0 2.981721,3.850775 7.57277,3.850775 4.591049,0 8.240842,-1.64027 8.240842,-1.64027 l 52.371965,41.829558 v 20.06458 c 0,0 4.93112,7.99182 19.7245,8.50194 14.79338,0.51012 24.99571,-10.03229 24.99571,-10.03229 l 62.74433,31.03209 v 14.4533 c 0,0 7.39669,6.63151 15.89863,6.80155 8.50195,0.17004 15.13346,-5.44124 15.13346,-5.44124 l 88.25016,2.04047 c 0,0 9.7764,8.57593 27.71633,5.2712 12.92295,-2.38054 18.95933,-10.11731 18.95933,-10.11731 v -22.7852 l 22.61516,-40.12917 c 0,0 3.45109,1.00833 8.37442,-0.59513 5.44171,-1.7723 6.75904,-4.46353 6.75904,-4.46353 v -11.77519 c 0,0 17.514,-36.898424 34.85796,-63.254444 17.34396,-26.35602 42.42612,-52.1769336 42.42612,-52.1769336 z"
       id="path1"
       sodipodi:nodetypes="cccscccscccsccscccsccscc"
       inkscape:label="city"
       sodipodi:insensitive="true" /><path
       style="display:none;fill:#a351b3;fill-opacity:0.446809;stroke:#000000;stroke-width:0.1"
       d="m -15.029452,238.30699 c 0,0 27.774428,-5.53084 40.158696,-14.90922 12.384269,-9.37837 26.091128,-22.00311 49.89778,-24.16735 23.806652,-2.16425 26.812546,-2.64519 52.422726,0.12023 25.61019,2.76542 44.96812,6.13202 58.79522,10.58074 13.82709,4.44871 48.09425,24.04712 76.46985,37.03256 28.37561,12.98545 50.73943,19.59841 66.00935,37.75399 15.26992,18.15558 30.13043,40.36972 18.15558,71.05924 -8.98439,23.0255 -35.22904,36.19092 -49.65731,55.54886 -15.53917,20.84839 -24.94096,36.79168 -24.88877,50.85966 0.0585,15.76232 2.40471,24.64831 2.28447,32.94457 -0.12371,8.53583 -0.96188,45.80977 -0.96188,45.80977 l -36.19092,-1.44283 c 0,0 -0.36071,-39.19681 -0.24047,-51.94179 0.12024,-12.74497 -2.76542,-29.69819 -2.28448,-42.92411 0.48095,-13.22592 5.92177,-41.42069 28.25537,-59.51663 23.44594,-18.99723 46.05025,-35.70998 45.80977,-53.02391 C 308.71251,310.9936 296.7415,301.67116 265.36,287.00241 233.97851,272.33367 187.01257,252.08948 153.05994,243.71759 126.72834,237.22487 95.827786,229.77026 50.018016,252.37456 4.2082466,274.97885 -20.920997,275.8205 -20.920997,275.8205 Z"
       id="path2"
       sodipodi:nodetypes="cssssssssssccssssssscc"
       inkscape:label="road"
       sodipodi:insensitive="true" /></g><g
     inkscape:groupmode="layer"
     id="layer17"
     inkscape:label="cut"><path
       d="m 237.26172,512.05078 c -0.0544,-9.59501 -0.0864,-19.27008 -0.0371,-24.49609 0.12024,-12.74497 -2.7661,-29.69791 -2.28516,-42.92383 0.48095,-13.22592 5.92226,-41.41969 28.25586,-59.51563 23.44594,-18.99723 46.05103,-35.71146 45.81055,-53.02539 -0.29302,-21.09717 -12.26498,-30.41914 -43.64649,-45.08789 -31.38149,-14.66874 -78.34619,-34.91326 -112.29882,-43.28515 -26.3316,-6.49272 -57.233202,-13.9461 -103.042972,8.6582 -21.257242,10.48914 -38.060198,16.29262 -49.96679675,19.5 v 240.17578 z"
       style="display:inline;fill:#a351b3;fill-opacity:0.446809;stroke:#000000;stroke-width:0.1"
       id="path8"
       inkscape:label="field_bottom" /><path
       d="M 512.05078,0.06640625 C 503.33138,9.6737796 488.34292,26.993445 476.78906,44.550781 459.4451,70.906801 441.93164,107.80469 441.93164,107.80469 v 11.77539 c 0,0 -1.31806,2.69059 -6.75977,4.46289 -4.92332,1.60346 -8.375,0.5957 -8.375,0.5957 l -22.61523,40.12891 v 22.78515 c 0,0 -6.03603,7.73665 -18.95898,10.11719 -17.93993,3.30473 -27.7168,-5.27148 -27.7168,-5.27148 l -88.25,-2.03907 c 0,10e-6 -6.63086,5.6095 -15.13281,5.43946 -8.50194,-0.17004 -15.89844,-6.80078 -15.89844,-6.80078 v -14.45313 l -62.74414,-31.03125 c 0,0 -10.20271,10.54137 -24.9961,10.03125 -14.79337,-0.51012 -19.7246,-8.50195 -19.7246,-8.50195 V 124.97852 L 78.388672,83.148437 c 0,0 -3.651139,1.640625 -8.242188,1.640625 -4.591049,0 -7.572265,-3.849609 -7.572265,-3.849609 l 0.169922,-15.304687 c 0,0 -30.060615,-31.061376 -62.69335975,-65.54687538 V 234.47656 C 8.6162952,231.91911 18.850065,228.15329 25.128906,223.39844 c 12.384269,-9.37837 26.091786,-22.00373 49.898438,-24.16797 23.806652,-2.16425 26.811696,-2.64433 52.421876,0.12109 25.61019,2.76542 44.96782,6.13136 58.79492,10.58008 13.82709,4.44871 48.0951,24.04776 76.4707,37.0332 28.37561,12.98545 50.73985,19.59833 66.00977,37.75391 15.26992,18.15558 30.12915,40.36907 18.1543,71.05859 -8.98439,23.0255 -35.22798,36.19089 -49.65625,55.54883 -15.53917,20.84839 -24.94087,36.7914 -24.88868,50.85938 0.0585,15.76232 2.40345,24.64905 2.28321,32.94531 -0.0437,3.01879 -0.17629,9.63223 -0.33008,16.91992 h 237.76367 z"
       style="display:inline;fill:#a351b3;fill-opacity:0.446809;stroke:#000000;stroke-width:0.1"
       id="path6"
       inkscape:label="field_top" /><path
       d="m 512.05078,0.06640625 v -0.015625 H 0.05078125 V 0.08789062 C 32.683526,34.57339 62.744141,65.634766 62.744141,65.634766 l -0.169922,15.304687 c 0,0 2.981216,3.849609 7.572265,3.849609 4.591049,0 8.242188,-1.640625 8.242188,-1.640625 l 52.371098,41.830083 v 20.06445 c 0,0 4.93123,7.99183 19.7246,8.50195 14.79339,0.51012 24.9961,-10.03125 24.9961,-10.03125 l 62.74414,31.03125 v 14.45313 c 0,0 7.3965,6.63074 15.89844,6.80078 8.50195,0.17004 15.13281,-5.43945 15.13281,-5.43946 l 88.25,2.03907 c 0,0 9.77687,8.57621 27.7168,5.27148 12.92295,-2.38054 18.95898,-10.11719 18.95898,-10.11719 v -22.78515 l 22.61523,-40.12891 c 0,0 3.45168,1.00776 8.375,-0.5957 5.44171,-1.7723 6.75977,-4.46289 6.75977,-4.46289 v -11.77539 c 0,0 17.51346,-36.897889 34.85742,-63.253909 11.55386,-17.557336 26.54232,-34.8770014 35.26172,-44.48437475 z"
       style="display:inline;fill:#a351b3;fill-opacity:0.446809;stroke:#000000;stroke-width:0.1"
       id="path5"
       inkscape:label="city" /><path
       d="m 274.28711,512.05078 c 0.15379,-7.28769 0.28633,-13.90113 0.33008,-16.91992 0.12024,-8.29626 -2.22471,-17.18299 -2.28321,-32.94531 -0.0522,-14.06798 9.34951,-30.01099 24.88868,-50.85938 14.42827,-19.35794 40.67186,-32.52333 49.65625,-55.54883 11.97485,-30.68952 -2.88438,-52.90301 -18.1543,-71.05859 -15.26992,-18.15558 -37.63416,-24.76846 -66.00977,-37.75391 -28.3756,-12.98544 -62.64361,-32.58449 -76.4707,-37.0332 -13.8271,-4.44872 -33.18473,-7.81466 -58.79492,-10.58008 -25.61018,-2.76542 -28.615224,-2.28534 -52.421876,-0.12109 -23.806652,2.16424 -37.514169,14.7896 -49.898438,24.16797 -6.278841,4.75485 -16.5126108,8.52067 -25.07812475,11.07812 V 271.875 C 11.95738,268.66762 28.760336,262.86414 50.017578,252.375 c 45.80977,-22.6043 76.711372,-15.15092 103.042972,-8.6582 33.95263,8.37189 80.91733,28.61641 112.29882,43.28515 31.38151,14.66875 43.35347,23.99072 43.64649,45.08789 0.24048,17.31393 -22.36461,34.02816 -45.81055,53.02539 -22.3336,18.09594 -27.77491,46.28971 -28.25586,59.51563 -0.48094,13.22592 2.4054,30.17886 2.28516,42.92383 -0.0493,5.22601 -0.0173,14.90108 0.0371,24.49609 z"
       style="display:inline;fill:#a351b3;fill-opacity:0.446809;stroke:#000000;stroke-width:0.1"
       id="path7"
       inkscape:label="road" /></g></svg>
