<?xml version="1.0" encoding="UTF-8" standalone="no"?>
<!-- Created with Inkscape (http://www.inkscape.org/) -->

<svg
   width="512"
   height="512"
   viewBox="0 0 512 512"
   version="1.1"
   id="svg1"
   xml:space="preserve"
   xmlns="http://www.w3.org/2000/svg"
   xmlns:svg="http://www.w3.org/2000/svg"><defs
     id="defs1" /><g
     id="layer4"><path
       d="M 0.1171875,0.1171875 V 511.88281 H 511.88281 V 0.1171875 Z M 237.82617,60.298828 h 3.12695 v 8.609375 h 7.38868 v 3.144531 h -7.38868 V 86.158203 L 271,164.13086 l 13.43555,5.87891 0.0586,1.37109 -5.78711,2.53906 v 44.60742 l 49.83594,22.72461 7.57617,12.26563 56.93164,23.625 v 1.62304 h -5.95312 v 53.625 l -33.00391,18.69727 0.24023,20.74023 c 0,10e-6 -14.18728,10.76249 -27.29296,11.96485 -13.10569,1.20235 -30.29883,-5.41211 -30.29883,-5.41211 l -45.57032,22.12305 -137.30859,-77.43164 v -83.8711 c 0,0 -2.95609,-1.82773 -2.87109,-5.22851 0.085,-3.40077 6.1636,-8.71467 16.06836,-13.94336 9.90476,-5.2287 15.30468,-8.07618 15.30468,-8.07618 l 12.25782,-14.64648 12.74414,-18.51562 12.86523,6.01171 13.70703,7.69532 V 171.9375 l -6.13086,-3.99805 v -1.44336 l 16.77149,-7.57422 33.24609,-72.279292 V 72.052734 h -6.78515 v -3.144531 h 6.78515 z"
       style="display:inline;fill:#a351b3;fill-opacity:0.446809;stroke:#000000;stroke-width:0.23523"
       id="path5" /></g></svg>
