<?xml version="1.0" encoding="UTF-8" standalone="no"?>
<!-- Created with Inkscape (http://www.inkscape.org/) -->

<svg
   width="512"
   height="512"
   viewBox="0 0 512 512"
   version="1.1"
   id="svg1"
   inkscape:version="1.4.2 (f4327f4, 2025-05-13)"
   sodipodi:docname="tile_basic_B_inkscape.svg"
   xml:space="preserve"
   inkscape:export-filename="tile_basic_B_field.svg"
   inkscape:export-xdpi="96"
   inkscape:export-ydpi="96"
   xmlns:inkscape="http://www.inkscape.org/namespaces/inkscape"
   xmlns:sodipodi="http://sodipodi.sourceforge.net/DTD/sodipodi-0.dtd"
   xmlns:xlink="http://www.w3.org/1999/xlink"
   xmlns="http://www.w3.org/2000/svg"
   xmlns:svg="http://www.w3.org/2000/svg"><sodipodi:namedview
     id="namedview1"
     pagecolor="#ffffff"
     bordercolor="#000000"
     borderopacity="0.25"
     inkscape:showpageshadow="2"
     inkscape:pageopacity="0.0"
     inkscape:pagecheckerboard="0"
     inkscape:deskcolor="#d1d1d1"
     inkscape:document-units="px"
     labelstyle="default"
     inkscape:zoom="1.0396254"
     inkscape:cx="69.255715"
     inkscape:cy="323.67428"
     inkscape:window-width="2560"
     inkscape:window-height="1369"
     inkscape:window-x="-8"
     inkscape:window-y="-8"
     inkscape:window-maximized="1"
     inkscape:current-layer="layer1" /><defs
     id="defs1" /><g
     inkscape:label="background"
     inkscape:groupmode="layer"
     id="layer1"><image
       width="512"
       height="512"
       preserveAspectRatio="none"
       xlink:href="tile_basic_B.png"
       id="image1"
       x="0"
       y="0"
       inkscape:label="tile_basic_B"
       sodipodi:insensitive="true" /></g><g
     inkscape:groupmode="layer"
     id="layer2"
     inkscape:label="monastery"
     style="display:none"
     sodipodi:insensitive="true"><path
       d="m 237.82617,60.298828 v 8.608682 h -6.78515 v 3.145917 h 6.78515 v 14.589151 l -33.24609,72.279292 -16.77149,7.57422 v 1.44336 l 6.13086,3.99805 v 20.56055 l -13.70703,-7.69532 -12.86523,-6.01171 -12.74414,18.51562 -12.25782,14.64648 c 0,0 -5.39992,2.84748 -15.30468,8.07618 -9.90476,5.22869 -15.98336,10.54259 -16.06836,13.94336 -0.085,3.40078 2.87109,5.22851 2.87109,5.22851 v 83.8711 l 137.30859,77.43164 45.57032,-22.12305 c 0,0 17.19314,6.61446 30.29883,5.41211 13.10568,-1.20236 27.29296,-11.96485 27.29296,-11.96485 l -0.24023,-20.74023 33.00391,-18.69727 v -53.625 h 5.95312 v -1.62304 l -56.93164,-23.625 -7.57617,-12.26563 -49.83594,-22.72461 v -44.60742 l 5.78721,-2.53987 -0.059,-1.37018 L 271,164.13086 240.95312,86.158203 V 72.053427 h 7.38868 V 68.90751 h -7.38868 v -8.608682 z"
       style="fill:#a351b3;fill-opacity:0.446809;stroke:#000000;stroke-width:0.1;stroke-dasharray:none"
       id="path2"
       sodipodi:nodetypes="cccccccccccccccssccccscccccccccccccccccccc"
       inkscape:label="monastery" /></g><g
     inkscape:groupmode="layer"
     id="layer3"
     inkscape:label="field"
     style="display:none"
     sodipodi:insensitive="true"><rect
       style="display:inline;fill:#a351b3;fill-opacity:0.446809;stroke:#000000;stroke-width:0.23523;stroke-opacity:1"
       id="rect2"
       width="511.76477"
       height="511.76477"
       x="0.117615"
       y="-511.88239"
       transform="scale(1,-1)"
       inkscape:label="field" /></g><g
     inkscape:groupmode="layer"
     id="layer4"
     inkscape:label="cut"><path
       d="M 0.1171875,0.1171875 V 511.88281 H 511.88281 V 0.1171875 Z M 237.82617,60.298828 h 3.12695 v 8.609375 h 7.38868 v 3.144531 h -7.38868 V 86.158203 L 271,164.13086 l 13.43555,5.87891 0.0586,1.37109 -5.78711,2.53906 v 44.60742 l 49.83594,22.72461 7.57617,12.26563 56.93164,23.625 v 1.62304 h -5.95312 v 53.625 l -33.00391,18.69727 0.24023,20.74023 c 0,10e-6 -14.18728,10.76249 -27.29296,11.96485 -13.10569,1.20235 -30.29883,-5.41211 -30.29883,-5.41211 l -45.57032,22.12305 -137.30859,-77.43164 v -83.8711 c 0,0 -2.95609,-1.82773 -2.87109,-5.22851 0.085,-3.40077 6.1636,-8.71467 16.06836,-13.94336 9.90476,-5.2287 15.30468,-8.07618 15.30468,-8.07618 l 12.25782,-14.64648 12.74414,-18.51562 12.86523,6.01171 13.70703,7.69532 V 171.9375 l -6.13086,-3.99805 v -1.44336 l 16.77149,-7.57422 33.24609,-72.279292 V 72.052734 h -6.78515 v -3.144531 h 6.78515 z"
       style="display:inline;fill:#a351b3;fill-opacity:0.446809;stroke:#000000;stroke-width:0.23523"
       id="path5"
       inkscape:label="field" /><path
       d="m 237.82617,60.298828 v 8.609375 h -6.78515 v 3.144531 h 6.78515 v 14.589844 l -33.24609,72.279292 -16.77149,7.57422 v 1.44336 l 6.13086,3.99805 v 20.56055 l -13.70703,-7.69532 -12.86523,-6.01171 -12.74414,18.51562 -12.25782,14.64648 c 0,0 -5.39992,2.84748 -15.30468,8.07618 -9.90476,5.22869 -15.98336,10.54259 -16.06836,13.94336 -0.085,3.40078 2.87109,5.22851 2.87109,5.22851 v 83.8711 l 137.30859,77.43164 45.57032,-22.12305 c 0,0 17.19314,6.61446 30.29883,5.41211 13.10568,-1.20236 27.29296,-11.96484 27.29296,-11.96485 l -0.24023,-20.74023 33.00391,-18.69727 v -53.625 h 5.95312 v -1.62304 l -56.93164,-23.625 -7.57617,-12.26563 -49.83594,-22.72461 v -44.60742 l 5.78711,-2.53906 -0.0586,-1.37109 L 271,164.13086 240.95312,86.158203 V 72.052734 h 7.38868 v -3.144531 h -7.38868 v -8.609375 z"
       style="display:inline;fill:#a351b3;fill-opacity:0.446809;stroke:#000000;stroke-width:0.23523"
       id="path4"
       inkscape:label="monastery" /></g></svg>
