<?xml version="1.0" encoding="UTF-8" standalone="no"?>
<!-- Created with Inkscape (http://www.inkscape.org/) -->

<svg
   width="512"
   height="512"
   viewBox="0 0 512 512"
   version="1.1"
   id="svg1"
   xml:space="preserve"
   xmlns="http://www.w3.org/2000/svg"
   xmlns:svg="http://www.w3.org/2000/svg"><defs
     id="defs1" /><g
     id="layer4"><path
       d="m 237.82617,60.298828 v 8.609375 h -6.78515 v 3.144531 h 6.78515 v 14.589844 l -33.24609,72.279292 -16.77149,7.57422 v 1.44336 l 6.13086,3.99805 v 20.56055 l -13.70703,-7.69532 -12.86523,-6.01171 -12.74414,18.51562 -12.25782,14.64648 c 0,0 -5.39992,2.84748 -15.30468,8.07618 -9.90476,5.22869 -15.98336,10.54259 -16.06836,13.94336 -0.085,3.40078 2.87109,5.22851 2.87109,5.22851 v 83.8711 l 137.30859,77.43164 45.57032,-22.12305 c 0,0 17.19314,6.61446 30.29883,5.41211 13.10568,-1.20236 27.29296,-11.96484 27.29296,-11.96485 l -0.24023,-20.74023 33.00391,-18.69727 v -53.625 h 5.95312 v -1.62304 l -56.93164,-23.625 -7.57617,-12.26563 -49.83594,-22.72461 v -44.60742 l 5.78711,-2.53906 -0.0586,-1.37109 L 271,164.13086 240.95312,86.158203 V 72.052734 h 7.38868 v -3.144531 h -7.38868 v -8.609375 z"
       style="display:inline;fill:#a351b3;fill-opacity:0.446809;stroke:#000000;stroke-width:0.23523"
       id="path4" /></g></svg>
