<?xml version="1.0" encoding="UTF-8" standalone="no"?>
<!-- Created with Inkscape (http://www.inkscape.org/) -->

<svg
   width="512"
   height="512"
   viewBox="0 0 512 512"
   version="1.1"
   id="svg1"
   xml:space="preserve"
   xmlns="http://www.w3.org/2000/svg"
   xmlns:svg="http://www.w3.org/2000/svg"><defs
     id="defs1" /><g
     id="layer14"><path
       d="m 512.05078,511.21289 c -9.31411,-9.65339 -22.48517,-23.39321 -26.92969,-28.47266 -7.14163,-8.16186 -7.31171,-12.58243 -24.06054,-26.18554 -16.74882,-13.60311 -33.24219,-21 -33.24219,-21 v -7.99219 c 0,0 -4.08125,-5.18611 -10.88281,-5.78125 -6.80155,-0.59514 -11.3086,1.18945 -11.3086,1.18945 0,0 -7.56535,-5.69604 -19.04297,-11.73242 -11.47762,-6.03638 -26.10156,-12.66797 -26.10156,-12.66797 v -20.82812 c 0,0 -9.77649,-7.14338 -23.80469,-7.39844 -14.0282,-0.25506 -21.33984,5.86719 -21.33984,5.86719 0,0 -1.95572,-1.10547 -5.27148,-1.10547 -3.31576,0 -4.84766,2.04101 -4.84766,2.04101 v 2.04102 l -55.6875,13.51758 c 0,0 -2.80485,-9.60823 -18.19336,-9.86328 -15.38851,-0.25506 -19.89453,7.22656 -19.89453,7.22656 l -32.90234,-5.44141 c 0,0 -3.4019,-5.61039 -12.58399,-5.52539 -9.1821,0.085 -12.15625,4.76172 -12.15625,4.76172 0,0 -13.43364,1.02016 -28.99219,5.78125 -15.55856,4.76109 -23.81054,11.82227 -23.81054,11.82227 0,0 -6.251479,-3.60704 -14.667972,-3.00586 -8.416493,0.60118 -13.466797,5.89062 -13.466797,5.89062 v 5.77149 c 0,0 -10.221227,4.56885 -27.535156,24.88867 -12.043656,14.13457 -33.394302,49.79527 -45.27734375,70.19531 v 6.84375 H 512.05078 Z"
       style="fill:#a351b3;fill-opacity:0.446809;stroke:#000000;stroke-width:0.1"
       id="path7" /></g></svg>
