<?xml version="1.0" encoding="UTF-8" standalone="no"?>
<!-- Created with Inkscape (http://www.inkscape.org/) -->

<svg
   width="512"
   height="512"
   viewBox="0 0 512 512"
   version="1.1"
   id="svg1"
   xml:space="preserve"
   xmlns="http://www.w3.org/2000/svg"
   xmlns:svg="http://www.w3.org/2000/svg"><defs
     id="defs1" /><g
     id="layer14"><path
       d="M 512.05078,1.4140625 V 0.05078125 H 0.05078125 V 1.8535156 L 56.792969,78.8125 v 44.04102 c 0,0 8.07703,7.31158 22.445312,7.22656 14.368282,-0.085 22.615239,-5.95117 22.615239,-5.95117 0,0 18.02299,13.00787 25.75976,17.17382 7.73677,4.16596 32.13867,16.83399 32.13867,16.83399 v 17.68359 c 0,0 8.75744,6.03596 20.66016,6.29102 11.90272,0.25505 20.23437,-6.46094 20.23437,-6.46094 0,0 23.29548,4.07972 43.78516,4.58984 20.48968,0.51012 44.97461,0.68165 44.97461,0.68164 0,0 2.2096,2.29493 8.41602,2.29493 6.20641,0 8.07812,-2.97657 8.07812,-2.97657 v -3.23046 c 0,0 16.66272,-2.29476 32.81641,-6.80079 16.15369,-4.50603 28.22656,-7.39648 28.22656,-7.39648 0,0 7.05627,4.76047 18.95898,3.74023 11.90272,-1.02023 17.42969,-6.03515 17.42969,-6.03515 v -5.52735 c 0,0 11.98802,-1.87034 23.7207,-7.22656 11.73268,-5.35622 59.85352,-34.85742 59.85352,-34.85742 V 56.453125 c 0,0 -2.80581,-2.806289 -5.44141,-3.316406 -2.6356,-0.510116 -6.71679,-0.59375 -6.71679,-0.59375 v 2.548828 l -2.21094,-0.509766 -0.33984,-2.210937 c 0,0 8.93311,-13.066635 13.46289,-18.535157 6.0919,-7.354394 17.59299,-21.539424 26.39062,-32.4218745 z"
       style="fill:#a351b3;fill-opacity:0.446809;stroke:#000000;stroke-width:0.1"
       id="path5" /></g></svg>
