<?xml version="1.0" encoding="UTF-8" standalone="no"?>
<!-- Created with Inkscape (http://www.inkscape.org/) -->

<svg
   width="512"
   height="512"
   viewBox="0 0 512 512"
   version="1.1"
   id="svg1"
   inkscape:version="1.4.2 (f4327f4, 2025-05-13)"
   sodipodi:docname="tile_basic_H_inkscape.svg"
   xml:space="preserve"
   inkscape:export-filename="tile_basic_H_city_top.svg"
   inkscape:export-xdpi="96"
   inkscape:export-ydpi="96"
   xmlns:inkscape="http://www.inkscape.org/namespaces/inkscape"
   xmlns:sodipodi="http://sodipodi.sourceforge.net/DTD/sodipodi-0.dtd"
   xmlns:xlink="http://www.w3.org/1999/xlink"
   xmlns="http://www.w3.org/2000/svg"
   xmlns:svg="http://www.w3.org/2000/svg"><sodipodi:namedview
     id="namedview1"
     pagecolor="#ffffff"
     bordercolor="#000000"
     borderopacity="0.25"
     inkscape:showpageshadow="2"
     inkscape:pageopacity="0.0"
     inkscape:pagecheckerboard="0"
     inkscape:deskcolor="#d1d1d1"
     inkscape:document-units="px"
     labelstyle="default"
     inkscape:zoom="1.4702523"
     inkscape:cx="430.87842"
     inkscape:cy="278.52362"
     inkscape:window-width="2560"
     inkscape:window-height="1369"
     inkscape:window-x="-8"
     inkscape:window-y="-8"
     inkscape:window-maximized="1"
     inkscape:current-layer="layer14" /><defs
     id="defs1" /><g
     inkscape:label="Layer 1"
     inkscape:groupmode="layer"
     id="layer1"><image
       width="512"
       height="512"
       preserveAspectRatio="none"
       xlink:href="tile_basic_H.png"
       id="image1"
       x="0"
       y="0"
       inkscape:label="tile_basic_H"
       sodipodi:insensitive="true" /><path
       style="display:none;fill:#a351b3;fill-opacity:0.446809;stroke:#000000;stroke-width:0.1"
       d="M -7.8754328,-8.8974356 56.792972,78.813002 v 44.040058 c 0,0 8.076845,7.31167 22.445127,7.22665 14.368282,-0.085 22.615161,-5.95136 22.615161,-5.95136 0,0 18.02412,13.00797 25.76089,17.17392 7.73677,4.16596 32.13734,16.83385 32.13734,16.83385 v 17.68404 c 0,0 8.757,6.03638 20.65972,6.29144 11.90272,0.25505 20.23462,-6.46148 20.23462,-6.46148 0,0 23.29532,4.08093 43.785,4.59105 20.48968,0.51012 44.97527,0.68015 44.97527,0.68015 0,0 2.21051,2.29553 8.41693,2.29553 6.20641,0 8.07684,-2.97568 8.07684,-2.97568 v -3.23074 c 0,0 16.66381,-2.29552 32.8175,-6.80155 16.15369,-4.50603 28.22644,-7.39669 28.22644,-7.39669 0,0 7.05662,4.76109 18.95933,3.74085 11.90272,-1.02023 17.42899,-6.03638 17.42899,-6.03638 v -5.52626 c 0,0 11.98773,-1.87043 23.72041,-7.22665 11.73268,-5.35622 59.85367,-34.85796 59.85367,-34.85796 V 56.452894 c 0,0 -2.80564,-2.80564 -5.44124,-3.315757 -2.6356,-0.510116 -6.71653,-0.595136 -6.71653,-0.595136 v 2.550583 l -2.21051,-0.510117 -0.34008,-2.210505 c 0,0 8.9332,-13.06743 13.46298,-18.535951 10.72395,-12.946387 38.20575,-47.061929 38.20575,-47.061929 z"
       id="path1"
       sodipodi:nodetypes="cccscsccscscsccscsccsccsccccscc"
       inkscape:label="city_top" /><path
       style="display:none;fill:#a351b3;fill-opacity:0.446809;stroke:#000000;stroke-width:0.1"
       d="m -8.5367287,520.13927 c 0,0 36.5516267,-64.80699 53.8655557,-85.12681 17.313929,-20.31982 27.533956,-24.88877 27.533956,-24.88877 v -5.77131 c 0,0 5.049896,-5.29037 13.466389,-5.89155 8.416493,-0.60118 14.668748,3.00589 14.668748,3.00589 0,0 8.25203,-7.06163 23.81059,-11.82272 15.55855,-4.76109 28.99162,-5.78132 28.99162,-5.78132 0,0 2.97568,-4.67607 12.15778,-4.76109 9.18209,-0.085 12.58287,5.52626 12.58287,5.52626 l 32.90252,5.44125 c 0,0 4.50603,-7.48171 19.89454,-7.22665 15.38851,0.25505 18.19416,9.86225 18.19416,9.86225 l 55.68772,-13.51809 v -2.04047 c 0,0 1.53034,-2.04046 4.8461,-2.04046 3.31576,0 5.27121,1.10525 5.27121,1.10525 0,0 7.31167,-6.1214 21.33987,-5.86634 14.0282,0.25506 23.80544,7.39669 23.80544,7.39669 v 20.82976 c 0,0 14.62334,6.63151 26.10096,12.66789 11.47762,6.03638 19.04435,11.73268 19.04435,11.73268 0,0 4.50603,-1.78541 11.30758,-1.19027 6.80156,0.59514 10.88249,5.78132 10.88249,5.78132 v 7.99183 c 0,0 16.49377,7.39668 33.24259,20.99979 16.74883,13.60311 16.91886,18.02412 24.06049,26.18598 7.14163,8.16187 36.81342,38.68384 36.81342,38.68384 z"
       id="path2"
       sodipodi:nodetypes="csccscscsccscccscsccscsccsscc"
       inkscape:label="city_bottom" /><rect
       style="display:none;fill:#a351b3;fill-opacity:0.446809;stroke:#000000;stroke-width:0.1"
       id="rect3"
       width="512"
       height="512"
       x="0.050000001"
       y="0.050000001"
       inkscape:label="field" /></g><g
     inkscape:groupmode="layer"
     id="layer14"
     inkscape:label="cut"><path
       d="m 512.05078,511.21289 c -9.31411,-9.65339 -22.48517,-23.39321 -26.92969,-28.47266 -7.14163,-8.16186 -7.31171,-12.58243 -24.06054,-26.18554 -16.74882,-13.60311 -33.24219,-21 -33.24219,-21 v -7.99219 c 0,0 -4.08125,-5.18611 -10.88281,-5.78125 -6.80155,-0.59514 -11.3086,1.18945 -11.3086,1.18945 0,0 -7.56535,-5.69604 -19.04297,-11.73242 -11.47762,-6.03638 -26.10156,-12.66797 -26.10156,-12.66797 v -20.82812 c 0,0 -9.77649,-7.14338 -23.80469,-7.39844 -14.0282,-0.25506 -21.33984,5.86719 -21.33984,5.86719 0,0 -1.95572,-1.10547 -5.27148,-1.10547 -3.31576,0 -4.84766,2.04101 -4.84766,2.04101 v 2.04102 l -55.6875,13.51758 c 0,0 -2.80485,-9.60823 -18.19336,-9.86328 -15.38851,-0.25506 -19.89453,7.22656 -19.89453,7.22656 l -32.90234,-5.44141 c 0,0 -3.4019,-5.61039 -12.58399,-5.52539 -9.1821,0.085 -12.15625,4.76172 -12.15625,4.76172 0,0 -13.43364,1.02016 -28.99219,5.78125 -15.55856,4.76109 -23.81054,11.82227 -23.81054,11.82227 0,0 -6.251479,-3.60704 -14.667972,-3.00586 -8.416493,0.60118 -13.466797,5.89062 -13.466797,5.89062 v 5.77149 c 0,0 -10.221227,4.56885 -27.535156,24.88867 -12.043656,14.13457 -33.394302,49.79527 -45.27734375,70.19531 v 6.84375 H 512.05078 Z"
       style="fill:#a351b3;fill-opacity:0.446809;stroke:#000000;stroke-width:0.1"
       id="path7"
       inkscape:label="city_bottom" /><path
       d="m 512.05078,1.4140625 c -8.79763,10.8824505 -20.29872,25.0674805 -26.39062,32.4218745 -4.52978,5.468522 -13.46289,18.535157 -13.46289,18.535157 l 0.33984,2.210937 2.21094,0.509766 v -2.548828 c 0,0 4.08119,0.08363 6.71679,0.59375 2.6356,0.510117 5.44141,3.316406 5.44141,3.316406 v 56.453125 c 0,0 -48.12084,29.5012 -59.85352,34.85742 -11.73268,5.35622 -23.7207,7.22656 -23.7207,7.22656 v 5.52735 c 0,0 -5.52697,5.01492 -17.42969,6.03515 -11.90271,1.02024 -18.95898,-3.74023 -18.95898,-3.74023 0,0 -12.07287,2.89045 -28.22656,7.39648 -16.15369,4.50603 -32.81641,6.80079 -32.81641,6.80079 v 3.23046 c 0,0 -1.87171,2.97657 -8.07812,2.97657 -6.20642,0 -8.41602,-2.29493 -8.41602,-2.29493 0,10e-6 -24.48493,-0.17152 -44.97461,-0.68164 -20.48968,-0.51012 -43.78516,-4.58984 -43.78516,-4.58984 0,0 -8.33165,6.71599 -20.23437,6.46094 -11.90272,-0.25506 -20.66016,-6.29102 -20.66016,-6.29102 v -17.68359 c 0,0 -24.4019,-12.66803 -32.13867,-16.83399 -7.73677,-4.16595 -25.75976,-17.17382 -25.75976,-17.17382 0,0 -8.246957,5.86617 -22.615239,5.95117 -14.368282,0.085 -22.445312,-7.22656 -22.445312,-7.22656 V 78.8125 L 0.05078125,1.8535156 V 505.20703 C 11.933823,484.80699 33.284469,449.14629 45.328125,435.01172 62.642054,414.6919 72.863281,410.12305 72.863281,410.12305 v -5.77149 c 0,0 5.050304,-5.28944 13.466797,-5.89062 8.416493,-0.60118 14.667972,3.00586 14.667972,3.00586 0,0 8.25198,-7.06118 23.81054,-11.82227 15.55855,-4.76109 28.99219,-5.78125 28.99219,-5.78125 0,0 2.97415,-4.6767 12.15625,-4.76172 9.18209,-0.085 12.58399,5.52539 12.58399,5.52539 l 32.90234,5.44141 c 0,0 4.50602,-7.48162 19.89453,-7.22656 15.38851,0.25505 18.19336,9.86328 18.19336,9.86328 l 55.6875,-13.51758 v -2.04102 c 0,0 1.5319,-2.04101 4.84766,-2.04101 3.31576,0 5.27148,1.10547 5.27148,1.10547 0,0 7.31164,-6.12225 21.33984,-5.86719 14.0282,0.25506 23.80469,7.39844 23.80469,7.39844 v 20.82812 c 0,0 14.62394,6.63159 26.10156,12.66797 11.47762,6.03638 19.04297,11.73242 19.04297,11.73242 0,0 4.50705,-1.78459 11.3086,-1.18945 6.80156,0.59514 10.88281,5.78125 10.88281,5.78125 v 7.99219 c 0,0 16.49337,7.39689 33.24219,21 16.74883,13.60311 16.91891,18.02368 24.06054,26.18554 4.44452,5.07945 17.61558,18.81927 26.92969,28.47266 z"
       style="fill:#a351b3;fill-opacity:0.446809;stroke:#000000;stroke-width:0.1"
       id="path6"
       inkscape:label="field" /><path
       d="M 512.05078,1.4140625 V 0.05078125 H 0.05078125 V 1.8535156 L 56.792969,78.8125 v 44.04102 c 0,0 8.07703,7.31158 22.445312,7.22656 14.368282,-0.085 22.615239,-5.95117 22.615239,-5.95117 0,0 18.02299,13.00787 25.75976,17.17382 7.73677,4.16596 32.13867,16.83399 32.13867,16.83399 v 17.68359 c 0,0 8.75744,6.03596 20.66016,6.29102 11.90272,0.25505 20.23437,-6.46094 20.23437,-6.46094 0,0 23.29548,4.07972 43.78516,4.58984 20.48968,0.51012 44.97461,0.68165 44.97461,0.68164 0,0 2.2096,2.29493 8.41602,2.29493 6.20641,0 8.07812,-2.97657 8.07812,-2.97657 v -3.23046 c 0,0 16.66272,-2.29476 32.81641,-6.80079 16.15369,-4.50603 28.22656,-7.39648 28.22656,-7.39648 0,0 7.05627,4.76047 18.95898,3.74023 11.90272,-1.02023 17.42969,-6.03515 17.42969,-6.03515 v -5.52735 c 0,0 11.98802,-1.87034 23.7207,-7.22656 11.73268,-5.35622 59.85352,-34.85742 59.85352,-34.85742 V 56.453125 c 0,0 -2.80581,-2.806289 -5.44141,-3.316406 -2.6356,-0.510116 -6.71679,-0.59375 -6.71679,-0.59375 v 2.548828 l -2.21094,-0.509766 -0.33984,-2.210937 c 0,0 8.93311,-13.066635 13.46289,-18.535157 6.0919,-7.354394 17.59299,-21.539424 26.39062,-32.4218745 z"
       style="fill:#a351b3;fill-opacity:0.446809;stroke:#000000;stroke-width:0.1"
       id="path5"
       inkscape:label="city_top" /></g></svg>
