<?xml version="1.0" encoding="UTF-8" standalone="no"?>
<!-- Created with Inkscape (http://www.inkscape.org/) -->

<svg
   width="512"
   height="512"
   viewBox="0 0 512 512"
   version="1.1"
   id="svg1"
   xml:space="preserve"
   xmlns="http://www.w3.org/2000/svg"
   xmlns:svg="http://www.w3.org/2000/svg"><defs
     id="defs1" /><g
     id="layer23"
     style="display:inline"><path
       d="M 0.1953125,0.1953125 V 511.80469 H 236.94727 C 245.35132,459.1507 254.38839,454.23348 278.46484,429 c 24.67606,-25.8619 40.40064,-33.18454 40.16016,-56.0293 -0.24047,-22.84477 -18.75644,-49.05616 -30.05859,-65.4082 -8.92819,-12.91739 -16.83369,-21.16199 -38.95704,-33.18555 -22.12335,-12.02357 -49.05675,-23.56604 -68.77539,-43.76562 -19.71864,-20.19958 -40.86633,-58.672 -34.14648,-97.8711 7.21414,-42.082458 73.10394,-102.921865 78.63477,-110.857418 3.36076,-4.821961 8.0526,-12.6622726 12.13476,-21.6874995 z M 148.86133,277.83594 l 157.50781,72.3164 v 14.01172 l -122.63867,67.0918 H 172.1875 L 8.1855469,354.06445 8.4257813,341.32031 Z"
       style="fill:#a351b3;fill-opacity:0.446809;stroke:#000000;stroke-width:0.389848"
       id="path7" /></g></svg>
