<?xml version="1.0" encoding="UTF-8" standalone="no"?>
<!-- Created with Inkscape (http://www.inkscape.org/) -->

<svg
   width="512"
   height="512"
   viewBox="0 0 512 512"
   version="1.1"
   id="svg1"
   inkscape:version="1.4.2 (f4327f4, 2025-05-13)"
   sodipodi:docname="tile_basic_U_inkscape.svg"
   xml:space="preserve"
   inkscape:export-filename="tile_basic_U_G_garden.svg"
   inkscape:export-xdpi="96"
   inkscape:export-ydpi="96"
   xmlns:inkscape="http://www.inkscape.org/namespaces/inkscape"
   xmlns:sodipodi="http://sodipodi.sourceforge.net/DTD/sodipodi-0.dtd"
   xmlns:xlink="http://www.w3.org/1999/xlink"
   xmlns="http://www.w3.org/2000/svg"
   xmlns:svg="http://www.w3.org/2000/svg"><sodipodi:namedview
     id="namedview1"
     pagecolor="#ffffff"
     bordercolor="#000000"
     borderopacity="0.25"
     inkscape:showpageshadow="2"
     inkscape:pageopacity="0.0"
     inkscape:pagecheckerboard="0"
     inkscape:deskcolor="#d1d1d1"
     inkscape:document-units="px"
     labelstyle="default"
     inkscape:zoom="2.0792507"
     inkscape:cx="192.85793"
     inkscape:cy="322.95287"
     inkscape:window-width="2560"
     inkscape:window-height="1369"
     inkscape:window-x="-8"
     inkscape:window-y="-8"
     inkscape:window-maximized="1"
     inkscape:current-layer="layer23" /><defs
     id="defs1" /><g
     inkscape:label="Layer 1"
     inkscape:groupmode="layer"
     id="layer1"><image
       width="512"
       height="512"
       preserveAspectRatio="none"
       xlink:href="tile_basic_U_G.png"
       id="image1"
       x="0"
       y="0"
       sodipodi:insensitive="true"
       inkscape:label="tile_basic_U_G" /><path
       style="display:none;fill:#a351b3;fill-opacity:0.446809;stroke:#000000;stroke-width:0.1"
       d="m 234.69992,527.11294 c 9.15711,-67.24534 17.5378,-70.62388 43.76576,-98.11226 24.67606,-25.8619 40.39918,-33.18504 40.1587,-56.0298 -0.24047,-22.84477 -18.75676,-49.05614 -30.05891,-65.40818 -8.92819,-12.91739 -16.83298,-21.16146 -38.95633,-33.18502 -22.12335,-12.02357 -49.05613,-23.56619 -68.77477,-43.76577 -19.71864,-20.19958 -40.86677,-58.67269 -34.14692,-97.87179 7.21414,-42.082466 73.10326,-102.921687 78.63409,-110.857238 5.53084,-7.935551 14.66875,-24.0471231 18.75676,-40.158696 4.08801,-16.111572 32.70409,-16.592515 32.22314,-0.240471 -0.48094,16.352044 -2.78018,36.260087 -24.04711,63.243934 -22.36382,28.375605 -23.56619,24.528066 -40.1587,44.246707 -15.2369,18.107624 -28.85655,32.463614 -29.81844,53.625084 -0.96188,21.16147 5.53084,27.65419 8.4165,34.14692 2.88565,6.49272 4.56895,12.02355 8.89744,17.55439 4.32848,5.53084 23.63856,22.78749 48.33471,34.38739 21.86666,10.27088 48.82005,27.35493 62.04158,44.48718 14.32311,18.55966 51.70131,69.01524 51.46084,97.15038 -0.20348,23.80699 -26.93278,53.62508 -39.19681,64.68676 -12.26403,11.06167 -38.23493,17.79487 -48.57519,83.92446 -10.34026,66.12959 -38.95634,8.17602 -38.95634,8.17602 z"
       id="path1"
       sodipodi:nodetypes="csssssssssssssssssssc"
       inkscape:label="road"
       sodipodi:insensitive="true" /><rect
       style="display:none;fill:#a351b3;fill-opacity:0.446809;stroke:#000000;stroke-width:0.389848"
       id="rect1"
       width="511.61017"
       height="511.61014"
       x="0.19492431"
       y="0.19492431"
       inkscape:label="field"
       sodipodi:insensitive="true" /><path
       style="display:none;fill:#a351b3;fill-opacity:0.446809;stroke:#000000;stroke-width:0.1"
       d="m 8.4262059,341.31993 -0.24047,12.74498 164.0013641,77.19126 h 11.54263 L 306.37005,364.1647 V 350.15298 L 148.86139,277.83553 Z"
       id="path2"
       sodipodi:nodetypes="cccccccc"
       inkscape:label="garden"
       sodipodi:insensitive="true" /></g><g
     inkscape:groupmode="layer"
     id="layer23"
     inkscape:label="cut"
     style="display:inline"><path
       d="m 274.37695,0.1953125 c -2.51459,12.5081475 -8.33036,27.0328085 -22.12304,44.5332035 -22.36382,28.375605 -23.5657,24.527452 -40.15821,44.246093 -15.2369,18.107621 -28.85647,32.463531 -29.81836,53.625001 -0.96188,21.16147 5.53036,27.65375 8.41602,34.14648 2.88565,6.49272 4.56995,12.02385 8.89844,17.55469 4.32848,5.53084 23.63783,22.78682 48.33398,34.38672 21.86666,10.27088 48.81949,27.35603 62.04102,44.48828 14.32311,18.55966 51.7014,69.01525 51.46093,97.15039 -0.20348,23.80699 -26.93128,53.62387 -39.19531,64.68555 -11.80813,10.65047 -36.32364,17.28866 -47.35937,76.79297 H 511.80469 V 0.1953125 Z"
       style="fill:#a351b3;fill-opacity:0.446809;stroke:#000000;stroke-width:0.389848"
       id="path5"
       inkscape:label="field_right" /><path
       d="M 148.86133,277.83594 8.4257813,341.32031 8.1855469,354.06445 172.1875,431.25586 h 11.54297 l 122.63867,-67.0918 v -14.01172 z"
       style="fill:#a351b3;fill-opacity:0.446809;stroke:#000000;stroke-width:0.389848"
       id="path8"
       inkscape:label="garden" /><path
       d="M 0.1953125,0.1953125 V 511.80469 H 236.94727 C 245.35132,459.1507 254.38839,454.23348 278.46484,429 c 24.67606,-25.8619 40.40064,-33.18454 40.16016,-56.0293 -0.24047,-22.84477 -18.75644,-49.05616 -30.05859,-65.4082 -8.92819,-12.91739 -16.83369,-21.16199 -38.95704,-33.18555 -22.12335,-12.02357 -49.05675,-23.56604 -68.77539,-43.76562 -19.71864,-20.19958 -40.86633,-58.672 -34.14648,-97.8711 7.21414,-42.082458 73.10394,-102.921865 78.63477,-110.857418 3.36076,-4.821961 8.0526,-12.6622726 12.13476,-21.6874995 z M 148.86133,277.83594 l 157.50781,72.3164 v 14.01172 l -122.63867,67.0918 H 172.1875 L 8.1855469,354.06445 8.4257813,341.32031 Z"
       style="fill:#a351b3;fill-opacity:0.446809;stroke:#000000;stroke-width:0.389848"
       id="path7"
       inkscape:label="field_left" /><path
       d="m 274.37695,0.1953125 h -36.91992 c -4.08216,9.0252269 -8.774,16.8655385 -12.13476,21.6874995 -5.53083,7.935552 -71.42063,68.774956 -78.63477,110.857418 -6.71985,39.1991 14.42784,77.67152 34.14648,97.8711 19.71864,20.19958 46.65204,31.74205 68.77539,43.76562 22.12335,12.02356 30.02885,20.26816 38.95704,33.18555 11.30215,16.35204 29.81812,42.56343 30.05859,65.4082 0.24048,22.84476 -15.4841,30.1674 -40.16016,56.0293 -24.07645,25.23348 -33.11352,30.1507 -41.51757,82.80469 h 37.92578 c 11.03573,-59.50431 35.55124,-66.1425 47.35937,-76.79297 12.26403,-11.06168 38.99183,-40.87856 39.19531,-64.68555 0.24047,-28.13514 -37.13782,-78.59073 -51.46093,-97.15039 -13.22153,-17.13225 -40.17436,-34.2174 -62.04102,-44.48828 -24.69615,-11.5999 -44.0055,-28.85588 -48.33398,-34.38672 -4.32849,-5.53084 -6.01279,-11.06197 -8.89844,-17.55469 -2.88566,-6.49273 -9.3779,-12.98501 -8.41602,-34.14648 0.96189,-21.16147 14.58146,-35.51738 29.81836,-53.625001 16.59251,-19.718641 17.79439,-15.870488 40.15821,-44.246093 13.79268,-17.500395 19.60845,-32.025056 22.12304,-44.5332035 z"
       style="fill:#a351b3;fill-opacity:0.446809;stroke:#000000;stroke-width:0.389848"
       id="path3"
       inkscape:label="road" /></g></svg>
