<?xml version="1.0" encoding="UTF-8" standalone="no"?>
<!-- Created with Inkscape (http://www.inkscape.org/) -->

<svg
   width="512"
   height="512"
   viewBox="0 0 512 512"
   version="1.1"
   id="svg1"
   inkscape:version="1.4.2 (f4327f4, 2025-05-13)"
   sodipodi:docname="tile_basic_D_inkscape.svg"
   xml:space="preserve"
   inkscape:export-filename="tile_basic_D_city.svg"
   inkscape:export-xdpi="96"
   inkscape:export-ydpi="96"
   xmlns:inkscape="http://www.inkscape.org/namespaces/inkscape"
   xmlns:sodipodi="http://sodipodi.sourceforge.net/DTD/sodipodi-0.dtd"
   xmlns:xlink="http://www.w3.org/1999/xlink"
   xmlns="http://www.w3.org/2000/svg"
   xmlns:svg="http://www.w3.org/2000/svg"><sodipodi:namedview
     id="namedview1"
     pagecolor="#ffffff"
     bordercolor="#000000"
     borderopacity="0.25"
     inkscape:showpageshadow="2"
     inkscape:pageopacity="0.0"
     inkscape:pagecheckerboard="0"
     inkscape:deskcolor="#d1d1d1"
     inkscape:document-units="px"
     labelstyle="default"
     inkscape:zoom="1.4702523"
     inkscape:cx="97.262218"
     inkscape:cy="263.56021"
     inkscape:window-width="2560"
     inkscape:window-height="1369"
     inkscape:window-x="-8"
     inkscape:window-y="-8"
     inkscape:window-maximized="1"
     inkscape:current-layer="layer1" /><defs
     id="defs1" /><g
     inkscape:label="background"
     inkscape:groupmode="layer"
     id="layer1"><image
       width="512"
       height="512"
       preserveAspectRatio="none"
       xlink:href="tile_basic_D.png"
       id="image1"
       x="0"
       y="0"
       inkscape:label="tile_basic_D"
       sodipodi:insensitive="true" /></g><g
     inkscape:groupmode="layer"
     id="layer6"
     inkscape:label="road"
     style="display:none"><path
       style="display:inline;fill:#a351b3;fill-opacity:0.446809;stroke:#000000;stroke-width:0.1"
       d="m -6.1213982,237.03414 c 32.8174952,1.36031 61.1289622,9.09709 93.1812832,25.16576 32.052315,16.06867 56.112815,39.449 91.140815,39.78908 23.30415,0.22625 65.91347,-9.04784 89.06447,-24.741 16.57657,-11.23662 39.65493,-18.6189 64.82069,-16.23836 53.64753,5.07475 60.36378,-1.87043 81.61863,-11.39261 28.77119,-12.8895 66.82527,-15.13345 103.04354,-12.75291 36.21827,2.38055 47.2708,38.9389 -0.68016,37.57859 -47.95095,-1.36032 -69.03576,-2.72062 -106.10423,12.41283 -37.06847,15.13346 -44.38014,13.60311 -64.7848,12.75291 -20.40466,-0.85019 -32.81749,-3.0607 -76.1774,14.96342 -43.3599,18.02412 -64.61476,21.08482 -89.10035,21.76497 -24.48559,0.68016 -49.97163,-10.91588 -88.760273,-35.028 -24.667676,-15.33412 -68.185574,-29.75679 -97.2622151,-29.92683 -29.0766419,-0.17004 -10e-8,-34.34785 -10e-8,-34.34785 z"
       id="path1"
       sodipodi:nodetypes="csssssssssssssc"
       inkscape:label="road" /></g><g
     inkscape:groupmode="layer"
     id="layer7"
     inkscape:label="city"
     style="display:none"><path
       style="fill:#a351b3;fill-opacity:0.446809;stroke:#000000;stroke-width:0.1"
       d="M -6.2793527,-7.9249324 C 31.097944,39.246258 50.859665,60.718986 83.323282,77.191265 l 0.240471,7.574844 c 0,0 6.080931,4.785403 9.739086,5.530838 3.439116,0.700801 10.460501,-1.202356 10.460501,-1.202356 8.8862,1.904186 47.25259,25.249479 47.25259,25.249479 v 19.95911 c 0,0 9.55874,7.21414 20.50018,7.21414 15.8711,0 24.46794,-4.14813 24.46794,-4.14813 0,0 4.46862,-0.31503 6.13202,-0.96189 1.66339,-0.64685 4.08801,-2.58506 4.08801,-2.58506 9.58217,-1.06239 56.39905,-10.34026 56.39905,-10.34026 0,0 5.883,8.41649 19.83033,7.0939 13.94733,-1.32259 17.87739,-8.7274 17.87739,-8.7274 l 33.14627,6.69798 c 0,0 2.72166,5.75672 12.34051,5.51625 9.61885,-0.24047 12.74498,-5.17013 12.74498,-5.17013 0,0 9.25814,1.80353 26.09113,-4.56895 16.83298,-6.37249 26.33159,-11.78309 26.33159,-11.78309 0,0 6.0517,2.73226 15.14969,1.08212 11.73829,-2.12903 13.18216,-8.42858 13.18216,-8.42858 0,0 10.50426,-4.79734 21.08499,-18.744672 10.58074,-13.947332 62.28205,-97.511085 62.28205,-97.511085 z"
       id="path3"
       sodipodi:nodetypes="cccasccsczccsccscscscscc"
       inkscape:label="city" /></g><g
     inkscape:groupmode="layer"
     id="layer8"
     inkscape:label="field"
     style="display:none"><rect
       style="display:inline;fill:#a351b3;fill-opacity:0.446809;stroke:#000000;stroke-width:0.23523;stroke-opacity:1"
       id="rect3"
       width="511.76477"
       height="511.76477"
       x="0.117615"
       y="-511.88239"
       transform="scale(1,-1)"
       inkscape:label="field" /></g><g
     inkscape:groupmode="layer"
     id="layer9"
     inkscape:label="cut"><path
       d="m 511.88281,274.32227 c -45.02674,-1.30608 -65.94786,-2.15263 -101.91992,12.5332 -37.06847,15.13346 -44.37854,13.60411 -64.7832,12.7539 -20.40466,-0.85019 -32.81783,-3.06122 -76.17774,14.9629 -43.3599,18.02412 -64.61597,21.08352 -89.10156,21.76367 C 155.4148,337.0161 129.92927,325.42071 91.140625,301.30859 68.18162,287.03663 28.893135,273.5536 0.1171875,271.61719 V 511.88281 H 511.88281 Z"
       style="display:inline;fill:#a351b3;fill-opacity:0.446809;stroke:#000000;stroke-width:0.23523"
       id="path10"
       inkscape:label="field_bottom" /><path
       d="m 511.88281,236.57227 c -34.73526,-1.86782 -70.69229,0.73143 -98.17773,13.04492 -21.25485,9.52218 -27.97161,16.46733 -81.61914,11.39258 -25.16576,-2.38054 -48.24375,5.00166 -64.82032,16.23828 -23.15099,15.69316 -65.7603,24.96648 -89.06445,24.74023 -35.028,-0.34008 -59.08831,-23.72039 -91.140623,-39.78906 C 57.056682,247.15749 30.329707,239.41684 0.1171875,237.37305 v 34.24414 c 28.7759475,1.93641 68.0644325,15.41944 91.0234375,29.6914 38.788645,24.11212 64.274175,35.70751 88.759765,35.02735 24.48559,-0.68015 45.74166,-3.73955 89.10156,-21.76367 43.35991,-18.02412 55.77308,-15.81309 76.17774,-14.9629 20.40466,0.85021 27.71473,2.37956 64.7832,-12.7539 35.97206,-14.68583 56.89318,-13.83928 101.91992,-12.5332 z"
       style="display:inline;fill:#a351b3;fill-opacity:0.446809;stroke:#000000;stroke-width:0.23523"
       id="path9"
       inkscape:label="road" /><path
       d="m 511.88281,6.2871094 c -15.74839,25.2654406 -43.9879,70.2598026 -51.5,80.1621096 -10.58073,13.947331 -21.08594,18.744141 -21.08594,18.744141 0,0 -1.44335,6.30066 -13.18164,8.42969 -9.09799,1.65014 -15.15039,-1.08203 -15.15039,-1.08203 0,0 -9.49905,5.41071 -26.33203,11.7832 -16.83299,6.37248 -26.08984,4.56836 -26.08984,4.56836 0,0 -3.12725,4.92945 -12.7461,5.16992 -9.61885,0.24047 -12.33984,-5.51563 -12.33984,-5.51563 l -33.14648,-6.69921 c 0,0 -3.92963,7.40592 -17.87696,8.72851 -13.94733,1.32259 -19.83007,-7.09375 -19.83007,-7.09375 0,0 -46.81823,9.27746 -56.4004,10.33985 0,0 -2.4245,1.93908 -4.08789,2.58593 -1.6634,0.64686 -6.13086,0.96094 -6.13086,0.96094 0,0 -8.59764,4.14844 -24.46875,4.14844 -10.94144,0 -20.5,-7.21485 -20.5,-7.21485 v -19.95898 c 10e-6,0 -38.36575,-23.345814 -47.25195,-25.25 0,0 -7.02182,1.903926 -10.460936,1.203125 -3.658155,-0.745435 -9.738281,-5.53125 -9.738281,-5.53125 L 83.324219,77.191406 C 52.765521,61.685698 33.461305,41.748593 0.125,0.1171875 H 0.1171875 V 237.37305 c 30.2125195,2.04379 56.9394945,9.78444 86.9433595,24.82617 32.052313,16.06867 56.112623,39.44898 91.140623,39.78906 23.30415,0.22625 65.91346,-9.04707 89.06445,-24.74023 16.57657,-11.23662 39.65456,-18.61882 64.82032,-16.23828 53.64753,5.07475 60.36429,-1.8704 81.61914,-11.39258 27.48544,-12.31349 63.44247,-14.91274 98.17773,-13.04492 z"
       style="display:inline;fill:#a351b3;fill-opacity:0.446809;stroke:#000000;stroke-width:0.23523"
       id="path8"
       inkscape:label="field_top" /><path
       d="M 511.88281,6.2871094 V 0.1171875 H 0.125 C 33.461305,41.748593 52.765521,61.685698 83.324219,77.191406 l 0.240234,7.574219 c 0,0 6.080126,4.785815 9.738281,5.53125 3.439116,0.700801 10.460936,-1.203125 10.460936,-1.203125 8.8862,1.904186 47.25196,25.25 47.25195,25.25 v 19.95898 c 0,0 9.55856,7.21485 20.5,7.21485 15.87111,0 24.46875,-4.14844 24.46875,-4.14844 0,0 4.46746,-0.31408 6.13086,-0.96094 1.66339,-0.64685 4.08789,-2.58593 4.08789,-2.58593 9.58217,-1.06239 56.4004,-10.33985 56.4004,-10.33985 0,0 5.88274,8.41634 19.83007,7.09375 13.94733,-1.32259 17.87696,-8.72851 17.87696,-8.72851 l 33.14648,6.69921 c 0,0 2.72099,5.7561 12.33984,5.51563 9.61885,-0.24047 12.7461,-5.16992 12.7461,-5.16992 0,0 9.25685,1.80412 26.08984,-4.56836 16.83298,-6.37249 26.33203,-11.7832 26.33203,-11.7832 0,0 6.0524,2.73217 15.15039,1.08203 11.73829,-2.12903 13.18164,-8.42969 13.18164,-8.42969 0,0 10.50521,-4.79681 21.08594,-18.744141 7.5121,-9.902307 35.75161,-54.896669 51.5,-80.1621096 z"
       style="display:inline;fill:#a351b3;fill-opacity:0.446809;stroke:#000000;stroke-width:0.23523"
       id="path7"
       inkscape:label="city" /></g></svg>
