<?xml version="1.0" encoding="UTF-8" standalone="no"?>
<!-- Created with Inkscape (http://www.inkscape.org/) -->

<svg
   width="512"
   height="512"
   viewBox="0 0 512 512"
   version="1.1"
   id="svg1"
   xml:space="preserve"
   xmlns="http://www.w3.org/2000/svg"
   xmlns:svg="http://www.w3.org/2000/svg"><defs
     id="defs1" /><g
     id="layer9"><path
       d="M 511.88281,6.2871094 V 0.1171875 H 0.125 C 33.461305,41.748593 52.765521,61.685698 83.324219,77.191406 l 0.240234,7.574219 c 0,0 6.080126,4.785815 9.738281,5.53125 3.439116,0.700801 10.460936,-1.203125 10.460936,-1.203125 8.8862,1.904186 47.25196,25.25 47.25195,25.25 v 19.95898 c 0,0 9.55856,7.21485 20.5,7.21485 15.87111,0 24.46875,-4.14844 24.46875,-4.14844 0,0 4.46746,-0.31408 6.13086,-0.96094 1.66339,-0.64685 4.08789,-2.58593 4.08789,-2.58593 9.58217,-1.06239 56.4004,-10.33985 56.4004,-10.33985 0,0 5.88274,8.41634 19.83007,7.09375 13.94733,-1.32259 17.87696,-8.72851 17.87696,-8.72851 l 33.14648,6.69921 c 0,0 2.72099,5.7561 12.33984,5.51563 9.61885,-0.24047 12.7461,-5.16992 12.7461,-5.16992 0,0 9.25685,1.80412 26.08984,-4.56836 16.83298,-6.37249 26.33203,-11.7832 26.33203,-11.7832 0,0 6.0524,2.73217 15.15039,1.08203 11.73829,-2.12903 13.18164,-8.42969 13.18164,-8.42969 0,0 10.50521,-4.79681 21.08594,-18.744141 7.5121,-9.902307 35.75161,-54.896669 51.5,-80.1621096 z"
       style="display:inline;fill:#a351b3;fill-opacity:0.446809;stroke:#000000;stroke-width:0.23523"
       id="path7" /></g></svg>
