<?xml version="1.0" encoding="UTF-8" standalone="no"?>
<!-- Created with Inkscape (http://www.inkscape.org/) -->

<svg
   width="512"
   height="512"
   viewBox="0 0 512 512"
   version="1.1"
   id="svg1"
   xml:space="preserve"
   xmlns="http://www.w3.org/2000/svg"
   xmlns:svg="http://www.w3.org/2000/svg"><defs
     id="defs1" /><g
     id="layer9"><path
       d="m 511.88281,6.2871094 c -15.74839,25.2654406 -43.9879,70.2598026 -51.5,80.1621096 -10.58073,13.947331 -21.08594,18.744141 -21.08594,18.744141 0,0 -1.44335,6.30066 -13.18164,8.42969 -9.09799,1.65014 -15.15039,-1.08203 -15.15039,-1.08203 0,0 -9.49905,5.41071 -26.33203,11.7832 -16.83299,6.37248 -26.08984,4.56836 -26.08984,4.56836 0,0 -3.12725,4.92945 -12.7461,5.16992 -9.61885,0.24047 -12.33984,-5.51563 -12.33984,-5.51563 l -33.14648,-6.69921 c 0,0 -3.92963,7.40592 -17.87696,8.72851 -13.94733,1.32259 -19.83007,-7.09375 -19.83007,-7.09375 0,0 -46.81823,9.27746 -56.4004,10.33985 0,0 -2.4245,1.93908 -4.08789,2.58593 -1.6634,0.64686 -6.13086,0.96094 -6.13086,0.96094 0,0 -8.59764,4.14844 -24.46875,4.14844 -10.94144,0 -20.5,-7.21485 -20.5,-7.21485 v -19.95898 c 10e-6,0 -38.36575,-23.345814 -47.25195,-25.25 0,0 -7.02182,1.903926 -10.460936,1.203125 -3.658155,-0.745435 -9.738281,-5.53125 -9.738281,-5.53125 L 83.324219,77.191406 C 52.765521,61.685698 33.461305,41.748593 0.125,0.1171875 H 0.1171875 V 237.37305 c 30.2125195,2.04379 56.9394945,9.78444 86.9433595,24.82617 32.052313,16.06867 56.112623,39.44898 91.140623,39.78906 23.30415,0.22625 65.91346,-9.04707 89.06445,-24.74023 16.57657,-11.23662 39.65456,-18.61882 64.82032,-16.23828 53.64753,5.07475 60.36429,-1.8704 81.61914,-11.39258 27.48544,-12.31349 63.44247,-14.91274 98.17773,-13.04492 z"
       style="display:inline;fill:#a351b3;fill-opacity:0.446809;stroke:#000000;stroke-width:0.23523"
       id="path8" /></g></svg>
