<?xml version="1.0" encoding="UTF-8" standalone="no"?>
<!-- Created with Inkscape (http://www.inkscape.org/) -->

<svg
   width="512"
   height="512"
   viewBox="0 0 512 512"
   version="1.1"
   id="svg1"
   xml:space="preserve"
   xmlns="http://www.w3.org/2000/svg"
   xmlns:svg="http://www.w3.org/2000/svg"><defs
     id="defs1" /><g
     id="layer9"><path
       d="m 511.88281,236.57227 c -34.73526,-1.86782 -70.69229,0.73143 -98.17773,13.04492 -21.25485,9.52218 -27.97161,16.46733 -81.61914,11.39258 -25.16576,-2.38054 -48.24375,5.00166 -64.82032,16.23828 -23.15099,15.69316 -65.7603,24.96648 -89.06445,24.74023 -35.028,-0.34008 -59.08831,-23.72039 -91.140623,-39.78906 C 57.056682,247.15749 30.329707,239.41684 0.1171875,237.37305 v 34.24414 c 28.7759475,1.93641 68.0644325,15.41944 91.0234375,29.6914 38.788645,24.11212 64.274175,35.70751 88.759765,35.02735 24.48559,-0.68015 45.74166,-3.73955 89.10156,-21.76367 43.35991,-18.02412 55.77308,-15.81309 76.17774,-14.9629 20.40466,0.85021 27.71473,2.37956 64.7832,-12.7539 35.97206,-14.68583 56.89318,-13.83928 101.91992,-12.5332 z"
       style="display:inline;fill:#a351b3;fill-opacity:0.446809;stroke:#000000;stroke-width:0.23523"
       id="path9" /></g></svg>
