<?xml version="1.0" encoding="UTF-8" standalone="no"?>
<!-- Created with Inkscape (http://www.inkscape.org/) -->

<svg
   width="512"
   height="512"
   viewBox="0 0 512 512"
   version="1.1"
   id="svg1"
   xml:space="preserve"
   xmlns="http://www.w3.org/2000/svg"
   xmlns:svg="http://www.w3.org/2000/svg"><defs
     id="defs1" /><g
     id="layer25"><path
       d="m 247.42383,326.41992 c -4.36465,0.15271 -9.58446,0.86735 -15.83008,2.26563 -2.7698,0.6201 -5.23147,1.57453 -7.39453,2.79297 -14.51493,8.17611 -15.64372,28.25609 -7.06055,39.20703 0.82093,1.04739 1.68005,2.06984 2.57422,3.07226 9.84801,11.04022 24.00721,19.4853 39.5957,28.21485 17.00388,9.52218 31.08806,14.11145 31.28711,21.2539 0.19422,6.96928 -15.98287,18.36408 -26.69531,28.56641 -9.93014,9.45728 -23.65873,27.8283 -27.64258,60.25781 h 39.91797 c 12.98283,-37.02038 63.81207,-54.54844 62.37109,-88.6543 -1.00414,-23.76681 -30.6061,-34.51744 -63.76367,-54.58203 -7.30125,-4.41819 -3.75949,-17.79453 -5.71289,-28.35937 -0.79185,-4.2827 -2.48705,-8.10278 -6.17383,-10.67774 -3.30078,-2.30536 -8.19823,-3.61194 -15.47265,-3.35742 z"
       style="fill:#a351b3;fill-opacity:0.446809;stroke:#000000;stroke-width:0.1"
       id="path33" /></g></svg>
