<?xml version="1.0" encoding="UTF-8" standalone="no"?>
<!-- Created with Inkscape (http://www.inkscape.org/) -->

<svg
   width="512"
   height="512"
   viewBox="0 0 512 512"
   version="1.1"
   id="svg1"
   xml:space="preserve"
   xmlns="http://www.w3.org/2000/svg"
   xmlns:svg="http://www.w3.org/2000/svg"><defs
     id="defs1" /><g
     id="layer25"><path
       d="m 236.25781,512.05078 c 3.98385,-32.42951 17.71244,-50.80053 27.64258,-60.25781 10.71244,-10.20233 26.88953,-21.59713 26.69531,-28.56641 -0.19905,-7.14245 -14.28323,-11.73172 -31.28711,-21.2539 -15.58849,-8.72955 -29.74769,-17.17463 -39.5957,-28.21485 -1.93074,2.75264 -4.25051,5.42203 -6.99414,7.97852 -12.63159,11.76998 -35.70758,19.64131 -47.69531,20.0664 -11.98774,0.4251 -12.66812,0.59447 -19.55469,-1.87109 -6.88657,-2.46557 -13.85914,-5.18656 -24.14648,-6.54687 -10.28735,-1.36031 -14.28217,-4.42055 -24.314458,-9.18165 -10.032289,-4.76108 -23.635431,-12.24249 -25.505859,-14.62304 -1.870427,-2.38054 0.254223,-7.90758 2.634766,-11.64844 2.380544,-3.74085 9.692507,-6.29074 13.773437,-9.52148 4.08094,-3.23074 1.020751,-3.91161 4.931641,-7.48243 2.494059,-2.27719 8.306603,-6.21397 12.191403,-8.76757 0.0766,-2.5399 0.15039,-4.70313 0.15039,-4.70313 l -2.94531,-0.96094 c 0,0 3.54541,-3.66883 5.5293,-6.2539 1.98389,-2.58506 5.65234,-7.75391 5.65234,-7.75391 l 19.23633,-9.49805 c 0,0 1.77339,2.19233 3.90625,4.52149 3.67832,-1.60588 8.27628,-3.61263 12.29883,-5.36914 l -16.14258,-14.52735 c -9.30335,-3.0379 -23.206,-9.9266 -45.609375,-14.53906 -39.780306,-8.19006 -67.580802,-3.82247 -87.05859375,-0.21094 v 239.18555 z"
       style="fill:#a351b3;fill-opacity:0.446809;stroke:#000000;stroke-width:0.1"
       id="path32" /></g></svg>
