<?xml version="1.0" encoding="UTF-8" standalone="no"?>
<!-- Created with Inkscape (http://www.inkscape.org/) -->

<svg
   width="512"
   height="512"
   viewBox="0 0 512 512"
   version="1.1"
   id="svg1"
   xml:space="preserve"
   xmlns="http://www.w3.org/2000/svg"
   xmlns:svg="http://www.w3.org/2000/svg"><defs
     id="defs1" /><g
     id="layer25"><path
       d="m 512.05078,276.01367 c -75.49731,24.84415 -106.1667,13.29568 -119.8418,8.22266 -14.90922,-5.53084 -15.63132,-7.45401 -38.95703,3.36719 -6.67382,3.0961 -12.89535,4.46067 -18.31445,4.05273 l 6.92578,9.39844 -4.16601,2.71875 v 6.12304 c 8.49153,4.36484 14.73686,7.69737 15.8125,8.58594 3.91089,3.23074 5.44155,5.61219 2.38085,10.0332 -3.06069,4.42101 -28.05497,15.98376 -33.32617,19.72461 -5.2712,3.74085 -22.78515,8.8418 -22.78515,8.8418 l -30.70899,-16.62695 c 1.9534,10.56484 -1.58836,23.94118 5.71289,28.35937 33.15757,20.06459 62.75953,30.81522 63.76367,54.58203 1.44098,34.10586 -49.38826,51.63392 -62.37109,88.6543 h 235.875 z"
       style="fill:#a351b3;fill-opacity:0.446809;stroke:#000000;stroke-width:0.1"
       id="path36" /></g></svg>
