<?xml version="1.0" encoding="UTF-8" standalone="no"?>
<!-- Created with Inkscape (http://www.inkscape.org/) -->

<svg
   width="512"
   height="512"
   viewBox="0 0 512 512"
   version="1.1"
   id="svg1"
   inkscape:version="1.4.2 (f4327f4, 2025-05-13)"
   sodipodi:docname="tile_basic_W_inkscape.svg"
   xml:space="preserve"
   inkscape:export-filename="tile_basic_W_road_bottom.svg"
   inkscape:export-xdpi="96"
   inkscape:export-ydpi="96"
   xmlns:inkscape="http://www.inkscape.org/namespaces/inkscape"
   xmlns:sodipodi="http://sodipodi.sourceforge.net/DTD/sodipodi-0.dtd"
   xmlns:xlink="http://www.w3.org/1999/xlink"
   xmlns="http://www.w3.org/2000/svg"
   xmlns:svg="http://www.w3.org/2000/svg"><sodipodi:namedview
     id="namedview1"
     pagecolor="#ffffff"
     bordercolor="#000000"
     borderopacity="0.25"
     inkscape:showpageshadow="2"
     inkscape:pageopacity="0.0"
     inkscape:pagecheckerboard="0"
     inkscape:deskcolor="#d1d1d1"
     inkscape:document-units="px"
     labelstyle="default"
     inkscape:zoom="2.0792508"
     inkscape:cx="211.85515"
     inkscape:cy="275.33956"
     inkscape:window-width="2560"
     inkscape:window-height="1369"
     inkscape:window-x="-8"
     inkscape:window-y="-8"
     inkscape:window-maximized="1"
     inkscape:current-layer="layer25" /><defs
     id="defs1" /><g
     inkscape:label="Layer 1"
     inkscape:groupmode="layer"
     id="layer1"><image
       width="512"
       height="512"
       preserveAspectRatio="none"
       xlink:href="tile_basic_W.png"
       id="image1"
       x="0"
       y="0"
       inkscape:label="tile_basic_W"
       sodipodi:insensitive="true" /><path
       style="display:none;fill:#a351b3;fill-opacity:0.446809;stroke:#000000;stroke-width:0.1"
       d="m 165.87288,179.90109 12.2428,-14.19824 c 0,0 4.84611,-1.10526 12.58287,-4.93113 7.73677,-3.82588 31.45719,-15.38851 31.45719,-15.38851 l 21.50991,32.39239 h 1.78541 l 12.15777,9.86226 -2.55058,1.95544 0.25506,13.51809 -51.60679,26.78112 -36.04823,-19.46945 0.40814,-30.73533 -1.95383,1.08212 z"
       id="path4"
       sodipodi:nodetypes="ccsccccccccccc"
       inkscape:label="house_2"
       sodipodi:insensitive="true" /><path
       style="display:none;fill:#a351b3;fill-opacity:0.446809;stroke:#000000;stroke-width:0.1"
       d="m 92.416106,186.78766 c 0,0 3.65584,-3.14572 6.97159,-7.48171 3.315754,-4.33599 7.118104,-10.49954 7.118104,-10.49954 0,0 8.50667,4.3886 14.21786,6.73319 5.71119,2.34459 15.11963,5.95166 15.11963,5.95166 l 12.08368,12.86521 -0.48095,1.53301 -3.42671,-0.511 v 13.37621 l -21.59135,12.89094 -27.121194,-14.28327 0.1073,-19.19802 z"
       id="path5"
       inkscape:label="house_1"
       sodipodi:insensitive="true" /><path
       style="display:none;fill:#a351b3;fill-opacity:0.446809;stroke:#000000;stroke-width:0.1"
       d="m 286.25804,220.26725 c 0,0 7.64332,-6.84139 12.02356,-12.1438 4.56895,-5.53084 12.98545,-16.71275 12.98545,-16.71275 l 12.1438,10.09979 27.65419,-13.10568 c 0,0 3.12612,2.64518 5.77131,5.89155 2.64518,3.24636 3.96777,6.37248 6.73319,9.61885 2.76542,3.24636 4.44872,5.04989 4.44872,5.04989 l -3.48683,2.76542 0.12023,20.921 -7.45461,2.76542 6.85343,9.97955 -0.84164,1.08212 -2.40472,-0.48094 v 19.47817 l -37.99445,13.10568 -35.95045,-28.0149 0.84165,-28.97678 z"
       id="path6"
       sodipodi:nodetypes="cscccsscccccccccccc"
       inkscape:label="house3"
       sodipodi:insensitive="true" /><path
       style="display:none;fill:#a351b3;fill-opacity:0.446809;stroke:#000000;stroke-width:0.1"
       d="m 151.11321,286.15637 22.72453,-32.10291 39.07658,18.99722 16.71275,19.59841 -0.12024,2.28448 -6.85343,-2.28448 v 20.07935 c 0,0 -8.89744,5.53084 -14.78898,8.41649 -5.89155,2.88566 -19.11746,7.33437 -19.11746,7.33437 l -35.70998,-18.63652 v -22.12335 z"
       id="path7"
       inkscape:label="house_5"
       sodipodi:insensitive="true" /><path
       style="display:none;fill:#a351b3;fill-opacity:0.446809;stroke:#000000;stroke-width:0.1"
       d="m 104.88261,340.14216 c -0.12023,-0.24047 0.30059,-12.68486 0.30059,-12.68486 l -2.94577,-0.96188 c 0,0 3.54695,-3.66719 5.53084,-6.25226 1.98389,-2.58506 5.65107,-7.75519 5.65107,-7.75519 l 19.2377,-9.49862 c 0,0 4.80943,5.95167 8.11591,8.65697 3.30648,2.7053 9.7992,8.17602 9.7992,8.17602 l -2.52495,1.62318 v 19.2377 l -21.88288,12.1438 z"
       id="path8"
       inkscape:label="house_6"
       sodipodi:insensitive="true" /><path
       style="display:none;fill:#a351b3;fill-opacity:0.446809;stroke:#000000;stroke-width:0.1"
       d="m 267.64113,307.3452 15.55855,-15.64357 c 0,0 11.98774,-4.16595 19.21439,-7.39669 7.22665,-3.23074 20.1496,-9.43716 20.1496,-9.43716 l 19.29941,26.18598 -4.16595,2.72062 v 23.46536 l -37.06847,19.46945 -29.7568,-12.41283 v -25.84591 l -2.72062,-0.085 z"
       id="path9"
       inkscape:label="house_4"
       sodipodi:insensitive="true" /><path
       style="display:none;fill:#a351b3;fill-opacity:0.446809;stroke:#000000;stroke-width:0.1"
       d="m 269.00144,340.41775 30.77703,16.66381 c 0,0 17.514,-5.10117 22.7852,-8.84202 5.2712,-3.74085 30.26691,-15.3035 33.32761,-19.7245 3.0607,-4.42101 1.53035,-6.80156 -2.38054,-10.0323 -3.91089,-3.23073 -76.1774,-38.76885 -76.1774,-38.76885 0,0 -26.29258,50.97929 -8.3319,60.70386 z"
       id="path11"
       inkscape:label="fence_4"
       sodipodi:nodetypes="scssscs"
       sodipodi:insensitive="true" /><path
       style="display:none;fill:#a351b3;fill-opacity:0.446809;stroke:#000000;stroke-width:0.1"
       d="m 249.01937,197.03168 c 24.99571,-0.34008 29.55576,6.31699 48.31667,20.65575 l -33.43577,21.0471 z"
       id="path12"
       sodipodi:nodetypes="cccc"
       inkscape:label="fence_3"
       sodipodi:insensitive="true" /><path
       style="display:none;fill:#a351b3;fill-opacity:0.446809;stroke:#000000;stroke-width:0.1"
       d="m 138.39098,201.15595 c 12.41283,-4.08094 21.03026,-4.71877 33.32761,1.19027 l -16.49377,20.5747 z"
       id="path13"
       sodipodi:nodetypes="cccc"
       inkscape:label="fence_2"
       sodipodi:insensitive="true" /><path
       style="display:none;fill:#a351b3;fill-opacity:0.446809;stroke:#000000;stroke-width:0.1"
       d="m 94.626616,200.81588 c -4.231038,3.00128 -16.153697,12.66788 -16.49377,18.61924 -0.340077,5.95136 2.550578,13.85817 18.704268,19.46945 16.153686,5.61128 24.655626,13.68812 34.092786,19.89454 9.65232,6.34792 24.31382,-13.63355 22.61516,-24.65563 -2.84507,-18.46081 -40.05023,-46.71177 -58.918444,-33.3276 z"
       id="path14"
       sodipodi:nodetypes="ssssss"
       inkscape:label="fence_1"
       sodipodi:insensitive="true" /><path
       style="display:none;fill:#a351b3;fill-opacity:0.446809;stroke:#000000;stroke-width:0.1"
       d="m 153.88514,299.94851 c -8.04805,3.51518 -24.14551,10.54241 -24.14551,10.54241 l -20.91478,19.21439 c 0,0 -12.072754,7.65174 -15.983644,11.22256 -3.91089,3.57082 -0.85019,4.25097 -4.93113,7.48171 -4.08093,3.23074 -11.392599,5.78132 -13.773143,9.52217 -2.380543,3.74086 -4.506029,9.26712 -2.635602,11.64766 1.870428,2.38055 15.473535,9.86226 25.505825,14.62334 10.032284,4.76109 14.028204,7.82179 24.315554,9.1821 10.28734,1.36031 17.25894,4.08093 24.14551,6.5465 6.88657,2.46556 7.56673,2.29552 19.55447,1.87042 11.98773,-0.42509 35.0643,-8.2946 47.69589,-20.06458 19.47775,-18.14917 17.62402,-42.00696 6.46148,-60.70387 -13.22702,-22.15484 -42.45151,-31.06223 -65.29492,-21.08481 z"
       id="path15"
       sodipodi:nodetypes="sccsssssssssss"
       inkscape:label="fence_5"
       sodipodi:insensitive="true" /><path
       style="display:none;fill:#a351b3;fill-opacity:0.446809;stroke:#000000;stroke-width:0.1"
       d="m 159.49643,281.92439 -30.26691,2.55059 27.20621,24.48559 z"
       id="path10"
       inkscape:label="fence_6"
       sodipodi:insensitive="true" /><path
       style="display:none;fill:#a351b3;fill-opacity:0.446809;stroke:#000000;stroke-width:0.1"
       d="m 235.50379,519.97877 c 2.55058,-37.40855 17.68404,-57.98325 28.39649,-68.18558 10.71244,-10.20233 26.89032,-21.59724 26.6961,-28.56652 -0.19905,-7.14245 -14.28327,-11.73268 -31.28715,-21.25486 -17.00389,-9.52217 -32.30738,-18.70427 -42.16963,-31.28714 -9.86226,-12.58288 -6.9029,-37.21837 14.45329,-41.9996 56.96301,-12.75291 28.68913,31.35436 43.18987,40.12917 33.15757,20.06459 62.76042,30.81566 63.76457,54.58247 1.51738,35.91418 -54.92644,53.4449 -64.10464,94.71163 -5.80823,26.11475 -40.61518,26.45595 -38.9389,1.87043 z"
       id="path1"
       sodipodi:nodetypes="ssssssssss"
       inkscape:label="road_bottom"
       sodipodi:insensitive="true" /><path
       style="display:none;fill:#a351b3;fill-opacity:0.446809;stroke:#000000;stroke-width:0.1"
       d="m -14.428274,238.06652 c 55.067912,-9.13791 82.462486,-11.73527 110.636788,-2.47014 26.129346,8.59265 63.705976,9.60822 56.743276,36.19946 -8.48084,32.38915 -16.78673,11.37966 -65.842856,1.27987 -49.056131,-10.09979 -79.8947971,-1.10275 -99.372967,2.02338 -19.47817,3.12612 -2.164241,-37.03257 -2.164241,-37.03257 z"
       id="path2"
       sodipodi:nodetypes="cssssc"
       inkscape:label="road_left"
       sodipodi:insensitive="true" /><path
       style="display:none;fill:#a351b3;fill-opacity:0.446809;stroke:#000000;stroke-width:0.1"
       d="m 532.56164,230.23259 c -64.95483,22.44512 -77.87779,24.82567 -107.12447,25.16575 -29.24668,0.34007 -73.45677,-22.44513 -80.93848,-28.73657 -7.48171,-6.29144 -27.07666,-4.94729 -29.72185,28.23774 -2.64518,33.18503 15.14969,43.52529 38.4754,32.70408 23.32571,-10.8212 24.04712,-8.89743 38.95634,-3.36659 14.90921,5.53084 50.01801,18.75676 141.39708,-15.8711 91.37907,-34.62786 33.62478,-50.1131 -1.04402,-38.13331 z"
       id="path3"
       sodipodi:nodetypes="ssssssss"
       inkscape:label="road_right"
       sodipodi:insensitive="true" /><rect
       style="display:none;fill:#a351b3;fill-opacity:0.446809;stroke:#000000;stroke-width:0.1"
       id="rect10"
       width="512"
       height="512"
       x="0.050000001"
       y="0.050000001"
       inkscape:label="field"
       sodipodi:insensitive="true" /></g><g
     inkscape:groupmode="layer"
     id="layer25"
     inkscape:label="cut"><path
       d="m 247.42383,326.41992 c -4.36465,0.15271 -9.58446,0.86735 -15.83008,2.26563 -2.7698,0.6201 -5.23147,1.57453 -7.39453,2.79297 -14.51493,8.17611 -15.64372,28.25609 -7.06055,39.20703 0.82093,1.04739 1.68005,2.06984 2.57422,3.07226 9.84801,11.04022 24.00721,19.4853 39.5957,28.21485 17.00388,9.52218 31.08806,14.11145 31.28711,21.2539 0.19422,6.96928 -15.98287,18.36408 -26.69531,28.56641 -9.93014,9.45728 -23.65873,27.8283 -27.64258,60.25781 h 39.91797 c 12.98283,-37.02038 63.81207,-54.54844 62.37109,-88.6543 -1.00414,-23.76681 -30.6061,-34.51744 -63.76367,-54.58203 -7.30125,-4.41819 -3.75949,-17.79453 -5.71289,-28.35937 -0.79185,-4.2827 -2.48705,-8.10278 -6.17383,-10.67774 -3.30078,-2.30536 -8.19823,-3.61194 -15.47265,-3.35742 z"
       style="fill:#a351b3;fill-opacity:0.446809;stroke:#000000;stroke-width:0.1"
       id="path33"
       inkscape:label="road_bottom" /><path
       d="m 512.05078,237.22852 c -47.64282,15.97141 -60.7413,17.86908 -86.61328,18.16992 -21.03185,0.24455 -49.80305,-11.47057 -67.08789,-20.41016 l -1.15234,0.42774 6.85351,9.98046 -0.8418,1.08204 -2.40429,-0.48047 v 19.47851 l -36.00782,12.41992 10.13868,13.75977 c 5.41954,0.4084 11.64181,-0.95627 18.3164,-4.05273 23.32571,-10.8212 24.04781,-8.89803 38.95703,-3.36719 13.6751,5.07302 44.34449,16.62149 119.8418,-8.22266 z"
       style="fill:#a351b3;fill-opacity:0.446809;stroke:#000000;stroke-width:0.1"
       id="path34"
       inkscape:label="road_right" /><path
       d="m 48.470703,230.03711 c -13.515011,0.65497 -29.116583,2.65028 -48.41992175,5.68359 v 37.14453 C 19.528573,269.2537 47.329069,264.88611 87.109375,273.07617 c 22.399885,4.61174 36.302135,11.49848 45.605465,14.53711 h 0.002 v 0.002 h 0.002 c 8.08214,2.63913 12.6916,2.3715 16.38477,-4.8164 1.36438,-2.65547 2.60461,-6.25662 3.84765,-11.00391 2.34247,-8.9461 -0.35486,-14.99707 -5.96289,-19.41601 -11.06117,-8.71585 -33.44065,-11.08139 -50.779296,-16.78321 -3.935079,-1.29405 -7.855709,-2.35543 -11.83789,-3.20117 -10.956928,-2.32704 -22.38538,-3.01239 -35.900391,-2.35742 z"
       style="fill:#a351b3;fill-opacity:0.446809;stroke:#000000;stroke-width:0.1"
       id="path35"
       inkscape:label="road_left" /><path
       d="m 512.05078,276.01367 c -75.49731,24.84415 -106.1667,13.29568 -119.8418,8.22266 -14.90922,-5.53084 -15.63132,-7.45401 -38.95703,3.36719 -6.67382,3.0961 -12.89535,4.46067 -18.31445,4.05273 l 6.92578,9.39844 -4.16601,2.71875 v 6.12304 c 8.49153,4.36484 14.73686,7.69737 15.8125,8.58594 3.91089,3.23074 5.44155,5.61219 2.38085,10.0332 -3.06069,4.42101 -28.05497,15.98376 -33.32617,19.72461 -5.2712,3.74085 -22.78515,8.8418 -22.78515,8.8418 l -30.70899,-16.62695 c 1.9534,10.56484 -1.58836,23.94118 5.71289,28.35937 33.15757,20.06459 62.75953,30.81522 63.76367,54.58203 1.44098,34.10586 -49.38826,51.63392 -62.37109,88.6543 h 235.875 z"
       style="fill:#a351b3;fill-opacity:0.446809;stroke:#000000;stroke-width:0.1"
       id="path36"
       inkscape:label="field_right" /><path
       d="m 236.25781,512.05078 c 3.98385,-32.42951 17.71244,-50.80053 27.64258,-60.25781 10.71244,-10.20233 26.88953,-21.59713 26.69531,-28.56641 -0.19905,-7.14245 -14.28323,-11.73172 -31.28711,-21.2539 -15.58849,-8.72955 -29.74769,-17.17463 -39.5957,-28.21485 -1.93074,2.75264 -4.25051,5.42203 -6.99414,7.97852 -12.63159,11.76998 -35.70758,19.64131 -47.69531,20.0664 -11.98774,0.4251 -12.66812,0.59447 -19.55469,-1.87109 -6.88657,-2.46557 -13.85914,-5.18656 -24.14648,-6.54687 -10.28735,-1.36031 -14.28217,-4.42055 -24.314458,-9.18165 -10.032289,-4.76108 -23.635431,-12.24249 -25.505859,-14.62304 -1.870427,-2.38054 0.254223,-7.90758 2.634766,-11.64844 2.380544,-3.74085 9.692507,-6.29074 13.773437,-9.52148 4.08094,-3.23074 1.020751,-3.91161 4.931641,-7.48243 2.494059,-2.27719 8.306603,-6.21397 12.191403,-8.76757 0.0766,-2.5399 0.15039,-4.70313 0.15039,-4.70313 l -2.94531,-0.96094 c 0,0 3.54541,-3.66883 5.5293,-6.2539 1.98389,-2.58506 5.65234,-7.75391 5.65234,-7.75391 l 19.23633,-9.49805 c 0,0 1.77339,2.19233 3.90625,4.52149 3.67832,-1.60588 8.27628,-3.61263 12.29883,-5.36914 l -16.14258,-14.52735 c -9.30335,-3.0379 -23.206,-9.9266 -45.609375,-14.53906 -39.780306,-8.19006 -67.580802,-3.82247 -87.05859375,-0.21094 v 239.18555 z"
       style="fill:#a351b3;fill-opacity:0.446809;stroke:#000000;stroke-width:0.1"
       id="path32"
       inkscape:label="field_left" /><path
       d="M 0.05078125,0.05078125 V 235.7207 C 38.657459,229.65407 62.457237,227.74045 84.371094,232.39453 c -5.308181,-4.36526 -6.460052,-9.07799 -6.238282,-12.95898 0.340073,-5.95136 12.263103,-15.61786 16.494141,-18.61914 0.236959,-0.16809 0.476112,-0.32932 0.71875,-0.48438 l 0.06836,-12.16797 -2.998046,-1.37695 c 0,0 3.656906,-3.14448 6.972656,-7.48047 3.315758,-4.33599 7.117188,-10.5 7.117188,-10.5 0,0 8.50756,4.38783 14.21875,6.73242 5.71119,2.34459 15.11914,5.95313 15.11914,5.95313 l 12.08398,12.86523 -0.48242,1.53125 -3.42578,-0.50976 v 4.11328 c 8.34652,-2.13461 15.29216,-2.16166 23.76953,1.13867 l 0.27735,-20.94336 -1.95313,1.08203 -0.24023,-0.86914 12.24218,-14.19727 c 0,0 4.84723,-1.10577 12.58399,-4.93164 7.73677,-3.82588 31.45703,-15.38867 31.45703,-15.38867 l 21.50977,32.39258 h 1.78515 l 12.1582,9.86328 -2.55078,1.95508 0.14063,7.51172 c 17.84766,0.74514 23.89179,6.28805 37.53515,17.00976 1.93117,-1.93202 3.95424,-4.06424 5.54688,-5.99218 4.56895,-5.53084 12.98633,-16.71289 12.98633,-16.71289 l 12.14258,10.09961 27.65429,-13.10547 c 0,0 3.1263,2.64621 5.77149,5.89257 2.64518,3.24636 3.96895,6.37278 6.73437,9.61915 2.76542,3.24636 4.44727,5.04882 4.44727,5.04882 l -3.48633,2.76563 0.12109,20.92187 -6.30273,2.33594 c 17.28484,8.93959 46.05604,20.65471 67.08789,20.41016 25.87198,-0.30084 38.97046,-2.19851 86.61328,-18.16992 V 0.05078125 Z"
       style="fill:#a351b3;fill-opacity:0.446809;stroke:#000000;stroke-width:0.1"
       id="path31"
       inkscape:label="field_top" /></g></svg>
