<?xml version="1.0" encoding="UTF-8" standalone="no"?>
<!-- Created with Inkscape (http://www.inkscape.org/) -->

<svg
   width="512"
   height="512"
   viewBox="0 0 512 512"
   version="1.1"
   id="svg1"
   xml:space="preserve"
   xmlns="http://www.w3.org/2000/svg"
   xmlns:svg="http://www.w3.org/2000/svg"><defs
     id="defs1" /><g
     id="layer25"><path
       d="m 48.470703,230.03711 c -13.515011,0.65497 -29.116583,2.65028 -48.41992175,5.68359 v 37.14453 C 19.528573,269.2537 47.329069,264.88611 87.109375,273.07617 c 22.399885,4.61174 36.302135,11.49848 45.605465,14.53711 h 0.002 v 0.002 h 0.002 c 8.08214,2.63913 12.6916,2.3715 16.38477,-4.8164 1.36438,-2.65547 2.60461,-6.25662 3.84765,-11.00391 2.34247,-8.9461 -0.35486,-14.99707 -5.96289,-19.41601 -11.06117,-8.71585 -33.44065,-11.08139 -50.779296,-16.78321 -3.935079,-1.29405 -7.855709,-2.35543 -11.83789,-3.20117 -10.956928,-2.32704 -22.38538,-3.01239 -35.900391,-2.35742 z"
       style="fill:#a351b3;fill-opacity:0.446809;stroke:#000000;stroke-width:0.1"
       id="path35" /></g></svg>
