<?xml version="1.0" encoding="UTF-8" standalone="no"?>
<!-- Created with Inkscape (http://www.inkscape.org/) -->

<svg
   width="512"
   height="512"
   viewBox="0 0 512 512"
   version="1.1"
   id="svg1"
   xml:space="preserve"
   xmlns="http://www.w3.org/2000/svg"
   xmlns:svg="http://www.w3.org/2000/svg"><defs
     id="defs1" /><g
     id="layer25"><path
       d="M 0.05078125,0.05078125 V 235.7207 C 38.657459,229.65407 62.457237,227.74045 84.371094,232.39453 c -5.308181,-4.36526 -6.460052,-9.07799 -6.238282,-12.95898 0.340073,-5.95136 12.263103,-15.61786 16.494141,-18.61914 0.236959,-0.16809 0.476112,-0.32932 0.71875,-0.48438 l 0.06836,-12.16797 -2.998046,-1.37695 c 0,0 3.656906,-3.14448 6.972656,-7.48047 3.315757,-4.33599 7.117187,-10.5 7.117187,-10.5 0,0 8.50756,4.38783 14.21875,6.73242 5.71119,2.34459 15.11914,5.95313 15.11914,5.95313 l 12.08398,12.86523 -0.48242,1.53125 -3.42578,-0.50976 v 4.11328 c 8.34652,-2.13461 15.29216,-2.16166 23.76953,1.13867 l 0.27735,-20.94336 -1.95313,1.08203 -0.24023,-0.86914 12.24218,-14.19727 c 0,0 4.84723,-1.10577 12.58399,-4.93164 7.73677,-3.82588 31.45703,-15.38867 31.45703,-15.38867 l 21.50977,32.39258 h 1.78515 l 12.1582,9.86328 -2.55078,1.95508 0.14063,7.51172 c 17.84766,0.74514 23.89179,6.28805 37.53515,17.00976 1.93117,-1.93202 3.95424,-4.06424 5.54688,-5.99218 4.56895,-5.53084 12.98633,-16.71289 12.98633,-16.71289 l 12.14258,10.09961 27.65429,-13.10547 c 0,0 3.1263,2.64621 5.77149,5.89257 2.64518,3.24636 3.96895,6.37278 6.73437,9.61915 2.76542,3.24636 4.44727,5.04882 4.44727,5.04882 l -3.48633,2.76563 0.12109,20.92187 -6.30273,2.33594 c 17.28484,8.93959 46.05604,20.65471 67.08789,20.41016 25.87198,-0.30084 38.97046,-2.19851 86.61328,-18.16992 V 0.05078125 Z"
       style="fill:#a351b3;fill-opacity:0.446809;stroke:#000000;stroke-width:0.1"
       id="path31" /></g></svg>
