<?xml version="1.0" encoding="UTF-8" standalone="no"?>
<!-- Created with Inkscape (http://www.inkscape.org/) -->

<svg
   width="512"
   height="512"
   viewBox="0 0 512 512"
   version="1.1"
   id="svg1"
   xml:space="preserve"
   xmlns="http://www.w3.org/2000/svg"
   xmlns:svg="http://www.w3.org/2000/svg"><defs
     id="defs1" /><g
     id="layer24"><path
       d="m 277.85937,511.75391 c 7.58773,-9.96641 11.46161,-20.44071 12.14844,-31.77344 0.96188,-15.8711 12.50497,-28.37512 23.32617,-40.1582 14.7865,-16.10085 42.56256,-30.54059 44.48633,-64.6875 1.92377,-34.14692 0.96286,-65.1673 -32.70312,-115.42579 C 300.28238,222.63416 243.66474,183.11456 190.20508,182.55859 117.88867,181.80653 72.097803,221.01187 0.24609375,237.99805 v 36.12109 C 32.773565,268.81299 39.315203,270.35569 78.898437,253.01758 120.04784,234.99346 149.30157,224.26446 189.76367,223.43164 c 28.20522,-0.58054 66.04306,19.26646 87.98047,44.64844 24.51703,28.36665 33.36868,64.05275 34.44727,88.66211 0.98684,22.51607 -4.42196,30.60689 -15.64454,45.57031 -11.22256,14.96342 -21.9215,19.64205 -33.82421,34.60547 -11.90272,14.96341 -19.85042,35.11375 -18.34766,42.93164 1.368,7.11687 -2.01182,12.84446 -10.87891,31.9043 z"
       style="fill:#a351b3;fill-opacity:0.446809;stroke:#000000;stroke-width:0.491653"
       id="path3" /></g></svg>
