<?xml version="1.0" encoding="UTF-8" standalone="no"?>
<!-- Created with Inkscape (http://www.inkscape.org/) -->

<svg
   width="512"
   height="512"
   viewBox="0 0 512 512"
   version="1.1"
   id="svg1"
   inkscape:version="1.4.2 (f4327f4, 2025-05-13)"
   sodipodi:docname="tile_basic_V_inkscape.svg"
   xml:space="preserve"
   inkscape:export-filename="tile_basic_V_field_bottom.svg"
   inkscape:export-xdpi="96"
   inkscape:export-ydpi="96"
   xmlns:inkscape="http://www.inkscape.org/namespaces/inkscape"
   xmlns:sodipodi="http://sodipodi.sourceforge.net/DTD/sodipodi-0.dtd"
   xmlns:xlink="http://www.w3.org/1999/xlink"
   xmlns="http://www.w3.org/2000/svg"
   xmlns:svg="http://www.w3.org/2000/svg"><sodipodi:namedview
     id="namedview1"
     pagecolor="#ffffff"
     bordercolor="#000000"
     borderopacity="0.25"
     inkscape:showpageshadow="2"
     inkscape:pageopacity="0.0"
     inkscape:pagecheckerboard="0"
     inkscape:deskcolor="#d1d1d1"
     inkscape:document-units="px"
     labelstyle="default"
     inkscape:zoom="2.0792508"
     inkscape:cx="269.56825"
     inkscape:cy="259.46846"
     inkscape:window-width="2560"
     inkscape:window-height="1369"
     inkscape:window-x="-8"
     inkscape:window-y="-8"
     inkscape:window-maximized="1"
     inkscape:current-layer="layer24" /><defs
     id="defs1" /><g
     inkscape:label="Layer 1"
     inkscape:groupmode="layer"
     id="layer1"><image
       width="512"
       height="512"
       preserveAspectRatio="none"
       xlink:href="tile_basic_V.png"
       id="image1"
       x="0"
       y="0"
       sodipodi:insensitive="true" /><path
       style="display:none;fill:#a351b3;fill-opacity:0.446809;stroke:#000000;stroke-width:0.1"
       d="m -27.743787,243.16769 c 88.907714,-11.83437 136.678467,-61.45396 217.949447,-60.60877 53.45966,0.55597 110.07663,40.07519 134.91144,77.15001 33.66598,50.25849 34.62786,81.27927 32.70409,115.42619 -1.92377,34.14691 -29.70068,48.58592 -44.48718,64.68677 -10.8212,11.78308 -22.36382,24.28759 -23.3257,40.15869 -0.96189,15.8711 -8.17603,30.0589 -23.08524,43.52529 -14.90922,13.46639 -59.81577,48.84486 -43.49204,10.75616 16.32373,-38.0887 22.74395,-45.04821 20.94396,-54.41243 -1.50276,-7.81789 6.44438,-27.96889 18.3471,-42.9323 11.90271,-14.96342 22.60308,-19.64199 33.82564,-34.60541 11.22257,-14.96342 16.63042,-23.05434 15.64358,-45.57041 -1.07859,-24.60936 -9.93043,-60.29401 -34.44746,-88.66066 -21.93741,-25.38198 -59.77529,-45.23033 -87.98051,-44.64979 -40.4621,0.83282 -69.71592,11.56264 -110.865319,29.58676 -41.149399,18.02412 -46.590642,15.64357 -82.6388754,21.76497 -36.0482336,6.1214 -24.0029326,-31.61507 -24.0029326,-31.61507 z"
       id="path1"
       sodipodi:nodetypes="csssssssssssssssc"
       inkscape:label="road"
       sodipodi:insensitive="true" /><rect
       style="display:none;fill:#a351b3;fill-opacity:0.446809;stroke:#000000;stroke-width:0.491653"
       id="rect1"
       width="511.50836"
       height="511.50836"
       x="0.2458269"
       y="0.2458269"
       inkscape:label="field"
       sodipodi:insensitive="true" /></g><g
     inkscape:groupmode="layer"
     id="layer24"
     inkscape:label="cut"><path
       d="m 233.49609,511.75391 c 8.86709,-19.05984 12.24691,-24.78743 10.87891,-31.9043 -1.50276,-7.81789 6.44494,-27.96823 18.34766,-42.93164 11.90271,-14.96342 22.60165,-19.64205 33.82421,-34.60547 11.22258,-14.96342 16.63138,-23.05424 15.64454,-45.57031 -1.07859,-24.60936 -9.93024,-60.29546 -34.44727,-88.66211 -21.93741,-25.38198 -59.77525,-45.22898 -87.98047,-44.64844 -40.4621,0.83282 -69.71583,11.56182 -110.865233,29.58594 -39.583234,17.33811 -46.124872,15.79541 -78.65234325,21.10156 v 237.63477 z"
       style="fill:#a351b3;fill-opacity:0.446809;stroke:#000000;stroke-width:0.491653"
       id="path5"
       inkscape:label="field_bottom" /><path
       d="M 0.24609375,0.24609375 V 237.99805 C 72.097803,221.01187 117.88867,181.80653 190.20508,182.55859 c 53.45966,0.55597 110.0773,40.07557 134.91211,77.15039 33.66598,50.25849 34.62689,81.27887 32.70312,115.42579 -1.92377,34.14691 -29.69983,48.58665 -44.48633,64.6875 -10.8212,11.78308 -22.36429,24.2871 -23.32617,40.1582 -0.68683,11.33273 -4.56071,21.80703 -12.14844,31.77344 H 511.75391 V 0.24609375 Z"
       style="fill:#a351b3;fill-opacity:0.446809;stroke:#000000;stroke-width:0.491653"
       id="path4"
       inkscape:label="field_top" /><path
       d="m 277.85937,511.75391 c 7.58773,-9.96641 11.46161,-20.44071 12.14844,-31.77344 0.96188,-15.8711 12.50497,-28.37512 23.32617,-40.1582 14.7865,-16.10085 42.56256,-30.54059 44.48633,-64.6875 1.92377,-34.14692 0.96286,-65.1673 -32.70312,-115.42579 C 300.28238,222.63416 243.66474,183.11456 190.20508,182.55859 117.88867,181.80653 72.097803,221.01187 0.24609375,237.99805 v 36.12109 C 32.773565,268.81299 39.315203,270.35569 78.898437,253.01758 120.04784,234.99346 149.30157,224.26446 189.76367,223.43164 c 28.20522,-0.58054 66.04306,19.26646 87.98047,44.64844 24.51703,28.36665 33.36868,64.05275 34.44727,88.66211 0.98684,22.51607 -4.42196,30.60689 -15.64454,45.57031 -11.22256,14.96342 -21.9215,19.64205 -33.82421,34.60547 -11.90272,14.96341 -19.85042,35.11375 -18.34766,42.93164 1.368,7.11687 -2.01182,12.84446 -10.87891,31.9043 z"
       style="fill:#a351b3;fill-opacity:0.446809;stroke:#000000;stroke-width:0.491653"
       id="path3"
       inkscape:label="road" /></g></svg>
