<?xml version="1.0" encoding="UTF-8" standalone="no"?>
<!-- Created with Inkscape (http://www.inkscape.org/) -->

<svg
   width="512"
   height="512"
   viewBox="0 0 512 512"
   version="1.1"
   id="svg1"
   xml:space="preserve"
   xmlns="http://www.w3.org/2000/svg"
   xmlns:svg="http://www.w3.org/2000/svg"><defs
     id="defs1" /><g
     id="layer16"><path
       d="m 511.77539,235.02344 c -8.16895,-1.32588 -18.23871,-2.91414 -30.56641,-4.79102 -49.14122,-7.48171 -78.3862,-6.29105 -101.85156,-3.40039 -23.46536,2.89066 -38.08993,18.19334 -40.81055,29.58594 -2.03085,8.50424 6.12145,7.14224 5.61133,16.1543 -0.51012,9.01206 -18.87346,4.42031 -40.97851,1.01953 -22.10505,-3.40078 -56.28326,-2.54999 -90.29102,7.65234 -34.00777,10.20233 -48.63062,29.58691 -48.9707,53.73242 -0.34008,24.14552 8.95358,36.94953 34.51758,59.51367 33.32761,29.41671 38.90915,58.10808 39.78906,70.22657 0.81707,11.25292 -3.09239,15.59304 -1.55469,47.05859 h 37.86719 c -0.13337,-4.82229 -0.27852,-10.21839 -0.43359,-16.11133 -0.68016,-25.8459 4.42101,-28.22817 0,-65.63672 -3.64283,-30.82398 -15.41302,-38.91807 -36.72852,-54.07226 -23.80769,-16.926 -36.55877,-37.74694 -22.10547,-53.56055 18.91944,-20.7001 69.88539,-12.58449 94.54102,-9.01367 24.65564,3.57082 52.71131,6.80143 69.20507,0.16992 16.49378,-6.63152 11.7334,-20.91306 7.48243,-28.05469 -4.25098,-7.14163 -5.95187,-11.5638 3.57031,-18.19531 9.52217,-6.63152 49.48276,-6.29034 68.86719,-4.41992 10.43754,1.00713 33.64187,5.56298 52.83984,9.55469 z"
       style="fill:#a351b3;fill-opacity:0.446809;stroke:#000000;stroke-width:0.447306"
       id="path8" /></g></svg>
