<?xml version="1.0" encoding="UTF-8" standalone="no"?>
<!-- Created with Inkscape (http://www.inkscape.org/) -->

<svg
   width="512"
   height="512"
   viewBox="0 0 512 512"
   version="1.1"
   id="svg1"
   xml:space="preserve"
   xmlns="http://www.w3.org/2000/svg"
   xmlns:svg="http://www.w3.org/2000/svg"><defs
     id="defs1" /><g
     id="layer16"><path
       d="M 511.77539,1.7519531 C 503.01427,12.588431 491.6891,26.557555 485.66016,33.835937 c -4.52978,5.468522 -13.46289,18.535157 -13.46289,18.535157 l 0.33984,2.210937 2.21094,0.509766 v -2.548828 c 0,0 4.08119,0.08363 6.71679,0.59375 2.6356,0.510117 5.44141,3.316406 5.44141,3.316406 v 56.453125 c 0,0 -48.12084,29.5012 -59.85352,34.85742 -11.73268,5.35622 -23.7207,7.22656 -23.7207,7.22656 v 5.52735 c 0,0 -5.52697,5.01492 -17.42969,6.03515 -11.90271,1.02024 -18.95898,-3.74023 -18.95898,-3.74023 0,0 -12.07287,2.89045 -28.22656,7.39648 -16.15369,4.50603 -32.81641,6.80079 -32.81641,6.80079 v 3.23046 c 0,0 -1.87171,2.97657 -8.07812,2.97657 -6.20642,0 -8.41602,-2.29493 -8.41602,-2.29493 0,10e-6 -24.48493,-0.17152 -44.97461,-0.68164 -20.48968,-0.51012 -43.78516,-4.58984 -43.78516,-4.58984 0,0 -8.33165,6.71599 -20.23437,6.46094 -11.90272,-0.25506 -20.66016,-6.29102 -20.66016,-6.29102 v -17.68359 c 0,0 -24.4019,-12.66803 -32.13867,-16.83399 -7.73677,-4.16595 -25.75976,-17.17382 -25.75976,-17.17382 0,0 -8.246957,5.86617 -22.615239,5.95117 -14.368282,0.085 -22.445312,-7.22656 -22.445312,-7.22656 V 78.8125 L 0.22460938,2.0898438 V 511.77539 H 236.66992 c -1.5377,-31.46555 2.37176,-35.80567 1.55469,-47.05859 -0.87991,-12.11849 -6.46145,-40.80986 -39.78906,-70.22657 -25.564,-22.56414 -34.85766,-35.36815 -34.51758,-59.51367 0.34008,-24.14551 14.96293,-43.53009 48.9707,-53.73242 34.00776,-10.20233 68.18597,-11.05312 90.29102,-7.65234 22.10505,3.40078 40.46839,7.99253 40.97851,-1.01953 0.51012,-9.01206 -7.64218,-7.65006 -5.61133,-16.1543 2.72062,-11.3926 17.34519,-26.69528 40.81055,-29.58594 23.46536,-2.89066 52.71034,-4.08132 101.85156,3.40039 12.3277,1.87688 22.39746,3.46514 30.56641,4.79102 z"
       style="fill:#a351b3;fill-opacity:0.446809;stroke:#000000;stroke-width:0.447306"
       id="path7" /></g></svg>
