<?xml version="1.0" encoding="UTF-8" standalone="no"?>
<!-- Created with Inkscape (http://www.inkscape.org/) -->

<svg
   width="512"
   height="512"
   viewBox="0 0 512 512"
   version="1.1"
   id="svg1"
   inkscape:version="1.4.2 (f4327f4, 2025-05-13)"
   sodipodi:docname="tile_basic_J_inkscape.svg"
   xml:space="preserve"
   inkscape:export-filename="tile_basic_J_city.svg"
   inkscape:export-xdpi="96"
   inkscape:export-ydpi="96"
   xmlns:inkscape="http://www.inkscape.org/namespaces/inkscape"
   xmlns:sodipodi="http://sodipodi.sourceforge.net/DTD/sodipodi-0.dtd"
   xmlns:xlink="http://www.w3.org/1999/xlink"
   xmlns="http://www.w3.org/2000/svg"
   xmlns:svg="http://www.w3.org/2000/svg"><sodipodi:namedview
     id="namedview1"
     pagecolor="#ffffff"
     bordercolor="#000000"
     borderopacity="0.25"
     inkscape:showpageshadow="2"
     inkscape:pageopacity="0.0"
     inkscape:pagecheckerboard="0"
     inkscape:deskcolor="#d1d1d1"
     inkscape:document-units="px"
     labelstyle="default"
     inkscape:zoom="1.4702523"
     inkscape:cx="369.66443"
     inkscape:cy="303.68937"
     inkscape:window-width="2560"
     inkscape:window-height="1369"
     inkscape:window-x="-8"
     inkscape:window-y="-8"
     inkscape:window-maximized="1"
     inkscape:current-layer="layer16" /><defs
     id="defs1" /><g
     inkscape:label="Layer 1"
     inkscape:groupmode="layer"
     id="layer1"><image
       width="512"
       height="512"
       preserveAspectRatio="none"
       xlink:href="tile_basic_J.png"
       id="image1"
       x="0"
       y="0"
       sodipodi:insensitive="true"
       inkscape:label="tile_basic_J" /><path
       style="display:none;fill:#a351b3;fill-opacity:0.446809;stroke:#000000;stroke-width:0.1"
       d="M -7.8754328,-8.8974356 56.792972,78.813002 v 44.040058 c 0,0 8.076845,7.31167 22.445127,7.22665 14.368282,-0.085 22.615161,-5.95136 22.615161,-5.95136 0,0 18.02412,13.00797 25.76089,17.17392 7.73677,4.16596 32.13734,16.83385 32.13734,16.83385 v 17.68404 c 0,0 8.757,6.03638 20.65972,6.29144 11.90272,0.25505 20.23462,-6.46148 20.23462,-6.46148 0,0 23.29532,4.08093 43.785,4.59105 20.48968,0.51012 44.97527,0.68015 44.97527,0.68015 0,0 2.21051,2.29553 8.41693,2.29553 6.20641,0 8.07684,-2.97568 8.07684,-2.97568 v -3.23074 c 0,0 16.66381,-2.29552 32.8175,-6.80155 16.15369,-4.50603 28.22644,-7.39669 28.22644,-7.39669 0,0 7.05662,4.76109 18.95933,3.74085 11.90272,-1.02023 17.42899,-6.03638 17.42899,-6.03638 v -5.52626 c 0,0 11.98773,-1.87043 23.72041,-7.22665 11.73268,-5.35622 59.85367,-34.85796 59.85367,-34.85796 V 56.452894 c 0,0 -2.80564,-2.80564 -5.44124,-3.315757 -2.6356,-0.510116 -6.71653,-0.595136 -6.71653,-0.595136 v 2.550583 l -2.21051,-0.510117 -0.34008,-2.210505 c 0,0 8.9332,-13.06743 13.46298,-18.535951 10.72395,-12.946387 38.20575,-47.061929 38.20575,-47.061929 z"
       id="path1"
       sodipodi:nodetypes="cccscsccscscsccscsccsccsccccscc"
       inkscape:label="city"
       sodipodi:insensitive="true" /><path
       style="display:none;fill:#a351b3;fill-opacity:0.446809;stroke:#000000;stroke-width:0.1"
       d="m 238.22442,533.07176 c -4.76109,-51.35173 0.9735,-54.94816 -1e-5,-68.35561 -0.87991,-12.11849 -6.46147,-40.80933 -39.78908,-70.22604 -25.564,-22.56414 -34.85797,-35.36808 -34.51789,-59.5136 0.34008,-24.14551 14.96342,-43.52994 48.97119,-53.73227 34.00776,-10.20233 68.18557,-11.05253 90.29062,-7.65175 22.10505,3.40078 40.46924,7.99183 40.97936,-1.02023 0.51012,-9.01206 -7.64214,-7.64945 -5.61128,-16.15369 2.72062,-11.3926 17.34396,-26.6961 40.80932,-29.58676 23.46536,-2.89066 52.71204,-4.08093 101.85326,3.40078 49.14123,7.48171 62.40426,10.37236 62.40426,10.37236 l -1.87043,38.25874 c 0,0 -63.42449,-14.11322 -82.80891,-15.98365 -19.38443,-1.87042 -59.34356,-2.2105 -68.86573,4.42102 -9.52218,6.63151 -7.8218,11.05252 -3.57082,18.19415 4.25097,7.14163 9.01206,21.42489 -7.48171,28.05641 -16.49377,6.63151 -44.55017,3.40078 -69.20581,-0.17004 -24.65563,-3.57082 -75.62215,-11.68804 -94.54159,9.01206 -14.4533,15.81361 -1.70264,36.63623 22.10505,53.56223 21.3155,15.15419 33.08556,23.24837 36.72839,54.07235 4.42101,37.40855 -0.68016,39.78909 0,65.63499 0.68015,25.84591 1.19027,42.16964 1.19027,42.16964 z"
       id="path2"
       sodipodi:nodetypes="csssssssssccssssssssscc"
       inkscape:label="road"
       sodipodi:insensitive="true" /><rect
       style="display:none;fill:#a351b3;fill-opacity:0.446809;stroke:#000000;stroke-width:0.447306"
       id="rect2"
       width="511.5527"
       height="511.5527"
       x="0.22365284"
       y="0.22365284"
       inkscape:label="field"
       sodipodi:insensitive="true" /></g><g
     inkscape:groupmode="layer"
     id="layer16"
     inkscape:label="cut"><path
       d="m 511.77539,272.43555 c -19.19797,-3.99171 -42.4023,-8.54756 -52.83984,-9.55469 -19.38443,-1.87042 -59.34502,-2.2116 -68.86719,4.41992 -9.52218,6.63151 -7.82129,11.05368 -3.57031,18.19531 4.25097,7.14163 9.01135,21.42317 -7.48243,28.05469 -16.49376,6.63151 -44.54943,3.4009 -69.20507,-0.16992 -24.65563,-3.57082 -75.62158,-11.68643 -94.54102,9.01367 -14.4533,15.81361 -1.70222,36.63455 22.10547,53.56055 21.3155,15.15419 33.08569,23.24828 36.72852,54.07226 4.42101,37.40855 -0.68016,39.79082 0,65.63672 0.15507,5.89294 0.30022,11.28904 0.43359,16.11133 h 237.23828 z"
       style="fill:#a351b3;fill-opacity:0.446809;stroke:#000000;stroke-width:0.447306"
       id="path9"
       inkscape:label="field_bottom" /><path
       d="m 511.77539,235.02344 c -8.16895,-1.32588 -18.23871,-2.91414 -30.56641,-4.79102 -49.14122,-7.48171 -78.3862,-6.29105 -101.85156,-3.40039 -23.46536,2.89066 -38.08993,18.19334 -40.81055,29.58594 -2.03085,8.50424 6.12145,7.14224 5.61133,16.1543 -0.51012,9.01206 -18.87346,4.42031 -40.97851,1.01953 -22.10505,-3.40078 -56.28326,-2.54999 -90.29102,7.65234 -34.00777,10.20233 -48.63062,29.58691 -48.9707,53.73242 -0.34008,24.14552 8.95358,36.94953 34.51758,59.51367 33.32761,29.41671 38.90915,58.10808 39.78906,70.22657 0.81707,11.25292 -3.09239,15.59304 -1.55469,47.05859 h 37.86719 c -0.13337,-4.82229 -0.27852,-10.21839 -0.43359,-16.11133 -0.68016,-25.8459 4.42101,-28.22817 0,-65.63672 -3.64283,-30.82398 -15.41302,-38.91807 -36.72852,-54.07226 -23.80769,-16.926 -36.55877,-37.74694 -22.10547,-53.56055 18.91944,-20.7001 69.88539,-12.58449 94.54102,-9.01367 24.65564,3.57082 52.71131,6.80143 69.20507,0.16992 16.49378,-6.63152 11.7334,-20.91306 7.48243,-28.05469 -4.25098,-7.14163 -5.95187,-11.5638 3.57031,-18.19531 9.52217,-6.63152 49.48276,-6.29034 68.86719,-4.41992 10.43754,1.00713 33.64187,5.56298 52.83984,9.55469 z"
       style="fill:#a351b3;fill-opacity:0.446809;stroke:#000000;stroke-width:0.447306"
       id="path8"
       inkscape:label="road" /><path
       d="M 511.77539,1.7519531 C 503.01427,12.588431 491.6891,26.557555 485.66016,33.835937 c -4.52978,5.468522 -13.46289,18.535157 -13.46289,18.535157 l 0.33984,2.210937 2.21094,0.509766 v -2.548828 c 0,0 4.08119,0.08363 6.71679,0.59375 2.6356,0.510117 5.44141,3.316406 5.44141,3.316406 v 56.453125 c 0,0 -48.12084,29.5012 -59.85352,34.85742 -11.73268,5.35622 -23.7207,7.22656 -23.7207,7.22656 v 5.52735 c 0,0 -5.52697,5.01492 -17.42969,6.03515 -11.90271,1.02024 -18.95898,-3.74023 -18.95898,-3.74023 0,0 -12.07287,2.89045 -28.22656,7.39648 -16.15369,4.50603 -32.81641,6.80079 -32.81641,6.80079 v 3.23046 c 0,0 -1.87171,2.97657 -8.07812,2.97657 -6.20642,0 -8.41602,-2.29493 -8.41602,-2.29493 0,10e-6 -24.48493,-0.17152 -44.97461,-0.68164 -20.48968,-0.51012 -43.78516,-4.58984 -43.78516,-4.58984 0,0 -8.33165,6.71599 -20.23437,6.46094 -11.90272,-0.25506 -20.66016,-6.29102 -20.66016,-6.29102 v -17.68359 c 0,0 -24.4019,-12.66803 -32.13867,-16.83399 -7.73677,-4.16595 -25.75976,-17.17382 -25.75976,-17.17382 0,0 -8.246957,5.86617 -22.615239,5.95117 -14.368282,0.085 -22.445312,-7.22656 -22.445312,-7.22656 V 78.8125 L 0.22460938,2.0898438 V 511.77539 H 236.66992 c -1.5377,-31.46555 2.37176,-35.80567 1.55469,-47.05859 -0.87991,-12.11849 -6.46145,-40.80986 -39.78906,-70.22657 -25.564,-22.56414 -34.85766,-35.36815 -34.51758,-59.51367 0.34008,-24.14551 14.96293,-43.53009 48.9707,-53.73242 34.00776,-10.20233 68.18597,-11.05312 90.29102,-7.65234 22.10505,3.40078 40.46839,7.99253 40.97851,-1.01953 0.51012,-9.01206 -7.64218,-7.65006 -5.61133,-16.1543 2.72062,-11.3926 17.34519,-26.69528 40.81055,-29.58594 23.46536,-2.89066 52.71034,-4.08132 101.85156,3.40039 12.3277,1.87688 22.39746,3.46514 30.56641,4.79102 z"
       style="fill:#a351b3;fill-opacity:0.446809;stroke:#000000;stroke-width:0.447306"
       id="path7"
       inkscape:label="field_top" /><path
       d="M 511.77539,1.7519531 V 0.22460938 H 0.22460938 V 2.0898438 L 56.792969,78.8125 v 44.04102 c 0,0 8.07703,7.31158 22.445312,7.22656 14.368282,-0.085 22.615239,-5.95117 22.615239,-5.95117 0,0 18.02299,13.00787 25.75976,17.17382 7.73677,4.16596 32.13867,16.83399 32.13867,16.83399 v 17.68359 c 0,0 8.75744,6.03596 20.66016,6.29102 11.90272,0.25505 20.23437,-6.46094 20.23437,-6.46094 0,0 23.29548,4.07972 43.78516,4.58984 20.48968,0.51012 44.97461,0.68165 44.97461,0.68164 0,0 2.2096,2.29493 8.41602,2.29493 6.20641,0 8.07812,-2.97657 8.07812,-2.97657 v -3.23046 c 0,0 16.66272,-2.29476 32.81641,-6.80079 16.15369,-4.50603 28.22656,-7.39648 28.22656,-7.39648 0,0 7.05627,4.76047 18.95898,3.74023 11.90272,-1.02023 17.42969,-6.03515 17.42969,-6.03515 v -5.52735 c 0,0 11.98802,-1.87034 23.7207,-7.22656 11.73268,-5.35622 59.85352,-34.85742 59.85352,-34.85742 V 56.453125 c 0,0 -2.80581,-2.806289 -5.44141,-3.316406 -2.6356,-0.510116 -6.71679,-0.59375 -6.71679,-0.59375 v 2.548828 l -2.21094,-0.509766 -0.33984,-2.210937 c 0,0 8.93311,-13.066635 13.46289,-18.535157 6.02894,-7.278382 17.35411,-21.247506 26.11523,-32.0839839 z"
       style="fill:#a351b3;fill-opacity:0.446809;stroke:#000000;stroke-width:0.447306"
       id="path6"
       inkscape:label="city" /></g></svg>
