<?xml version="1.0" encoding="UTF-8" standalone="no"?>
<!-- Created with Inkscape (http://www.inkscape.org/) -->

<svg
   width="512"
   height="512"
   viewBox="0 0 512 512"
   version="1.1"
   id="svg1"
   xml:space="preserve"
   xmlns="http://www.w3.org/2000/svg"
   xmlns:svg="http://www.w3.org/2000/svg"><defs
     id="defs1" /><g
     id="layer16"><path
       d="m 511.77539,272.43555 c -19.19797,-3.99171 -42.4023,-8.54756 -52.83984,-9.55469 -19.38443,-1.87042 -59.34502,-2.2116 -68.86719,4.41992 -9.52218,6.63151 -7.82129,11.05368 -3.57031,18.19531 4.25097,7.14163 9.01135,21.42317 -7.48243,28.05469 -16.49376,6.63151 -44.54943,3.4009 -69.20507,-0.16992 -24.65563,-3.57082 -75.62158,-11.68643 -94.54102,9.01367 -14.4533,15.81361 -1.70222,36.63455 22.10547,53.56055 21.3155,15.15419 33.08569,23.24828 36.72852,54.07226 4.42101,37.40855 -0.68016,39.79082 0,65.63672 0.15507,5.89294 0.30022,11.28904 0.43359,16.11133 h 237.23828 z"
       style="fill:#a351b3;fill-opacity:0.446809;stroke:#000000;stroke-width:0.447306"
       id="path9" /></g></svg>
