<?xml version="1.0" encoding="UTF-8" standalone="no"?>
<!-- Created with Inkscape (http://www.inkscape.org/) -->

<svg
   width="512"
   height="512"
   viewBox="0 0 512 512"
   version="1.1"
   id="svg1"
   xml:space="preserve"
   xmlns="http://www.w3.org/2000/svg"
   xmlns:svg="http://www.w3.org/2000/svg"><defs
     id="defs1" /><g
     id="layer13"><path
       d="m 511.91016,512.05078 -41.66797,-36.28125 c 0,0 -2.80452,1.27527 -7.31055,1.44531 -4.50603,0.17004 -6.12305,-2.21093 -6.12305,-2.21093 v -8.41797 c 0,0 -5.78085,2.55159 -19.1289,2.80664 -13.34805,0.25506 -19.46875,-8.41797 -19.46875,-8.41797 v -22.95508 l -12.75391,-9.35156 c 0,0 -4.07977,2.55148 -10.20117,1.53125 -6.12142,-1.02023 -6.20703,-5.10156 -6.20703,-5.10156 l -44.21094,8.16211 c 0,0 -1.02007,2.4639 -4.50586,3.82421 -3.4858,1.36032 -6.29101,-0.2539 -6.29101,-0.2539 0,0 -4.7607,5.78113 -23.29493,5.95117 -18.53424,0.17003 -21.76562,-8.8418 -21.76562,-8.8418 l -53.64649,-15.47461 c 0,0 -4.7607,2.89063 -11.90234,2.89063 -7.14163,0 -9.60742,-4.75977 -9.60742,-4.75977 l -41.49024,11.98633 0.0859,5.10156 -26.01562,11.98828 -13.26368,-9.01171 -72.267573,32.5625 v 4.33593 c 0,0 -3.48579,3.31627 -9.947266,4.93164 -6.461476,1.61537 -11.222656,-0.5957 -11.222656,-0.5957 0,0 -15.615829,13.25988 -38.6210938,34.15625 z"
       style="fill:#a351b3;fill-opacity:0.446809;stroke:#000000;stroke-width:0.1"
       id="path7" /></g></svg>
