<?xml version="1.0" encoding="UTF-8" standalone="no"?>
<!-- Created with Inkscape (http://www.inkscape.org/) -->

<svg
   width="512"
   height="512"
   viewBox="0 0 512 512"
   version="1.1"
   id="svg1"
   xml:space="preserve"
   xmlns="http://www.w3.org/2000/svg"
   xmlns:svg="http://www.w3.org/2000/svg"><defs
     id="defs1" /><g
     id="layer13"><path
       d="M 512.05078,0.39648438 453.64844,56.509766 c 0,0 -3.24494,-1.08141 -9.37696,-0.720704 -6.13202,0.360708 -9.74023,6.011719 -9.74023,6.011719 l -44.84766,45.087889 c 0,0 -10.58007,-2.88556 -18.51562,-1.08203 -7.93555,1.80354 -11.66406,7.57617 -11.66406,7.57617 v 12.38282 l -35.58985,17.43554 c 0,0 -10.82108,-2.76642 -19.95898,-0.96289 -9.13791,1.80354 -14.42774,8.05664 -14.42774,8.05664 l -79.23437,-0.36133 c 0,0 -5.05087,-7.6956 -19.83985,-9.3789 -14.78898,-1.68329 -22.60351,1.68359 -22.60351,1.68359 l -47.61328,-29.45703 v -10.09961 c 0,0 -5.89175,-6.012251 -10.70117,-7.455078 -4.80943,-1.442827 -13.226566,0.841797 -13.226566,0.841797 L 63.003906,52.783203 V 35.951172 c 0,0 -1.442824,-2.285452 -7.935547,-3.96875 -6.492723,-1.683299 -8.898437,-0.960938 -8.898437,-0.960938 0,0 -20.104381,-11.667597 -44.4941408,-30.97070275 H 0.05078125 V 512.05078 H 1.0820312 C 24.087296,491.15441 39.703125,477.89453 39.703125,477.89453 c 0,0 4.76118,2.21107 11.222656,0.5957 6.461476,-1.61537 9.947266,-4.93164 9.947266,-4.93164 v -4.33593 l 72.267573,-32.5625 13.26368,9.01171 26.01562,-11.98828 -0.0859,-5.10156 41.49024,-11.98633 c 0,0 2.46579,4.75977 9.60742,4.75977 7.14164,0 11.90234,-2.89063 11.90234,-2.89063 l 53.64649,15.47461 c 0,0 3.23138,9.01183 21.76562,8.8418 18.53423,-0.17004 23.29493,-5.95117 23.29493,-5.95117 0,0 2.80521,1.61422 6.29101,0.2539 3.48579,-1.36031 4.50586,-3.82421 4.50586,-3.82421 l 44.21094,-8.16211 c 0,0 0.0856,4.08133 6.20703,5.10156 6.1214,1.02023 10.20117,-1.53125 10.20117,-1.53125 l 12.75391,9.35156 v 22.95508 c 0,0 6.1207,8.67303 19.46875,8.41797 13.34805,-0.25505 19.1289,-2.80664 19.1289,-2.80664 v 8.41797 c 0,0 1.61702,2.38097 6.12305,2.21093 4.50603,-0.17004 7.31055,-1.44531 7.31055,-1.44531 l 41.66797,36.28125 h 0.14062 z"
       style="fill:#a351b3;fill-opacity:0.446809;stroke:#000000;stroke-width:0.1"
       id="path6" /></g></svg>
