<?xml version="1.0" encoding="UTF-8" standalone="no"?>
<!-- Created with Inkscape (http://www.inkscape.org/) -->

<svg
   width="512"
   height="512"
   viewBox="0 0 512 512"
   version="1.1"
   id="svg1"
   xml:space="preserve"
   xmlns="http://www.w3.org/2000/svg"
   xmlns:svg="http://www.w3.org/2000/svg"><defs
     id="defs1" /><g
     id="layer13"><path
       d="M 512.05078,0.39648438 V 0.05078125 H 1.6757812 C 26.065541,19.353887 46.169922,31.021484 46.169922,31.021484 c 0,0 2.405714,-0.722361 8.898437,0.960938 6.492723,1.683298 7.935547,3.96875 7.935547,3.96875 v 16.832031 l 33.304688,43.285156 c 0,0 8.417136,-2.284624 13.226566,-0.841797 4.80942,1.442827 10.70117,7.455078 10.70117,7.455078 v 10.09961 l 47.61328,29.45703 c 0,0 7.81453,-3.36688 22.60351,-1.68359 14.78898,1.6833 19.83985,9.3789 19.83985,9.3789 l 79.23437,0.36133 c 0,0 5.28983,-6.2531 14.42774,-8.05664 9.1379,-1.80353 19.95898,0.96289 19.95898,0.96289 l 35.58985,-17.43554 v -12.38282 c 0,0 3.72851,-5.77263 11.66406,-7.57617 7.93555,-1.80353 18.51562,1.08203 18.51562,1.08203 l 44.84766,-45.087889 c 0,0 3.60821,-5.651011 9.74023,-6.011719 6.13202,-0.360706 9.37696,0.720704 9.37696,0.720704 z"
       style="fill:#a351b3;fill-opacity:0.446809;stroke:#000000;stroke-width:0.1"
       id="path5" /></g></svg>
