<?xml version="1.0" encoding="UTF-8" standalone="no"?>
<!-- Created with Inkscape (http://www.inkscape.org/) -->

<svg
   width="512"
   height="512"
   viewBox="0 0 512 512"
   version="1.1"
   id="svg1"
   inkscape:version="1.4.2 (f4327f4, 2025-05-13)"
   sodipodi:docname="tile_basic_F_inkscape.svg"
   xml:space="preserve"
   inkscape:export-filename="tile_basic_F_city.svg"
   inkscape:export-xdpi="96"
   inkscape:export-ydpi="96"
   xmlns:inkscape="http://www.inkscape.org/namespaces/inkscape"
   xmlns:sodipodi="http://sodipodi.sourceforge.net/DTD/sodipodi-0.dtd"
   xmlns:xlink="http://www.w3.org/1999/xlink"
   xmlns="http://www.w3.org/2000/svg"
   xmlns:svg="http://www.w3.org/2000/svg"><sodipodi:namedview
     id="namedview1"
     pagecolor="#ffffff"
     bordercolor="#000000"
     borderopacity="0.25"
     inkscape:showpageshadow="2"
     inkscape:pageopacity="0.0"
     inkscape:pagecheckerboard="0"
     inkscape:deskcolor="#d1d1d1"
     inkscape:document-units="px"
     labelstyle="default"
     inkscape:zoom="2.0792508"
     inkscape:cx="180.11295"
     inkscape:cy="237.82605"
     inkscape:window-width="2560"
     inkscape:window-height="1369"
     inkscape:window-x="-8"
     inkscape:window-y="-8"
     inkscape:window-maximized="1"
     inkscape:current-layer="layer13" /><defs
     id="defs1" /><image
     width="512"
     height="512"
     preserveAspectRatio="none"
     xlink:href="tile_basic_F.png"
     id="image1"
     x="0"
     y="0"
     inkscape:label="tile_basic_F"
     sodipodi:insensitive="true" /><path
     style="display:none;fill:#a351b3;fill-opacity:0.446809;stroke:#000000;stroke-width:0.1"
     d="M -10.099792,-9.6188493 C 19.237699,15.390159 46.170476,31.020789 46.170476,31.020789 c 0,0 2.404713,-0.721414 8.897436,0.961885 6.492723,1.683298 7.935551,3.967775 7.935551,3.967775 v 16.832986 l 33.305265,43.284822 c 0,0 8.416492,-2.284477 13.225922,-0.841649 4.80942,1.442827 10.70097,7.454612 10.70097,7.454612 v 10.09979 l 47.6133,29.45772 c 0,0 7.81531,-3.36659 22.6043,-1.6833 14.78898,1.6833 19.83887,9.37838 19.83887,9.37838 l 79.23527,0.36071 c 0,0 5.29037,-6.25225 14.42828,-8.05579 9.1379,-1.80353 19.95911,0.96189 19.95911,0.96189 l 35.58974,-17.43417 v -12.38426 c 0,0 3.72731,-5.77131 11.66286,-7.57485 7.93555,-1.80353 18.51628,1.08212 18.51628,1.08212 l 44.84789,-45.088353 c 0,0 3.60706,-5.651074 9.73908,-6.011781 6.13202,-0.360707 9.37838,0.721413 9.37838,0.721413 l 68.37025,-65.6928363 z"
     id="path1"
     inkscape:label="field_top"
     sodipodi:insensitive="true" /><path
     style="display:none;fill:#a351b3;fill-opacity:0.446809;stroke:#000000;stroke-width:0.1"
     d="m -4.1659515,516.83305 c 25.8459035,-23.6354 43.8700205,-38.93889 43.8700205,-38.93889 0,0 4.761087,2.2105 11.222563,0.59513 6.461476,-1.61537 9.947272,-4.93112 9.947272,-4.93112 v -4.33599 l 72.266506,-32.56244 13.26303,9.01206 26.01594,-11.98774 -0.085,-5.10117 41.48948,-11.98774 c 0,0 2.46556,4.76109 9.60719,4.76109 7.14164,0 11.90272,-2.89066 11.90272,-2.89066 l 53.64726,15.47354 c 0,0 3.23073,9.01205 21.76497,8.84202 18.53423,-0.17004 23.29532,-5.95136 23.29532,-5.95136 0,0 2.80564,1.61537 6.29144,0.25505 3.48579,-1.36031 4.50602,-3.82587 4.50602,-3.82587 l 44.2101,-8.16186 c 0,0 0.085,4.08093 6.20642,5.10116 6.1214,1.02023 10.20233,-1.53035 10.20233,-1.53035 l 12.75291,9.35214 v 22.95524 c 0,0 6.1214,8.67198 19.46945,8.41692 13.34805,-0.25505 19.12937,-2.80564 19.12937,-2.80564 v 8.41693 c 0,0 1.61537,2.38054 6.1214,2.2105 4.50603,-0.17004 7.31167,-1.44533 7.31167,-1.44533 l 54.58247,47.52586 z"
     id="path2"
     inkscape:label="field_bottom"
     sodipodi:insensitive="true" /><rect
     style="display:none;fill:#a351b3;fill-opacity:0.446809;stroke:#000000;stroke-width:0.1"
     id="rect2"
     width="512"
     height="512"
     x="0.050000001"
     y="0.050000001"
     inkscape:label="city"
     sodipodi:insensitive="true" /><g
     inkscape:groupmode="layer"
     id="layer13"
     inkscape:label="cut"><path
       d="m 511.91016,512.05078 -41.66797,-36.28125 c 0,0 -2.80452,1.27527 -7.31055,1.44531 -4.50603,0.17004 -6.12305,-2.21093 -6.12305,-2.21093 v -8.41797 c 0,0 -5.78085,2.55159 -19.1289,2.80664 -13.34805,0.25506 -19.46875,-8.41797 -19.46875,-8.41797 v -22.95508 l -12.75391,-9.35156 c 0,0 -4.07977,2.55148 -10.20117,1.53125 -6.12142,-1.02023 -6.20703,-5.10156 -6.20703,-5.10156 l -44.21094,8.16211 c 0,0 -1.02007,2.4639 -4.50586,3.82421 -3.4858,1.36032 -6.29101,-0.2539 -6.29101,-0.2539 0,0 -4.7607,5.78113 -23.29493,5.95117 -18.53424,0.17003 -21.76562,-8.8418 -21.76562,-8.8418 l -53.64649,-15.47461 c 0,0 -4.7607,2.89063 -11.90234,2.89063 -7.14163,0 -9.60742,-4.75977 -9.60742,-4.75977 l -41.49024,11.98633 0.0859,5.10156 -26.01562,11.98828 -13.26368,-9.01171 -72.267573,32.5625 v 4.33593 c 0,0 -3.48579,3.31627 -9.947266,4.93164 -6.461476,1.61537 -11.222656,-0.5957 -11.222656,-0.5957 0,0 -15.615829,13.25988 -38.6210938,34.15625 z"
       style="fill:#a351b3;fill-opacity:0.446809;stroke:#000000;stroke-width:0.1"
       id="path7"
       inkscape:label="field_bottom" /><path
       d="M 512.05078,0.39648438 453.64844,56.509766 c 0,0 -3.24494,-1.08141 -9.37696,-0.720704 -6.13202,0.360708 -9.74023,6.011719 -9.74023,6.011719 l -44.84766,45.087889 c 0,0 -10.58007,-2.88556 -18.51562,-1.08203 -7.93555,1.80354 -11.66406,7.57617 -11.66406,7.57617 v 12.38282 l -35.58985,17.43554 c 0,0 -10.82108,-2.76642 -19.95898,-0.96289 -9.13791,1.80354 -14.42774,8.05664 -14.42774,8.05664 l -79.23437,-0.36133 c 0,0 -5.05087,-7.6956 -19.83985,-9.3789 -14.78898,-1.68329 -22.60351,1.68359 -22.60351,1.68359 l -47.61328,-29.45703 v -10.09961 c 0,0 -5.89175,-6.012251 -10.70117,-7.455078 -4.80943,-1.442827 -13.226566,0.841797 -13.226566,0.841797 L 63.003906,52.783203 V 35.951172 c 0,0 -1.442824,-2.285452 -7.935547,-3.96875 -6.492723,-1.683299 -8.898437,-0.960938 -8.898437,-0.960938 0,0 -20.104381,-11.667597 -44.4941408,-30.97070275 H 0.05078125 V 512.05078 H 1.0820312 C 24.087296,491.15441 39.703125,477.89453 39.703125,477.89453 c 0,0 4.76118,2.21107 11.222656,0.5957 6.461476,-1.61537 9.947266,-4.93164 9.947266,-4.93164 v -4.33593 l 72.267573,-32.5625 13.26368,9.01171 26.01562,-11.98828 -0.0859,-5.10156 41.49024,-11.98633 c 0,0 2.46579,4.75977 9.60742,4.75977 7.14164,0 11.90234,-2.89063 11.90234,-2.89063 l 53.64649,15.47461 c 0,0 3.23138,9.01183 21.76562,8.8418 18.53423,-0.17004 23.29493,-5.95117 23.29493,-5.95117 0,0 2.80521,1.61422 6.29101,0.2539 3.48579,-1.36031 4.50586,-3.82421 4.50586,-3.82421 l 44.21094,-8.16211 c 0,0 0.0856,4.08133 6.20703,5.10156 6.1214,1.02023 10.20117,-1.53125 10.20117,-1.53125 l 12.75391,9.35156 v 22.95508 c 0,0 6.1207,8.67303 19.46875,8.41797 13.34805,-0.25505 19.1289,-2.80664 19.1289,-2.80664 v 8.41797 c 0,0 1.61702,2.38097 6.12305,2.21093 4.50603,-0.17004 7.31055,-1.44531 7.31055,-1.44531 l 41.66797,36.28125 h 0.14062 z"
       style="fill:#a351b3;fill-opacity:0.446809;stroke:#000000;stroke-width:0.1"
       id="path6"
       inkscape:label="city" /><path
       d="M 512.05078,0.39648438 V 0.05078125 H 1.6757812 C 26.065541,19.353887 46.169922,31.021484 46.169922,31.021484 c 0,0 2.405714,-0.722361 8.898437,0.960938 6.492723,1.683298 7.935547,3.96875 7.935547,3.96875 v 16.832031 l 33.304688,43.285156 c 0,0 8.417136,-2.284624 13.226566,-0.841797 4.80942,1.442827 10.70117,7.455078 10.70117,7.455078 v 10.09961 l 47.61328,29.45703 c 0,0 7.81453,-3.36688 22.60351,-1.68359 14.78898,1.6833 19.83985,9.3789 19.83985,9.3789 l 79.23437,0.36133 c 0,0 5.28983,-6.2531 14.42774,-8.05664 9.1379,-1.80353 19.95898,0.96289 19.95898,0.96289 l 35.58985,-17.43554 v -12.38282 c 0,0 3.72851,-5.77263 11.66406,-7.57617 7.93555,-1.80353 18.51562,1.08203 18.51562,1.08203 l 44.84766,-45.087889 c 0,0 3.60821,-5.651011 9.74023,-6.011719 6.13202,-0.360706 9.37696,0.720704 9.37696,0.720704 z"
       style="fill:#a351b3;fill-opacity:0.446809;stroke:#000000;stroke-width:0.1"
       id="path5"
       inkscape:label="field_top" /></g></svg>
