<?xml version="1.0" encoding="UTF-8" standalone="no"?>
<!-- Created with Inkscape (http://www.inkscape.org/) -->

<svg
   width="512"
   height="512"
   viewBox="0 0 512 512"
   version="1.1"
   id="svg1"
   xml:space="preserve"
   xmlns="http://www.w3.org/2000/svg"
   xmlns:svg="http://www.w3.org/2000/svg"><defs
     id="defs1" /><g
     id="layer18"
     style="display:inline"><path
       d="m 37.652344,231.01953 c -13.767354,0.56798 -24.402495,3.36967 -37.31445337,4.68555 v 38.38672 c 7.85099857,-1.50709 17.51509437,-3.29685 27.55664037,-5.00391 24.047123,-4.08801 36.311013,2.40334 51.701172,11.30078 15.390158,8.89743 38.475547,22.12494 61.320317,28.13672 11.7721,3.09792 24.23164,4.75364 33.54492,5.63086 v -11.64258 l -1.92188,-1.56445 18.93164,-26.7461 c -5.15528,-6.12703 -13.13099,-10.31504 -23.7207,-10.41406 -0.21414,-0.002 -0.42825,-0.001 -0.64453,0 -11.75438,0.0739 -18.46781,0.20208 -25.58203,-1.04297 -6.6817,-1.16934 -13.71867,-3.55059 -25.61719,-8.32812 -18.152486,-7.28865 -36.549881,-20.91974 -63.242188,-23.08399 -5.48552,-0.44477 -10.4226,-0.50377 -15.011718,-0.31445 z"
       style="fill:#a351b3;fill-opacity:0.446809;stroke:#000000;stroke-width:0.675905"
       id="path32" /></g></svg>
