<?xml version="1.0" encoding="UTF-8" standalone="no"?>
<!-- Created with Inkscape (http://www.inkscape.org/) -->

<svg
   width="512"
   height="512"
   viewBox="0 0 512 512"
   version="1.1"
   id="svg1"
   inkscape:version="1.4.2 (f4327f4, 2025-05-13)"
   sodipodi:docname="tile_basic_L_inkscape.svg"
   xml:space="preserve"
   inkscape:export-filename="tile_basic_L_field_right.svg"
   inkscape:export-xdpi="96"
   inkscape:export-ydpi="96"
   xmlns:inkscape="http://www.inkscape.org/namespaces/inkscape"
   xmlns:sodipodi="http://sodipodi.sourceforge.net/DTD/sodipodi-0.dtd"
   xmlns:xlink="http://www.w3.org/1999/xlink"
   xmlns="http://www.w3.org/2000/svg"
   xmlns:svg="http://www.w3.org/2000/svg"><sodipodi:namedview
     id="namedview1"
     pagecolor="#ffffff"
     bordercolor="#000000"
     borderopacity="0.25"
     inkscape:showpageshadow="2"
     inkscape:pageopacity="0.0"
     inkscape:pagecheckerboard="0"
     inkscape:deskcolor="#d1d1d1"
     inkscape:document-units="px"
     labelstyle="default"
     inkscape:zoom="1.4142136"
     inkscape:cx="208.95005"
     inkscape:cy="324.91556"
     inkscape:window-width="2560"
     inkscape:window-height="1369"
     inkscape:window-x="-8"
     inkscape:window-y="-8"
     inkscape:window-maximized="1"
     inkscape:current-layer="layer18" /><defs
     id="defs1" /><g
     inkscape:label="Layer 1"
     inkscape:groupmode="layer"
     id="layer1"
     style="display:inline"
     sodipodi:insensitive="true"><image
       width="512"
       height="512"
       preserveAspectRatio="none"
       xlink:href="tile_basic_L.png"
       id="image1"
       x="0"
       y="0"
       inkscape:label="tile_basic_L"
       style="display:inline"
       sodipodi:insensitive="true" /><path
       style="display:none;fill:#a351b3;fill-opacity:0.446809;stroke:#000000;stroke-width:0.1"
       d="m -11.542619,236.38322 c 23.806652,-0.24047 37.513512,-7.21414 64.205819,-5.0499 26.692306,2.16425 45.091444,15.79659 63.24393,23.08524 24.56726,9.86433 28.40331,9.51368 51.19743,9.37045 31.05942,-0.19517 40.11,34.45381 22.09296,51.32791 0,0 -25.43661,-0.58056 -48.28138,-6.59233 -22.84477,-6.01178 -45.930004,-19.2377 -61.320162,-28.13513 -15.390159,-8.89744 -27.654192,-15.39016 -51.701315,-11.30215 -24.0471233,4.08801 -45.930005,8.65696 -45.930005,8.65696 z"
       id="path1"
       inkscape:label="road_left"
       sodipodi:nodetypes="cssscssscc"
       sodipodi:insensitive="true" /><path
       style="display:none;fill:#a351b3;fill-opacity:0.446809;stroke:#000000;stroke-width:0.1"
       d="m 521.76418,234.6536 c -18.27918,0.42509 -21.76498,-1.87043 -34.60291,-6.20642 -12.83793,-4.33599 -32.64745,-11.13754 -49.73636,-12.2428 -17.0889,-1.10525 -32.05232,-3.14572 -61.299,8.24689 -29.24668,11.3926 -38.93889,49.14122 -5.44124,38.93889 33.49765,-10.20233 39.27897,-11.22256 60.70386,-10.37237 21.4249,0.8502 38.25874,5.95136 53.3922,11.22257 15.13346,5.2712 23.29532,8.67197 37.91866,7.65174 14.62334,-1.02023 -0.93521,-37.2385 -0.93521,-37.2385 z"
       id="path2"
       sodipodi:nodetypes="csssssssc"
       inkscape:label="road_right"
       sodipodi:insensitive="true" /><path
       style="display:none;fill:#a351b3;fill-opacity:0.446809;stroke:#000000;stroke-width:0.1"
       d="m 236.38322,521.5821 c 0,-25.48995 -4.32848,-30.41961 -13.34615,-41.24081 -9.01767,-10.82121 -29.57796,-34.14692 -28.97679,-53.50485 0.60118,-19.35794 11.90333,-20.921 33.42551,-38.59564 15.77806,-12.9574 -6.77875,-63.07799 36.79209,-64.80699 30.29938,-1.20235 36.17321,44.6709 21.40195,65.40818 -17.98409,25.24774 -41.24224,31.22746 -41.36106,52.42272 -0.0888,15.84752 17.01067,17.72992 28.13514,37.75398 8.41649,15.14969 -1.6833,44.24671 -3.3666,54.10603 -1.93286,11.32105 -32.70409,-11.54262 -32.70409,-11.54262 z"
       id="path3"
       sodipodi:nodetypes="cssssssssc"
       inkscape:label="road_bottom"
       sodipodi:insensitive="true" /><path
       style="display:none;fill:#a351b3;fill-opacity:0.446809;stroke:#000000;stroke-width:0.1"
       d="m 187.29778,194.69447 12.2428,-14.19824 c 0,0 4.84611,-1.10526 12.58287,-4.93113 7.73677,-3.82588 31.45719,-15.38851 31.45719,-15.38851 l 21.50991,32.39239 h 1.78541 l 12.15777,9.86226 -2.55058,1.95544 0.25506,13.51809 -51.60679,26.78112 -36.04823,-19.46945 0.40814,-30.73533 -1.95383,1.08212 z"
       id="path4"
       sodipodi:nodetypes="ccsccccccccccc"
       inkscape:label="house_2"
       sodipodi:insensitive="true" /><path
       style="display:none;fill:#a351b3;fill-opacity:0.446809;stroke:#000000;stroke-width:0.1"
       d="m 113.841,201.58104 c 0,0 3.65584,-3.14572 6.97159,-7.48171 3.31576,-4.33599 7.11811,-10.49954 7.11811,-10.49954 0,0 8.50667,4.3886 14.21786,6.73319 5.71119,2.34459 15.11963,5.95166 15.11963,5.95166 l 12.08368,12.86521 -0.48095,1.53301 -3.42671,-0.511 v 13.37621 l -21.59135,12.89094 -27.1212,-14.28327 0.1073,-19.19802 z"
       id="path5"
       inkscape:label="house_1"
       sodipodi:insensitive="true" /><path
       style="display:none;fill:#a351b3;fill-opacity:0.446809;stroke:#000000;stroke-width:0.1"
       d="m 307.68294,235.06063 c 0,0 7.64332,-6.84139 12.02356,-12.1438 4.56895,-5.53084 12.98545,-16.71275 12.98545,-16.71275 l 12.1438,10.09979 27.65419,-13.10568 c 0,0 3.12612,2.64518 5.77131,5.89155 2.64518,3.24636 3.96777,6.37248 6.73319,9.61885 2.76542,3.24636 4.44872,5.04989 4.44872,5.04989 l -3.48683,2.76542 0.12023,20.921 -7.45461,2.76542 6.85343,9.97955 -0.84164,1.08212 -2.40472,-0.48094 v 19.47817 l -37.99445,13.10568 -35.95045,-28.0149 0.84165,-28.97678 z"
       id="path6"
       sodipodi:nodetypes="cscccsscccccccccccc"
       inkscape:label="house3"
       sodipodi:insensitive="true" /><path
       style="display:none;fill:#a351b3;fill-opacity:0.446809;stroke:#000000;stroke-width:0.1"
       d="m 172.53811,300.94975 22.72453,-32.10291 39.07658,18.99722 16.71275,19.59841 -0.12024,2.28448 -6.85343,-2.28448 v 20.07935 c 0,0 -8.89744,5.53084 -14.78898,8.41649 -5.89155,2.88566 -19.11746,7.33437 -19.11746,7.33437 l -35.70998,-18.63652 v -22.12335 z"
       id="path7"
       inkscape:label="house_5"
       sodipodi:insensitive="true" /><path
       style="display:none;fill:#a351b3;fill-opacity:0.446809;stroke:#000000;stroke-width:0.1"
       d="m 126.30751,354.93554 c -0.12023,-0.24047 0.30059,-12.68486 0.30059,-12.68486 l -2.94577,-0.96188 c 0,0 3.54695,-3.66719 5.53084,-6.25226 1.98389,-2.58506 5.65107,-7.75519 5.65107,-7.75519 l 19.2377,-9.49862 c 0,0 4.80943,5.95167 8.11591,8.65697 3.30648,2.7053 9.7992,8.17602 9.7992,8.17602 l -2.52495,1.62318 v 19.2377 l -21.88288,12.1438 z"
       id="path8"
       inkscape:label="house_6"
       sodipodi:insensitive="true" /><path
       style="display:none;fill:#a351b3;fill-opacity:0.446809;stroke:#000000;stroke-width:0.1"
       d="m 289.06603,322.13858 15.55855,-15.64357 c 0,0 11.98774,-4.16595 19.21439,-7.39669 7.22665,-3.23074 20.1496,-9.43716 20.1496,-9.43716 l 19.29941,26.18598 -4.16595,2.72062 v 23.46536 l -37.06847,19.46945 -29.7568,-12.41283 v -25.84591 l -2.72062,-0.085 z"
       id="path9"
       inkscape:label="house_4"
       sodipodi:insensitive="true" /><path
       style="display:none;fill:#a351b3;fill-opacity:0.446809;stroke:#000000;stroke-width:0.1"
       d="m -4.5910486,-4.9311263 c 0,0 22.6151656,24.4855923 38.4287776,41.3194373 15.813612,16.833845 20.064583,24.315554 34.687923,38.258739 14.62334,13.943185 35.368078,32.98753 35.368078,32.98753 v 5.95136 c 0,0 4.07785,6.46932 10.57058,7.01038 6.49272,0.54106 11.30214,-0.96188 11.30214,-0.96188 l 50.37873,19.29781 v 3.54695 c 0,0 5.53084,6.79332 20.74064,5.7112 15.20981,-1.08212 17.13358,-9.19803 17.13358,-9.19803 0,0 17.13357,-0.24047 36.61174,-1.6833 19.47817,-1.44282 37.15281,-3.66718 37.15281,-3.66718 0,0 6.13201,6.25225 19.95911,5.35048 13.82709,-0.90177 17.73475,-5.23025 17.73475,-5.23025 V 127.9307 L 414.5724,99.434854 c 0,0 4.56896,5.651076 16.47228,1.803536 11.90333,-3.847541 12.26404,-8.416495 12.26404,-8.416495 V 61.199928 c 0,0 18.87699,-17.193693 25.36971,-21.281704 6.49272,-4.08801 16.83299,-14.428273 19.59841,-17.915106 2.76542,-3.486833 28.97678,-26.692307 28.97678,-26.692307 z"
       id="path10"
       inkscape:label="city"
       sodipodi:insensitive="true" /><path
       style="display:none;fill:#a351b3;fill-opacity:0.446809;stroke:#000000;stroke-width:0.1"
       d="m 290.42634,355.21113 30.77703,16.66381 c 0,0 17.514,-5.10117 22.7852,-8.84202 5.2712,-3.74085 30.26691,-15.3035 33.32761,-19.7245 3.0607,-4.42101 1.53035,-6.80156 -2.38054,-10.0323 -3.91089,-3.23073 -76.1774,-38.76885 -76.1774,-38.76885 z"
       id="path11"
       inkscape:label="fence_4"
       sodipodi:insensitive="true" /><path
       style="display:none;fill:#a351b3;fill-opacity:0.446809;stroke:#000000;stroke-width:0.1"
       d="m 269.00144,219.52014 c 24.99571,-0.34008 32.08071,-0.0555 50.84162,14.28326 l -34.51789,19.72451 z"
       id="path12"
       sodipodi:nodetypes="cccc"
       inkscape:label="fence_3"
       sodipodi:insensitive="true" /><path
       style="display:none;fill:#a351b3;fill-opacity:0.446809;stroke:#000000;stroke-width:0.1"
       d="m 160.17659,215.94933 c 12.41283,-4.08094 21.03026,-4.71877 33.32761,1.19027 l -16.49377,20.5747 z"
       id="path13"
       sodipodi:nodetypes="cccc"
       inkscape:label="fence_2"
       sodipodi:insensitive="true" /><path
       style="display:none;fill:#a351b3;fill-opacity:0.446809;stroke:#000000;stroke-width:0.1"
       d="m 119.02719,217.81976 c -11.56264,14.45329 -18.70428,11.56263 -19.044353,17.51399 -0.340077,5.95136 3.230733,10.71245 19.384423,16.32373 16.15369,5.61128 26.6961,13.43307 34.51789,21.93501 7.82179,8.50194 21.08481,-24.65563 21.08481,-24.65563 z"
       id="path14"
       sodipodi:nodetypes="cssscc"
       inkscape:label="fence_1"
       sodipodi:insensitive="true" /><path
       style="display:none;fill:#a351b3;fill-opacity:0.446809;stroke:#000000;stroke-width:0.1"
       d="m 175.31004,314.74189 -24.14551,10.54241 -20.91478,19.21439 c 0,0 -12.07276,7.65174 -15.98365,11.22256 -3.91089,3.57082 -0.85019,4.25097 -4.93113,7.48171 -4.08093,3.23074 -11.392599,5.78132 -13.773143,9.52217 -2.380543,3.74086 -4.506029,9.26712 -2.635602,11.64766 1.870428,2.38055 15.473535,9.86226 25.505825,14.62334 10.03229,4.76109 14.02821,7.82179 24.31556,9.1821 10.28734,1.36031 17.25894,4.08093 24.14551,6.5465 6.88657,2.46556 7.56673,2.29552 19.55447,1.87042 11.98773,-0.42509 51.60678,-4.42101 51.60678,-4.42101 l 12.41284,-78.89802 z"
       id="path15"
       sodipodi:nodetypes="cccssssssssccc"
       inkscape:label="fence_5"
       sodipodi:insensitive="true" /><rect
       style="display:none;fill:#a351b3;fill-opacity:0.446809;stroke:#000000;stroke-width:0.675905"
       id="rect15"
       width="511.3241"
       height="511.3241"
       x="0.33795261"
       y="0.33795261"
       inkscape:label="field"
       sodipodi:insensitive="true" /></g><g
     inkscape:groupmode="layer"
     id="layer18"
     inkscape:label="cut"
     style="display:inline"><path
       d="m 511.66211,271.76758 c -8.69125,-0.90159 -15.97581,-3.72896 -26.88086,-7.52735 -15.13346,-5.27121 -31.96768,-10.37245 -53.39258,-11.22265 -18.00587,-0.71452 -24.96371,-0.10763 -46.60937,6.16015 l 0.69531,1.01172 -0.8418,1.08203 -2.40429,-0.48046 v 19.47851 l -36.00782,12.41992 17.06641,23.15821 -4.16602,2.7207 v 6.12109 c 8.49154,4.36484 14.73882,7.69737 15.81446,8.58594 3.91089,3.23074 5.44156,5.61219 2.38086,10.0332 -3.0607,4.421 -28.05693,15.98376 -33.32813,19.72461 -5.2712,3.74085 -22.78516,8.8418 -22.78516,8.8418 l -27.93164,-15.12305 c 0.88574,11.64527 -1.72337,23.85121 -7.59179,32.08985 -17.98409,25.24774 -41.24251,31.22856 -41.36133,52.42382 -0.0888,15.84752 17.0103,17.72985 28.13476,37.75391 4.6992,8.45856 3.6262,21.26419 1.46875,32.64258 h 237.74024 z"
       style="fill:#a351b3;fill-opacity:0.446809;stroke:#000000;stroke-width:0.675905"
       id="path38"
       inkscape:label="field_right" /><path
       d="m 236.10547,511.66211 c -1.0847,-17.13262 -5.36546,-22.07684 -13.06836,-31.32031 -9.01767,-10.82121 -29.57773,-34.14793 -28.97656,-53.50586 0.13667,-4.40093 0.8253,-7.88194 2.0625,-10.8418 -3.94463,0.29874 -7.33618,0.5186 -9.67578,0.60156 -11.98774,0.4251 -12.66812,0.59447 -19.55469,-1.87109 -6.88657,-2.46557 -13.85719,-5.18657 -24.14453,-6.54688 -10.28735,-1.36031 -14.28412,-4.42055 -24.31641,-9.18164 -10.03229,-4.76108 -23.635431,-12.24249 -25.505859,-14.62304 -1.870427,-2.38054 0.256176,-7.90758 2.636719,-11.64844 2.380544,-3.74085 9.69251,-6.29074 13.77344,-9.52149 4.08094,-3.23073 1.0188,-3.9116 4.92969,-7.48242 2.49405,-2.27719 8.30855,-6.21397 12.19335,-8.76758 0.0766,-2.53989 0.14844,-4.70312 0.14844,-4.70312 l -2.94531,-0.96094 c 0,0 3.54736,-3.66688 5.53125,-6.25195 1.98389,-2.58506 5.65039,-7.75586 5.65039,-7.75586 l 19.23828,-9.49805 c 0,0 1.7735,2.19439 3.90625,4.52344 l 16.47266,-7.19336 v -0.95703 c -9.31328,-0.87722 -21.77282,-2.53294 -33.54492,-5.63086 C 118.07125,302.51361 94.985861,289.2861 79.595703,280.38867 64.205544,271.49123 51.941654,264.99988 27.894531,269.08789 17.852985,270.79495 8.1888892,272.58471 0.33789063,274.0918 v 237.57031 z"
       style="fill:#a351b3;fill-opacity:0.446809;stroke:#000000;stroke-width:0.675905"
       id="path37"
       inkscape:label="field_left" /><path
       d="M 511.60547,0.33789063 C 503.73759,7.3680133 490.22043,19.553927 488.27734,22.003906 c -2.76542,3.486833 -13.10689,13.826053 -19.59961,17.914063 -6.49272,4.088011 -25.36914,21.28125 -25.36914,21.28125 v 31.623047 c 0,0 -0.36034,4.568474 -12.26367,8.416014 -11.90332,3.84754 -16.47265,-1.802733 -16.47265,-1.802733 l -89.09375,28.496093 v 5.83008 c 0,0 -3.90924,4.3287 -17.73633,5.23047 -13.8271,0.90177 -19.95899,-5.34961 -19.95899,-5.34961 0,0 -17.67417,2.22319 -37.15234,3.66601 -19.47817,1.44283 -36.61133,1.6836 -36.61133,1.6836 0,0 -1.923,8.11514 -17.13281,9.19726 -15.2098,1.08212 -20.74219,-5.71093 -20.74219,-5.71093 v -3.54688 l -50.3789,-19.29687 c 0,0 -4.80807,1.50199 -11.30079,0.96093 -6.49273,-0.54106 -10.57031,-7.00976 -10.57031,-7.00976 v -5.95117 c 0,0 -20.745799,-19.045101 -35.369139,-32.988286 C 53.902051,60.703299 49.651503,53.222517 33.837891,36.388672 22.580753,24.405267 7.8767044,8.5437611 0.33789063,0.3984375 V 235.70508 c 17.21594537,-1.7545 30.38408837,-6.15018 52.32617137,-4.3711 26.692307,2.16425 45.089702,15.79534 63.242188,23.08399 11.89852,4.77753 18.93549,7.15878 25.61719,8.32812 -5.99299,-4.20064 -13.2154,-7.98212 -22.15625,-11.08789 -16.15369,-5.61128 -19.724845,-10.37286 -19.384768,-16.32422 0.317068,-5.54884 6.546888,-3.41247 16.759768,-14.8125 l 0.0977,-17.56445 -2.99804,-1.37695 c 0,0 3.65495,-3.14448 6.9707,-7.48047 3.31576,-4.33599 7.11914,-10.5 7.11914,-10.5 0,0 8.50561,4.38783 14.2168,6.73242 5.71119,2.34459 15.11914,5.95313 15.11914,5.95313 l 12.08398,12.86523 -0.48047,1.5332 -3.42773,-0.51172 v 4.20704 c 8.38928,-2.19544 15.33695,-2.29897 23.77344,0.9082 l 0.27539,-20.80664 -1.95508,1.08203 -0.24024,-0.86719 12.24415,-14.19922 c 0,0 4.84527,-1.10577 12.58203,-4.93164 7.73677,-3.82588 31.45703,-15.38867 31.45703,-15.38867 l 21.50976,32.39258 h 1.78516 l 12.1582,9.86328 -2.55078,1.95508 0.25586,13.51758 -3.00586,1.56054 c 18.60359,-0.16252 26.54402,0.68524 39.98633,9.88086 2.05977,-2.04399 4.27432,-4.35488 5.98828,-6.42968 4.56895,-5.53084 12.98438,-16.7129 12.98438,-16.7129 l 12.14453,10.10157 27.65429,-13.10742 c 0,0 3.1263,2.6462 5.77149,5.89257 2.64518,3.24636 3.967,6.37277 6.73242,9.61914 0.63056,0.74022 1.20589,1.40432 1.7168,1.99024 22.53618,-7.13318 35.81799,-5.45762 50.71484,-4.49414 17.08891,1.10526 36.8984,7.9062 49.73633,12.24219 10.03711,3.39001 14.35684,5.53306 24.5,6.10351 V 0.33789063 Z"
       style="fill:#a351b3;fill-opacity:0.446809;stroke:#000000;stroke-width:0.675905"
       id="path36"
       inkscape:label="field_top" /><path
       d="M 511.60547,0.33789063 H 0.33789063 V 0.3984375 C 7.8767044,8.5437611 22.580753,24.405267 33.837891,36.388672 c 15.813612,16.833845 20.06416,24.314627 34.6875,38.257812 14.62334,13.943185 35.369139,32.988286 35.369139,32.988286 v 5.95117 c 0,0 4.07758,6.4687 10.57031,7.00976 6.49272,0.54106 11.30079,-0.96093 11.30079,-0.96093 l 50.3789,19.29687 v 3.54688 c 0,0 5.53239,6.79305 20.74219,5.71093 15.20981,-1.08212 17.13281,-9.19726 17.13281,-9.19726 0,0 17.13316,-0.24077 36.61133,-1.6836 19.47817,-1.44282 37.15234,-3.66601 37.15234,-3.66601 0,0 6.13189,6.25138 19.95899,5.34961 13.82709,-0.90177 17.73633,-5.23047 17.73633,-5.23047 v -5.83008 l 89.09375,-28.496093 c 0,0 4.56933,5.650273 16.47265,1.802733 11.90333,-3.84754 12.26367,-8.416014 12.26367,-8.416014 V 61.199219 c 0,0 18.87642,-17.193239 25.36914,-21.28125 6.49272,-4.08801 16.83419,-14.42723 19.59961,-17.914063 1.94309,-2.449979 15.46025,-14.6358927 23.32813,-21.66601537 z"
       style="fill:#a351b3;fill-opacity:0.446809;stroke:#000000;stroke-width:0.675905"
       id="path35"
       inkscape:label="city" /><path
       d="m 511.66211,234.55078 c -10.14316,-0.57045 -14.46289,-2.7135 -24.5,-6.10351 -12.83793,-4.33599 -32.64742,-11.13693 -49.73633,-12.24219 -14.89685,-0.96348 -28.17866,-2.63904 -50.71484,4.49414 1.72977,1.98372 2.73242,3.05859 2.73242,3.05859 l -3.48633,2.76563 0.11914,20.92187 -7.45508,2.76563 6.15821,8.96679 c 21.64566,-6.26778 28.6035,-6.87467 46.60937,-6.16015 21.4249,0.8502 38.25912,5.95144 53.39258,11.22265 10.90505,3.79839 18.18961,6.62576 26.88086,7.52735 z"
       style="fill:#a351b3;fill-opacity:0.446809;stroke:#000000;stroke-width:0.675905"
       id="path34"
       inkscape:label="road_right" /><path
       d="m 264.27734,323.43359 c -10.1879,0.40429 -16.76025,3.45461 -21.05273,8.05664 -14.06526,15.0796 -3.64951,46.82235 -15.73828,56.75 -16.62923,13.65641 -27.15854,17.6945 -31.36328,27.75391 -1.2372,2.95986 -1.92583,6.44087 -2.0625,10.8418 -0.60117,19.35793 19.95889,42.68465 28.97656,53.50586 7.7029,9.24347 11.98366,14.18769 13.06836,31.32031 h 37.8164 c 2.15745,-11.37839 3.23045,-24.18402 -1.46875,-32.64258 -11.12446,-20.02406 -28.22356,-21.90639 -28.13476,-37.75391 0.11882,-21.19526 23.37724,-27.17608 41.36133,-52.42382 5.86842,-8.23864 8.47753,-20.44458 7.59179,-32.08985 -0.25973,-3.41488 -0.81865,-6.78206 -1.68554,-9.98633 v -0.002 c -3.61826,-13.372 -12.57732,-23.91465 -27.3086,-23.33008 z"
       style="fill:#a351b3;fill-opacity:0.446809;stroke:#000000;stroke-width:0.675905"
       id="path33"
       inkscape:label="road_bottom" /><path
       d="m 37.652344,231.01953 c -13.767354,0.56798 -24.402495,3.36967 -37.31445337,4.68555 v 38.38672 c 7.85099857,-1.50709 17.51509437,-3.29685 27.55664037,-5.00391 24.047123,-4.08801 36.311013,2.40334 51.701172,11.30078 15.390158,8.89743 38.475547,22.12494 61.320317,28.13672 11.7721,3.09792 24.23164,4.75364 33.54492,5.63086 v -11.64258 l -1.92188,-1.56445 18.93164,-26.7461 c -5.15528,-6.12703 -13.13099,-10.31504 -23.7207,-10.41406 -0.21414,-0.002 -0.42825,-0.001 -0.64453,0 -11.75438,0.0739 -18.46781,0.20208 -25.58203,-1.04297 -6.6817,-1.16934 -13.71867,-3.55059 -25.61719,-8.32812 -18.152486,-7.28865 -36.549881,-20.91974 -63.242188,-23.08399 -5.48552,-0.44477 -10.4226,-0.50377 -15.011718,-0.31445 z"
       style="fill:#a351b3;fill-opacity:0.446809;stroke:#000000;stroke-width:0.675905"
       id="path32"
       inkscape:label="road_left" /></g></svg>
