<?xml version="1.0" encoding="UTF-8" standalone="no"?>
<!-- Created with Inkscape (http://www.inkscape.org/) -->

<svg
   width="512"
   height="512"
   viewBox="0 0 512 512"
   version="1.1"
   id="svg1"
   xml:space="preserve"
   xmlns="http://www.w3.org/2000/svg"
   xmlns:svg="http://www.w3.org/2000/svg"><defs
     id="defs1" /><g
     id="layer18"
     style="display:inline"><path
       d="m 264.27734,323.43359 c -10.1879,0.40429 -16.76025,3.45461 -21.05273,8.05664 -14.06526,15.0796 -3.64951,46.82235 -15.73828,56.75 -16.62923,13.65641 -27.15854,17.6945 -31.36328,27.75391 -1.2372,2.95986 -1.92583,6.44087 -2.0625,10.8418 -0.60117,19.35793 19.95889,42.68465 28.97656,53.50586 7.7029,9.24347 11.98366,14.18769 13.06836,31.32031 h 37.8164 c 2.15745,-11.37839 3.23045,-24.18402 -1.46875,-32.64258 -11.12446,-20.02406 -28.22356,-21.90639 -28.13476,-37.75391 0.11882,-21.19526 23.37724,-27.17608 41.36133,-52.42382 5.86842,-8.23864 8.47753,-20.44458 7.59179,-32.08985 -0.25973,-3.41488 -0.81865,-6.78206 -1.68554,-9.98633 v -0.002 c -3.61826,-13.372 -12.57732,-23.91465 -27.3086,-23.33008 z"
       style="fill:#a351b3;fill-opacity:0.446809;stroke:#000000;stroke-width:0.675905"
       id="path33" /></g></svg>
