<?xml version="1.0" encoding="UTF-8" standalone="no"?>
<!-- Created with Inkscape (http://www.inkscape.org/) -->

<svg
   width="512"
   height="512"
   viewBox="0 0 512 512"
   version="1.1"
   id="svg1"
   xml:space="preserve"
   xmlns="http://www.w3.org/2000/svg"
   xmlns:svg="http://www.w3.org/2000/svg"><defs
     id="defs1" /><g
     id="layer18"
     style="display:inline"><path
       d="M 511.60547,0.33789063 H 0.33789063 V 0.3984375 C 7.8767044,8.5437611 22.580753,24.405267 33.837891,36.388672 c 15.813612,16.833845 20.06416,24.314627 34.6875,38.257812 14.62334,13.943185 35.369139,32.988286 35.369139,32.988286 v 5.95117 c 0,0 4.07758,6.4687 10.57031,7.00976 6.49272,0.54106 11.30079,-0.96093 11.30079,-0.96093 l 50.3789,19.29687 v 3.54688 c 0,0 5.53239,6.79305 20.74219,5.71093 15.20981,-1.08212 17.13281,-9.19726 17.13281,-9.19726 0,0 17.13316,-0.24077 36.61133,-1.6836 19.47817,-1.44282 37.15234,-3.66601 37.15234,-3.66601 0,0 6.13189,6.25138 19.95899,5.34961 13.82709,-0.90177 17.73633,-5.23047 17.73633,-5.23047 v -5.83008 l 89.09375,-28.496093 c 0,0 4.56933,5.650273 16.47265,1.802733 11.90333,-3.84754 12.26367,-8.416014 12.26367,-8.416014 V 61.199219 c 0,0 18.87642,-17.193239 25.36914,-21.28125 6.49272,-4.08801 16.83419,-14.42723 19.59961,-17.914063 1.94309,-2.449979 15.46025,-14.6358927 23.32813,-21.66601537 z"
       style="fill:#a351b3;fill-opacity:0.446809;stroke:#000000;stroke-width:0.675905"
       id="path35" /></g></svg>
