<?xml version="1.0" encoding="UTF-8" standalone="no"?>
<!-- Created with Inkscape (http://www.inkscape.org/) -->

<svg
   width="512"
   height="512"
   viewBox="0 0 512 512"
   version="1.1"
   id="svg1"
   xml:space="preserve"
   xmlns="http://www.w3.org/2000/svg"
   xmlns:svg="http://www.w3.org/2000/svg"><defs
     id="defs1" /><g
     id="layer18"
     style="display:inline"><path
       d="m 236.10547,511.66211 c -1.0847,-17.13262 -5.36546,-22.07684 -13.06836,-31.32031 -9.01767,-10.82121 -29.57773,-34.14793 -28.97656,-53.50586 0.13667,-4.40093 0.8253,-7.88194 2.0625,-10.8418 -3.94463,0.29874 -7.33618,0.5186 -9.67578,0.60156 -11.98774,0.4251 -12.66812,0.59447 -19.55469,-1.87109 -6.88657,-2.46557 -13.85719,-5.18657 -24.14453,-6.54688 -10.28735,-1.36031 -14.28412,-4.42055 -24.31641,-9.18164 -10.03229,-4.76108 -23.635431,-12.24249 -25.505859,-14.62304 -1.870427,-2.38054 0.256176,-7.90758 2.636719,-11.64844 2.380544,-3.74085 9.69251,-6.29074 13.77344,-9.52149 4.08094,-3.23073 1.0188,-3.9116 4.92969,-7.48242 2.49405,-2.27719 8.30855,-6.21397 12.19335,-8.76758 0.0766,-2.53989 0.14844,-4.70312 0.14844,-4.70312 l -2.94531,-0.96094 c 0,0 3.54736,-3.66688 5.53125,-6.25195 1.98389,-2.58506 5.65039,-7.75586 5.65039,-7.75586 l 19.23828,-9.49805 c 0,0 1.7735,2.19439 3.90625,4.52344 l 16.47266,-7.19336 v -0.95703 c -9.31328,-0.87722 -21.77282,-2.53294 -33.54492,-5.63086 C 118.07125,302.51361 94.985861,289.2861 79.595703,280.38867 64.205544,271.49123 51.941654,264.99988 27.894531,269.08789 17.852985,270.79495 8.1888892,272.58471 0.33789063,274.0918 v 237.57031 z"
       style="fill:#a351b3;fill-opacity:0.446809;stroke:#000000;stroke-width:0.675905"
       id="path37" /></g></svg>
