<?xml version="1.0" encoding="UTF-8" standalone="no"?>
<!-- Created with Inkscape (http://www.inkscape.org/) -->

<svg
   width="512"
   height="512"
   viewBox="0 0 512 512"
   version="1.1"
   id="svg1"
   xml:space="preserve"
   xmlns="http://www.w3.org/2000/svg"
   xmlns:svg="http://www.w3.org/2000/svg"><defs
     id="defs1" /><g
     id="layer18"
     style="display:inline"><path
       d="m 511.66211,271.76758 c -8.69125,-0.90159 -15.97581,-3.72896 -26.88086,-7.52735 -15.13346,-5.27121 -31.96768,-10.37245 -53.39258,-11.22265 -18.00587,-0.71452 -24.96371,-0.10763 -46.60937,6.16015 l 0.69531,1.01172 -0.8418,1.08203 -2.40429,-0.48046 v 19.47851 l -36.00782,12.41992 17.06641,23.15821 -4.16602,2.7207 v 6.12109 c 8.49154,4.36484 14.73882,7.69737 15.81446,8.58594 3.91089,3.23074 5.44156,5.61219 2.38086,10.0332 -3.0607,4.421 -28.05693,15.98376 -33.32813,19.72461 -5.2712,3.74085 -22.78516,8.8418 -22.78516,8.8418 l -27.93164,-15.12305 c 0.88574,11.64527 -1.72337,23.85121 -7.59179,32.08985 -17.98409,25.24774 -41.24251,31.22856 -41.36133,52.42382 -0.0888,15.84752 17.0103,17.72985 28.13476,37.75391 4.6992,8.45856 3.6262,21.26419 1.46875,32.64258 h 237.74024 z"
       style="fill:#a351b3;fill-opacity:0.446809;stroke:#000000;stroke-width:0.675905"
       id="path38" /></g></svg>
