<?xml version="1.0" encoding="UTF-8" standalone="no"?>
<!-- Created with Inkscape (http://www.inkscape.org/) -->

<svg
   width="512"
   height="512"
   viewBox="0 0 512 512"
   version="1.1"
   id="svg1"
   xml:space="preserve"
   xmlns="http://www.w3.org/2000/svg"
   xmlns:svg="http://www.w3.org/2000/svg"><defs
     id="defs1" /><g
     id="layer18"
     style="display:inline"><path
       d="M 511.60547,0.33789063 C 503.73759,7.3680133 490.22043,19.553927 488.27734,22.003906 c -2.76542,3.486833 -13.10689,13.826053 -19.59961,17.914063 -6.49272,4.088011 -25.36914,21.28125 -25.36914,21.28125 v 31.623047 c 0,0 -0.36034,4.568474 -12.26367,8.416014 -11.90332,3.84754 -16.47265,-1.802733 -16.47265,-1.802733 l -89.09375,28.496093 v 5.83008 c 0,0 -3.90924,4.3287 -17.73633,5.23047 -13.8271,0.90177 -19.95899,-5.34961 -19.95899,-5.34961 0,0 -17.67417,2.22319 -37.15234,3.66601 -19.47817,1.44283 -36.61133,1.6836 -36.61133,1.6836 0,0 -1.923,8.11514 -17.13281,9.19726 -15.2098,1.08212 -20.74219,-5.71093 -20.74219,-5.71093 v -3.54688 l -50.3789,-19.29687 c 0,0 -4.80807,1.50199 -11.30079,0.96093 -6.49273,-0.54106 -10.57031,-7.00976 -10.57031,-7.00976 v -5.95117 c 0,0 -20.745799,-19.045101 -35.369139,-32.988286 C 53.902051,60.703299 49.651503,53.222517 33.837891,36.388672 22.580753,24.405267 7.8767044,8.5437611 0.33789063,0.3984375 V 235.70508 c 17.21594537,-1.7545 30.38408837,-6.15018 52.32617137,-4.3711 26.692307,2.16425 45.089702,15.79534 63.242188,23.08399 11.89852,4.77753 18.93549,7.15878 25.61719,8.32812 -5.99299,-4.20064 -13.2154,-7.98212 -22.15625,-11.08789 -16.15369,-5.61128 -19.724845,-10.37286 -19.384768,-16.32422 0.317068,-5.54884 6.546888,-3.41247 16.759768,-14.8125 l 0.0977,-17.56445 -2.99804,-1.37695 c 0,0 3.65495,-3.14448 6.9707,-7.48047 3.31576,-4.33599 7.11914,-10.5 7.11914,-10.5 0,0 8.50561,4.38783 14.2168,6.73242 5.71119,2.34459 15.11914,5.95313 15.11914,5.95313 l 12.08398,12.86523 -0.48047,1.5332 -3.42773,-0.51172 v 4.20704 c 8.38928,-2.19544 15.33695,-2.29897 23.77344,0.9082 l 0.27539,-20.80664 -1.95508,1.08203 -0.24024,-0.86719 12.24415,-14.19922 c 0,0 4.84527,-1.10577 12.58203,-4.93164 7.73677,-3.82588 31.45703,-15.38867 31.45703,-15.38867 l 21.50976,32.39258 h 1.78516 l 12.1582,9.86328 -2.55078,1.95508 0.25586,13.51758 -3.00586,1.56054 c 18.60359,-0.16252 26.54402,0.68524 39.98633,9.88086 2.05977,-2.04399 4.27432,-4.35488 5.98828,-6.42968 4.56895,-5.53084 12.98438,-16.7129 12.98438,-16.7129 l 12.14453,10.10157 27.65429,-13.10742 c 0,0 3.1263,2.6462 5.77149,5.89257 2.64518,3.24636 3.967,6.37277 6.73242,9.61914 0.63056,0.74022 1.20589,1.40432 1.7168,1.99024 22.53618,-7.13318 35.81799,-5.45762 50.71484,-4.49414 17.08891,1.10526 36.8984,7.9062 49.73633,12.24219 10.03711,3.39001 14.35684,5.53306 24.5,6.10351 V 0.33789063 Z"
       style="fill:#a351b3;fill-opacity:0.446809;stroke:#000000;stroke-width:0.675905"
       id="path36" /></g></svg>
