<?xml version="1.0" encoding="UTF-8" standalone="no"?>
<!-- Created with Inkscape (http://www.inkscape.org/) -->

<svg
   width="512"
   height="512"
   viewBox="0 0 512 512"
   version="1.1"
   id="svg1"
   xml:space="preserve"
   xmlns="http://www.w3.org/2000/svg"
   xmlns:svg="http://www.w3.org/2000/svg"><defs
     id="defs1" /><g
     id="layer23"><path
       d="m 274.37695,0.1953125 c -2.51459,12.5081475 -8.33036,27.0328085 -22.12304,44.5332035 -22.36382,28.375605 -23.5657,24.527452 -40.15821,44.246093 -15.2369,18.107621 -28.85647,32.463531 -29.81836,53.625001 -0.96188,21.16147 5.53036,27.65375 8.41602,34.14648 2.88565,6.49272 4.56995,12.02385 8.89844,17.55469 4.32848,5.53084 23.63783,22.78682 48.33398,34.38672 21.86666,10.27088 48.81949,27.35603 62.04102,44.48828 14.32311,18.55966 51.7014,69.01525 51.46093,97.15039 -0.20348,23.80699 -26.93128,53.62387 -39.19531,64.68555 -11.80813,10.65047 -36.32364,17.28866 -47.35937,76.79297 H 511.80469 V 0.1953125 Z"
       style="fill:#a351b3;fill-opacity:0.446809;stroke:#000000;stroke-width:0.389848"
       id="path5" /></g></svg>
