<?xml version="1.0" encoding="UTF-8" standalone="no"?>
<!-- Created with Inkscape (http://www.inkscape.org/) -->

<svg
   width="512"
   height="512"
   viewBox="0 0 512 512"
   version="1.1"
   id="svg1"
   xml:space="preserve"
   xmlns="http://www.w3.org/2000/svg"
   xmlns:svg="http://www.w3.org/2000/svg"><defs
     id="defs1" /><g
     id="layer23"><path
       d="m 274.37695,0.1953125 h -36.91992 c -4.08216,9.0252269 -8.774,16.8655385 -12.13476,21.6874995 -5.53083,7.935552 -71.42063,68.774956 -78.63477,110.857418 -6.71985,39.1991 14.42784,77.67152 34.14648,97.8711 19.71864,20.19958 46.65204,31.74205 68.77539,43.76562 22.12335,12.02356 30.02885,20.26816 38.95704,33.18555 11.30215,16.35204 29.81812,42.56343 30.05859,65.4082 0.24048,22.84476 -15.4841,30.1674 -40.16016,56.0293 -24.07645,25.23348 -33.11352,30.1507 -41.51757,82.80469 h 37.92578 c 11.03573,-59.50431 35.55124,-66.1425 47.35937,-76.79297 12.26403,-11.06168 38.99183,-40.87856 39.19531,-64.68555 0.24047,-28.13514 -37.13782,-78.59073 -51.46093,-97.15039 -13.22153,-17.13225 -40.17436,-34.2174 -62.04102,-44.48828 -24.69615,-11.5999 -44.0055,-28.85588 -48.33398,-34.38672 -4.32849,-5.53084 -6.01279,-11.06197 -8.89844,-17.55469 -2.88566,-6.49273 -9.3779,-12.98501 -8.41602,-34.14648 0.96189,-21.16147 14.58146,-35.51738 29.81836,-53.625001 16.59251,-19.718641 17.79439,-15.870488 40.15821,-44.246093 13.79268,-17.500395 19.60845,-32.025056 22.12304,-44.5332035 z"
       style="fill:#a351b3;fill-opacity:0.446809;stroke:#000000;stroke-width:0.389848"
       id="path3" /></g></svg>
