<?xml version="1.0" encoding="UTF-8" standalone="no"?>
<!-- Created with Inkscape (http://www.inkscape.org/) -->

<svg
   width="512"
   height="512"
   viewBox="0 0 512 512"
   version="1.1"
   id="svg1"
   inkscape:version="1.4.2 (f4327f4, 2025-05-13)"
   sodipodi:docname="tile_basic_O_inkscape.svg"
   xml:space="preserve"
   inkscape:export-filename="tile_basic_O_field_bottom.svg"
   inkscape:export-xdpi="96"
   inkscape:export-ydpi="96"
   xmlns:inkscape="http://www.inkscape.org/namespaces/inkscape"
   xmlns:sodipodi="http://sodipodi.sourceforge.net/DTD/sodipodi-0.dtd"
   xmlns:xlink="http://www.w3.org/1999/xlink"
   xmlns="http://www.w3.org/2000/svg"
   xmlns:svg="http://www.w3.org/2000/svg"><sodipodi:namedview
     id="namedview1"
     pagecolor="#ffffff"
     bordercolor="#000000"
     borderopacity="0.25"
     inkscape:showpageshadow="2"
     inkscape:pageopacity="0.0"
     inkscape:pagecheckerboard="0"
     inkscape:deskcolor="#d1d1d1"
     inkscape:document-units="px"
     labelstyle="default"
     inkscape:zoom="1.4702523"
     inkscape:cx="199.6256"
     inkscape:cy="368.98428"
     inkscape:window-width="2560"
     inkscape:window-height="1369"
     inkscape:window-x="-8"
     inkscape:window-y="-8"
     inkscape:window-maximized="1"
     inkscape:current-layer="layer20" /><defs
     id="defs1" /><g
     inkscape:label="Layer 1"
     inkscape:groupmode="layer"
     id="layer1"><image
       width="512"
       height="512"
       preserveAspectRatio="none"
       xlink:href="tile_basic_O.png"
       id="image1"
       x="0"
       y="0"
       inkscape:label="tile_basic_O"
       sodipodi:insensitive="true" /><path
       style="display:none;fill:#a351b3;fill-opacity:0.446809;stroke:#000000;stroke-width:0.1"
       d="M -4.5689534,517.01315 C 17.794871,505.95147 23.686416,501.74322 23.686416,501.74322 c 0,0 3.486833,1.56307 8.176022,0.60118 4.689189,-0.96188 6.612959,-3.24636 6.612959,-3.24636 v -10.4605 c 0,0 11.302148,-12.62474 18.155578,-27.29348 6.85343,-14.66875 10.460499,-27.53396 10.460499,-27.53396 0,0 5.651074,0.72142 12.023561,-1.56306 6.372488,-2.28448 9.859321,-6.61296 9.859321,-6.61296 v -32.10291 c 0,0 6.372487,-7.45461 12.744974,-13.46639 6.37249,-6.01178 15.75087,-13.10568 15.75087,-13.10568 l 12.26403,8.53673 45.20859,-24.6483 v -3.48684 l 52.90367,-28.49584 11.90333,5.29037 21.2817,-12.74498 v -9.73908 l 32.82433,-22.6043 c 0,0 5.7713,2.28448 12.74497,0.72142 6.97367,-1.56306 10.58073,-6.13202 10.58073,-6.13202 V 263.316 c 0,0 17.79488,-10.70097 31.62197,-22.24359 13.8271,-11.54262 25.12925,-23.80665 25.12925,-23.80665 l 15.39015,8.05578 25.48995,-13.94733 v -60.83922 l 4.08802,-2.52495 -4.32849,-4.32848 11.54262,-14.90922 c 0,0 6.37249,3.12613 12.98545,1.44283 6.61296,-1.6833 9.13791,-5.4106 9.13791,-5.4106 V 93.663545 c 0,0 7.21413,-9.979556 14.1878,-22.123354 6.97366,-12.143797 11.42238,-19.959112 20.80076,-34.146914 9.37838,-14.187803 32.82432,-43.4050578 32.82432,-43.4050578 l -528.555764,-3.126126 z"
       id="path1"
       inkscape:label="city"
       sodipodi:insensitive="true" /><path
       style="display:none;fill:#a351b3;fill-opacity:0.446809;stroke:#000000;stroke-width:0.1"
       d="m 233.2571,537.69368 c 5.04989,-48.09425 9.37837,-49.29661 17.07345,-59.3964 7.69508,-10.09979 17.31393,-19.2377 14.42828,-33.90644 -3.3034,-16.79222 -15.14969,-25.97089 -2.16425,-52.6632 12.98545,-26.69231 43.5253,-37.75399 77.43174,-48.81566 33.90645,-11.06168 56.51074,-17.5544 68.5343,-50.01802 12.02356,-32.46362 28.13513,-49.2966 62.04158,-55.06791 35.94984,-6.11912 63.24393,-0.48094 63.24393,-0.48094 l -1.44282,38.23492 c 0,0 -51.08743,-8.23901 -76.46986,7.21414 -26.13421,15.91083 -12.98544,25.97089 -32.94455,51.22037 -13.55627,17.1495 -48.09425,26.6923 -69.73666,34.86833 -21.64241,8.17602 -48.33472,22.84477 -52.6632,36.31116 -4.18603,13.02319 -3.12613,27.17324 3.3666,35.83021 6.49272,8.65696 5.53084,17.5544 -2.64518,29.33749 -8.17602,11.78309 -15.87111,12.26403 -21.64242,27.17325 -5.77131,14.90921 -8.65696,37.03257 -8.65696,37.03257 z"
       id="path2"
       sodipodi:nodetypes="cssssssccssssssscc"
       inkscape:label="road"
       sodipodi:insensitive="true" /><rect
       style="display:none;fill:#a351b3;fill-opacity:0.446809;stroke:#000000;stroke-width:0.354078"
       id="rect2"
       width="511.64594"
       height="511.64594"
       x="0.17703916"
       y="0.17703916"
       inkscape:label="field"
       sodipodi:insensitive="true" /></g><g
     inkscape:groupmode="layer"
     id="layer20"
     inkscape:label="cut"><path
       d="m 511.82227,273.62109 c -17.09241,-0.81016 -40.945,0.0759 -55.88868,9.17383 -26.13421,15.91083 -12.9862,25.96927 -32.94531,51.21875 -13.55627,17.1495 -48.09392,26.69311 -69.73633,34.86914 -21.64241,8.17602 -48.33363,22.84416 -52.66211,36.31055 -4.18603,13.02319 -3.12749,27.17311 3.36524,35.83008 6.49272,8.65696 5.53149,17.5548 -2.64453,29.33789 -8.17602,11.78309 -15.87127,12.26461 -21.64258,27.17383 -1.69826,4.38717 -3.14717,9.39811 -4.3457,14.28711 h 236.5 z"
       style="fill:#a351b3;fill-opacity:0.446809;stroke:#000000;stroke-width:0.354078"
       id="path8"
       inkscape:label="field_bottom" /><path
       d="m 511.82227,235.10937 c -10.92873,-0.40131 -25.21701,-0.007 -41.22071,2.7168 -33.90645,5.77131 -50.01745,22.60474 -62.04101,55.06836 -12.02356,32.46362 -34.62871,38.9559 -68.53516,50.01758 -33.90644,11.06167 -64.44619,22.1241 -77.43164,48.81641 -12.98544,26.69231 -1.13738,35.86989 2.16602,52.6621 2.88565,14.66875 -6.73461,23.80647 -14.42969,33.90625 -5.97285,7.83937 -9.91617,10.31798 -13.74414,33.5254 h 38.73633 c 1.19853,-4.889 2.64744,-9.89994 4.3457,-14.28711 5.77131,-14.90922 13.46656,-15.39074 21.64258,-27.17383 8.17602,-11.78309 9.13725,-20.68093 2.64453,-29.33789 -6.49273,-8.65697 -7.55127,-22.80689 -3.36524,-35.83008 4.32848,-13.46639 31.0197,-28.13453 52.66211,-36.31055 21.64241,-8.17603 56.18006,-17.71964 69.73633,-34.86914 19.95911,-25.24948 6.8111,-35.30792 32.94531,-51.21875 14.94368,-9.0979 38.79627,-9.98399 55.88868,-9.17383 z"
       style="fill:#a351b3;fill-opacity:0.446809;stroke:#000000;stroke-width:0.354078"
       id="path7"
       inkscape:label="road" /><path
       d="M 511.13281,0.17773437 C 503.73748,9.540644 489.90977,27.282083 483.22656,37.392578 c -9.37838,14.187802 -13.82712,22.004641 -20.80078,34.148438 -6.97367,12.143798 -14.1875,22.123046 -14.1875,22.123046 v 31.140628 c 0,0 -2.52571,3.72685 -9.13867,5.41015 -6.61296,1.6833 -12.98438,-1.44336 -12.98438,-1.44336 l -11.54296,14.91016 4.32812,4.32813 -4.08789,2.52539 V 211.375 l -25.49023,13.94727 -15.38868,-8.05665 c 0,0 -11.30376,12.26403 -25.13086,23.80665 -13.82709,11.54262 -31.62109,22.24414 -31.62109,22.24414 v 10.33984 c 0,0 -3.60641,4.56975 -10.58008,6.13281 -6.97367,1.56306 -12.74609,-0.72265 -12.74609,-0.72265 l -32.82422,22.60546 v 9.73829 L 239.75,324.1543 l -11.9043,-5.28907 -52.90234,28.4961 v 3.48633 l -45.20899,24.64843 -12.26367,-8.53711 c 0,0 -9.37946,7.09369 -15.75195,13.10547 -6.372487,6.01178 -12.744141,13.4668 -12.744141,13.4668 v 32.10352 c 0,0 -3.486887,4.32684 -9.859375,6.61132 -6.372487,2.28448 -12.023437,1.56446 -12.023437,1.56446 0,0 -3.607508,12.86445 -10.460938,27.5332 -6.85343,14.66874 -18.15625,27.29297 -18.15625,27.29297 v 10.46094 c 0,0 -1.922139,2.28421 -6.611328,3.24609 -4.689189,0.96189 -8.177734,-0.59961 -8.177734,-0.59961 0,0 -4.008846,2.86307 -17.9726564,10.07813 H 236.58594 c 3.82797,-23.20742 7.77129,-25.68603 13.74414,-33.5254 7.69508,-10.09978 17.31534,-19.2375 14.42969,-33.90625 -3.3034,-16.79221 -15.15146,-25.96979 -2.16602,-52.6621 12.98545,-26.69231 43.5252,-37.75474 77.43164,-48.81641 33.90645,-11.06168 56.5116,-17.55396 68.53516,-50.01758 12.02356,-32.46362 28.13456,-49.29705 62.04101,-55.06836 16.0037,-2.72403 30.29198,-3.11811 41.22071,-2.7168 V 0.17773437 Z"
       style="fill:#a351b3;fill-opacity:0.446809;stroke:#000000;stroke-width:0.354078"
       id="path6"
       inkscape:label="field_top" /><path
       d="M 511.13281,0.17773437 H 0.17773437 V 511.82227 H 5.7128906 c 13.9638104,-7.21506 17.9726564,-10.07813 17.9726564,-10.07813 0,0 3.488545,1.5615 8.177734,0.59961 4.689189,-0.96188 6.611328,-3.24609 6.611328,-3.24609 v -10.46094 c 0,0 11.30282,-12.62423 18.15625,-27.29297 6.85343,-14.66875 10.460938,-27.5332 10.460938,-27.5332 0,0 5.65095,0.72002 12.023437,-1.56446 6.372488,-2.28448 9.859375,-6.61132 9.859375,-6.61132 v -32.10352 c 0,0 6.371654,-7.45502 12.744141,-13.4668 6.37249,-6.01178 15.75195,-13.10547 15.75195,-13.10547 l 12.26367,8.53711 45.20899,-24.64843 v -3.48633 l 52.90234,-28.4961 11.9043,5.28907 21.28125,-12.74414 v -9.73829 l 32.82422,-22.60546 c 0,0 5.77242,2.28571 12.74609,0.72265 6.97367,-1.56306 10.58008,-6.13281 10.58008,-6.13281 v -10.33984 c 0,0 17.794,-10.70152 31.62109,-22.24414 13.8271,-11.54262 25.13086,-23.80665 25.13086,-23.80665 l 15.38868,8.05665 25.49023,-13.94727 v -60.83984 l 4.08789,-2.52539 -4.32812,-4.32813 11.54296,-14.91016 c 0,0 6.37142,3.12666 12.98438,1.44336 6.61296,-1.6833 9.13867,-5.41015 9.13867,-5.41015 V 93.664062 c 0,0 7.21383,-9.979248 14.1875,-22.123046 6.97366,-12.143797 11.4224,-19.960636 20.80078,-34.148438 6.68321,-10.110495 20.51092,-27.851934 27.90625,-37.21484363 z"
       style="fill:#a351b3;fill-opacity:0.446809;stroke:#000000;stroke-width:0.354078"
       id="path5"
       inkscape:label="city" /></g></svg>
