<?xml version="1.0" encoding="UTF-8" standalone="no"?>
<!-- Created with Inkscape (http://www.inkscape.org/) -->

<svg
   width="512"
   height="512"
   viewBox="0 0 512 512"
   version="1.1"
   id="svg1"
   xml:space="preserve"
   xmlns="http://www.w3.org/2000/svg"
   xmlns:svg="http://www.w3.org/2000/svg"><defs
     id="defs1" /><g
     id="layer20"><path
       d="M 511.13281,0.17773437 H 0.17773437 V 511.82227 H 5.7128906 c 13.9638104,-7.21506 17.9726564,-10.07813 17.9726564,-10.07813 0,0 3.488545,1.5615 8.177734,0.59961 4.689189,-0.96188 6.611328,-3.24609 6.611328,-3.24609 v -10.46094 c 0,0 11.30282,-12.62423 18.15625,-27.29297 6.85343,-14.66875 10.460938,-27.5332 10.460938,-27.5332 0,0 5.65095,0.72002 12.023437,-1.56446 6.372488,-2.28448 9.859375,-6.61132 9.859375,-6.61132 v -32.10352 c 0,0 6.371654,-7.45502 12.744141,-13.4668 6.37249,-6.01178 15.75195,-13.10547 15.75195,-13.10547 l 12.26367,8.53711 45.20899,-24.64843 v -3.48633 l 52.90234,-28.4961 11.9043,5.28907 21.28125,-12.74414 v -9.73829 l 32.82422,-22.60546 c 0,0 5.77242,2.28571 12.74609,0.72265 6.97367,-1.56306 10.58008,-6.13281 10.58008,-6.13281 v -10.33984 c 0,0 17.794,-10.70152 31.62109,-22.24414 13.8271,-11.54262 25.13086,-23.80665 25.13086,-23.80665 l 15.38868,8.05665 25.49023,-13.94727 v -60.83984 l 4.08789,-2.52539 -4.32812,-4.32813 11.54296,-14.91016 c 0,0 6.37142,3.12666 12.98438,1.44336 6.61296,-1.6833 9.13867,-5.41015 9.13867,-5.41015 V 93.664062 c 0,0 7.21383,-9.979248 14.1875,-22.123046 6.97366,-12.143797 11.4224,-19.960636 20.80078,-34.148438 6.68321,-10.110495 20.51092,-27.851934 27.90625,-37.21484363 z"
       style="fill:#a351b3;fill-opacity:0.446809;stroke:#000000;stroke-width:0.354078"
       id="path5" /></g></svg>
