<?xml version="1.0" encoding="UTF-8" standalone="no"?>
<!-- Created with Inkscape (http://www.inkscape.org/) -->

<svg
   width="512"
   height="512"
   viewBox="0 0 512 512"
   version="1.1"
   id="svg1"
   xml:space="preserve"
   xmlns="http://www.w3.org/2000/svg"
   xmlns:svg="http://www.w3.org/2000/svg"><defs
     id="defs1" /><g
     id="layer20"><path
       d="M 511.13281,0.17773437 C 503.73748,9.540644 489.90977,27.282083 483.22656,37.392578 c -9.37838,14.187802 -13.82712,22.004641 -20.80078,34.148438 -6.97367,12.143798 -14.1875,22.123046 -14.1875,22.123046 v 31.140628 c 0,0 -2.52571,3.72685 -9.13867,5.41015 -6.61296,1.6833 -12.98438,-1.44336 -12.98438,-1.44336 l -11.54296,14.91016 4.32812,4.32813 -4.08789,2.52539 V 211.375 l -25.49023,13.94727 -15.38868,-8.05665 c 0,0 -11.30376,12.26403 -25.13086,23.80665 -13.82709,11.54262 -31.62109,22.24414 -31.62109,22.24414 v 10.33984 c 0,0 -3.60641,4.56975 -10.58008,6.13281 -6.97367,1.56306 -12.74609,-0.72265 -12.74609,-0.72265 l -32.82422,22.60546 v 9.73829 L 239.75,324.1543 l -11.9043,-5.28907 -52.90234,28.4961 v 3.48633 l -45.20899,24.64843 -12.26367,-8.53711 c 0,0 -9.37946,7.09369 -15.75195,13.10547 -6.372487,6.01178 -12.744141,13.4668 -12.744141,13.4668 v 32.10352 c 0,0 -3.486887,4.32684 -9.859375,6.61132 -6.372487,2.28448 -12.023437,1.56446 -12.023437,1.56446 0,0 -3.607508,12.86445 -10.460938,27.5332 -6.85343,14.66874 -18.15625,27.29297 -18.15625,27.29297 v 10.46094 c 0,0 -1.922139,2.28421 -6.611328,3.24609 -4.689189,0.96189 -8.177734,-0.59961 -8.177734,-0.59961 0,0 -4.008846,2.86307 -17.9726564,10.07813 H 236.58594 c 3.82797,-23.20742 7.77129,-25.68603 13.74414,-33.5254 7.69508,-10.09978 17.31534,-19.2375 14.42969,-33.90625 -3.3034,-16.79221 -15.15146,-25.96979 -2.16602,-52.6621 12.98545,-26.69231 43.5252,-37.75474 77.43164,-48.81641 33.90645,-11.06168 56.5116,-17.55396 68.53516,-50.01758 12.02356,-32.46362 28.13456,-49.29705 62.04101,-55.06836 16.0037,-2.72403 30.29198,-3.11811 41.22071,-2.7168 V 0.17773437 Z"
       style="fill:#a351b3;fill-opacity:0.446809;stroke:#000000;stroke-width:0.354078"
       id="path6" /></g></svg>
