<?xml version="1.0" encoding="UTF-8" standalone="no"?>
<!-- Created with Inkscape (http://www.inkscape.org/) -->

<svg
   width="512"
   height="512"
   viewBox="0 0 512 512"
   version="1.1"
   id="svg1"
   xml:space="preserve"
   xmlns="http://www.w3.org/2000/svg"
   xmlns:svg="http://www.w3.org/2000/svg"><defs
     id="defs1" /><g
     id="layer20"><path
       d="m 511.82227,235.10937 c -10.92873,-0.40131 -25.21701,-0.007 -41.22071,2.7168 -33.90645,5.77131 -50.01745,22.60474 -62.04101,55.06836 -12.02356,32.46362 -34.62871,38.9559 -68.53516,50.01758 -33.90644,11.06167 -64.44619,22.1241 -77.43164,48.81641 -12.98544,26.69231 -1.13738,35.86989 2.16602,52.6621 2.88565,14.66875 -6.73461,23.80647 -14.42969,33.90625 -5.97285,7.83937 -9.91617,10.31798 -13.74414,33.5254 h 38.73633 c 1.19853,-4.889 2.64744,-9.89994 4.3457,-14.28711 5.77131,-14.90922 13.46656,-15.39074 21.64258,-27.17383 8.17602,-11.78309 9.13725,-20.68093 2.64453,-29.33789 -6.49273,-8.65697 -7.55127,-22.80689 -3.36524,-35.83008 4.32848,-13.46639 31.0197,-28.13453 52.66211,-36.31055 21.64241,-8.17603 56.18006,-17.71964 69.73633,-34.86914 19.95911,-25.24948 6.8111,-35.30792 32.94531,-51.21875 14.94368,-9.0979 38.79627,-9.98399 55.88868,-9.17383 z"
       style="fill:#a351b3;fill-opacity:0.446809;stroke:#000000;stroke-width:0.354078"
       id="path7" /></g></svg>
